<svg width="62" height="71" viewBox="0 0 62 71" fill="none" xmlns="http://www.w3.org/2000/svg">
<path d="M26.476 68.1477L25.98 66.2222H35.753L35.261 68.1477C34.9776 69.253 33.9571 70.0305 32.7889 70.0305H28.9502C27.7819 70.0305 26.7615 69.2509 26.476 68.1477Z" fill="#FFAD00"/>
<path d="M41.2299 53.7957L36.5651 55.5686C37.0693 55.2999 37.4155 54.7646 37.4155 54.1458V53.4537C37.4155 51.1883 39.2012 46.5291 40.989 45.1674C45.0849 42.0409 47.7372 37.0663 47.7372 31.4626C47.7372 21.9998 40.1791 14.3282 30.8536 14.3282C21.528 14.3282 13.974 21.9998 13.974 31.4626C13.974 37.0642 16.6243 42.0389 20.7222 45.1674C22.5039 46.5271 24.2957 51.1903 24.2957 53.4537V54.1458C24.2957 54.7361 24.6095 55.251 25.0752 55.5258L20.5096 53.7936C19.8151 55.249 17.5779 57.545 16.3226 58.6645L9.98947 53.9952C10.6515 52.438 12.1093 49.568 13.2593 48.4485L9.62706 43.3741C8.22195 44.1354 5.07968 44.6585 3.41946 44.8152L1 37.2596C2.43548 36.3946 5.28012 34.9433 6.85733 34.7214V28.4481C5.2781 28.2263 2.43548 26.777 1 25.9099L3.41946 18.3563C5.08171 18.5131 8.22397 19.0362 9.62706 19.7974L13.2593 14.7231C12.1093 13.6035 10.6515 10.7336 9.98947 9.17643L16.3226 4.50709C17.5779 5.62659 19.8151 7.92259 20.5096 9.37794L26.3892 7.43815C26.1078 5.84846 26.5876 2.65483 26.9561 1H34.7854C35.1539 2.65483 35.6338 5.84846 35.3523 7.43815L41.2319 9.37794C41.9264 7.92259 44.1636 5.62659 45.4189 4.50709L51.7521 9.17643C51.09 10.7336 49.6322 13.6035 48.4822 14.7231L52.1145 19.7974C53.5196 19.0362 56.6618 18.5131 58.3221 18.3563L60.7415 25.9099C59.3061 26.775 56.4614 28.2263 54.8842 28.4481V34.7214C56.4634 34.9433 59.3061 36.3925 60.7415 37.2596L58.3221 44.8152C56.6598 44.6585 53.5176 44.1354 52.1145 43.3741L48.4822 48.4485C49.6322 49.568 51.09 52.438 51.7521 53.9952L45.4189 58.6645C44.1636 57.545 41.9264 55.249 41.2319 53.7936L41.2299 53.7957Z" fill="#FFAD00"/>
<path d="M35.753 66.2219H25.98L26.476 68.1475C26.7595 69.2527 27.7799 70.0303 28.9502 70.0303H32.7889C33.9571 70.0303 34.9776 69.2507 35.261 68.1475L35.753 66.2219Z" stroke="#222222" stroke-linejoin="round"/>
<path d="M24.4962 59.3215H37.2414" stroke="#222222" stroke-miterlimit="10"/>
<path d="M24.8627 62.8044H36.8729" stroke="#222222" stroke-miterlimit="10"/>
<path d="M24.3684 32.9849H31.2948" stroke="#222222" stroke-miterlimit="10"/>
<path d="M32.9371 36.3167L31.453 32.9134L27.7823 24.5029L24.1278 32.8768L22.6255 36.3167" stroke="#222222" stroke-linejoin="round"/>
<path d="M38.0244 23.0251V36.8642" stroke="#222222" stroke-linejoin="round"/>
<path d="M36.5649 55.5679C37.069 55.3013 37.4152 54.766 37.4152 54.1472V53.4551C37.4152 51.1897 39.201 46.5305 40.9887 45.1688C45.0846 42.0423 47.7369 37.0677 47.7369 31.4641C47.7369 22.0012 40.1789 14.3296 30.8533 14.3296C21.5277 14.3296 13.9738 22.0012 13.9738 31.4641C13.9738 37.0656 16.624 42.0403 20.7219 45.1688C22.5036 46.5285 24.2955 51.1917 24.2955 53.4551V54.1472C24.2955 54.7375 24.6093 55.2524 25.0749 55.5272C25.3078 55.6697 25.5791 55.7491 25.8706 55.7491H35.836C36.0992 55.7491 36.3462 55.684 36.5649 55.5679Z" stroke="#222222" stroke-miterlimit="10"/>
<path d="M25.0752 55.5296L20.5096 53.7954C19.8151 55.2507 17.5779 57.5467 16.3226 58.6662L9.98947 53.9969C10.6515 52.4397 12.1093 49.5697 13.2593 48.4502L9.62706 43.3758C8.22195 44.1371 5.07968 44.6602 3.41946 44.817L1 37.2613C2.43548 36.3963 5.28012 34.945 6.85733 34.7231V28.4498C5.2781 28.228 2.43548 26.7787 1 25.9116L3.41946 18.358C5.08171 18.5148 8.22397 19.0379 9.62706 19.7992L13.2593 14.7248C12.1093 13.6053 10.6515 10.7353 9.98947 9.17814L16.3226 4.5088C17.5779 5.6283 19.8151 7.9243 20.5096 9.37965L26.3892 7.43986C26.1078 5.85017 26.5876 2.65654 26.9561 1.00171H34.7854C35.1539 2.65654 35.6338 5.85017 35.3523 7.43986L41.2319 9.37965C41.9264 7.9243 44.1636 5.6283 45.4189 4.5088L51.7521 9.17814C51.09 10.7353 49.6322 13.6053 48.4822 14.7248L52.1145 19.7992C53.5196 19.0379 56.6618 18.5148 58.3221 18.358L60.7415 25.9116C59.3061 26.7767 56.4614 28.228 54.8842 28.4498V34.7231C56.4634 34.945 59.3061 36.3942 60.7415 37.2613L58.3221 44.817C56.6598 44.6602 53.5176 44.1371 52.1145 43.3758L48.4822 48.4502C49.6322 49.5697 51.09 52.4397 51.7521 53.9969L45.4189 58.6662C44.1636 57.5467 41.9264 55.2507 41.2319 53.7954L36.5671 55.5682" stroke="#222222" stroke-miterlimit="10"/>
</svg>
