<svg width="176" height="49" viewBox="0 0 176 49" fill="none" xmlns="http://www.w3.org/2000/svg">
<g clip-path="url(#clip0_1127_280)">
<path d="M35.028 18.6863L13.1372 24.5559V19.0795L35.028 13.21V18.6863Z" fill="#F37160"/>
<path d="M35.028 29.0857L13.1372 34.9553V29.479L35.028 23.6094V29.0857Z" fill="#007B78"/>
<path d="M24.0754 48.1654C19.3108 48.1654 14.6533 46.7526 10.6917 44.1055C6.73011 41.4585 3.64243 37.6961 1.81911 33.2943C-0.00421063 28.8924 -0.481274 24.0487 0.448246 19.3757C1.37777 14.7027 3.67212 10.4102 7.04117 7.04117C10.4102 3.67212 14.7027 1.37777 19.3757 0.448246C24.0487 -0.481274 28.8924 -0.00421063 33.2943 1.81911C37.6961 3.64243 41.4585 6.73011 44.1055 10.6917C46.7526 14.6533 48.1654 19.3108 48.1654 24.0754C48.1577 30.4621 45.6172 36.585 41.1011 41.1011C36.585 45.6172 30.4621 48.1577 24.0754 48.1654ZM24.0754 4.9228C20.2839 4.9228 16.5775 6.0473 13.4252 8.15406C10.2728 10.2608 7.81615 13.2552 6.36586 16.7584C4.91557 20.2616 4.53685 24.1162 5.2776 27.8347C6.01835 31.5531 7.84529 34.9684 10.5273 37.6483C13.2094 40.3283 16.626 42.1527 20.345 42.8906C24.064 43.6285 27.9184 43.2469 31.4205 41.7939C34.9225 40.341 37.915 37.882 40.0194 34.7281C42.1238 31.5741 43.2454 27.8669 43.2426 24.0754C43.2348 18.9957 41.2125 14.1264 37.6192 10.5358C34.0259 6.94528 29.1551 4.92665 24.0754 4.9228Z" fill="#00B7CE"/>
<path d="M69.5753 32.5521C67.478 34.3436 65.5554 34.3144 62.9046 34.3144H56.4233V13.9238H62.7153C65.1622 13.9238 67.478 13.9238 69.2548 15.9046C70.069 16.8328 70.5009 18.035 70.4637 19.2691C70.4666 20.0927 70.2477 20.902 69.83 21.6119C69.4122 22.3217 68.8111 22.9061 68.0897 23.3035C69.1059 23.5959 69.9926 24.2251 70.604 25.0879C71.2154 25.9508 71.5152 26.9959 71.4541 28.0516C71.4847 28.893 71.3326 29.731 71.0083 30.5079C70.6839 31.2848 70.195 31.9823 69.5753 32.5521ZM63.429 18.4826H61.419V21.6577H63.3998C64.5359 21.6577 65.468 21.3227 65.468 20.0264C65.468 18.7302 64.5068 18.4826 63.429 18.4826ZM64.0844 26.0125H61.4627V29.7411H64.0844C65.3806 29.7411 66.5312 29.2896 66.5312 27.7749C66.5312 26.2601 65.2496 26.0125 64.0844 26.0125Z" fill="#231F20"/>
<path d="M82.2905 34.3144V25.9834C82.2905 24.3376 81.8245 22.7937 79.8437 22.7937C77.8629 22.7937 77.2803 24.09 77.2803 25.8232V34.3144H72.6924V13.9238H77.2803V20.3906C77.7016 19.741 78.2911 19.2178 78.9862 18.8767C79.6812 18.5356 80.4557 18.3893 81.2273 18.4535C82.001 18.4298 82.771 18.5679 83.4883 18.8588C84.2055 19.1497 84.8542 19.5871 85.3928 20.143C86.8493 21.8179 86.8493 23.6385 86.8493 25.7358V34.2853L82.2905 34.3144Z" fill="#231F20"/>
<path d="M100.249 34.3145V32.6542C99.7604 33.3784 99.0903 33.9615 98.3055 34.3449C97.5206 34.7284 96.6488 34.8987 95.7774 34.8389C91.073 34.8389 88.0872 31.1977 88.0872 26.6535C88.03 25.6059 88.1861 24.5575 88.5462 23.5721C88.9062 22.5866 89.4626 21.6845 90.1817 20.9205C90.9008 20.1565 91.7675 19.5464 92.7294 19.1274C93.6913 18.7083 94.7282 18.489 95.7774 18.4827C96.6442 18.434 97.5093 18.6062 98.2913 18.9832C99.0734 19.3603 99.7469 19.9297 100.249 20.6383V19.007H104.866V34.3145H100.249ZM96.3891 22.7647C95.8774 22.7622 95.3706 22.8638 94.8994 23.0633C94.4283 23.2628 94.0026 23.5561 93.6484 23.9254C93.2942 24.2946 93.0188 24.732 92.8389 25.211C92.6591 25.69 92.5786 26.2006 92.6023 26.7117C92.57 27.2337 92.645 27.7567 92.8226 28.2485C93.0001 28.7404 93.2765 29.1906 93.6347 29.5716C93.9929 29.9526 94.4253 30.2562 94.9052 30.4638C95.3852 30.6713 95.9026 30.7784 96.4255 30.7784C96.9484 30.7784 97.4658 30.6713 97.9458 30.4638C98.4257 30.2562 98.8581 29.9526 99.2163 29.5716C99.5745 29.1906 99.8509 28.7404 100.028 28.2485C100.206 27.7567 100.281 27.2337 100.249 26.7117C100.275 26.1939 100.194 25.6762 100.01 25.1912C99.827 24.7062 99.5451 24.2644 99.1826 23.8937C98.82 23.523 98.3847 23.2313 97.9039 23.037C97.4232 22.8427 96.9074 22.75 96.3891 22.7647Z" fill="#231F20"/>
<path d="M111.333 25.9105V34.3143H106.759V19.0068H111.129V20.6381C111.47 19.9304 112.021 19.3444 112.706 18.959C113.39 18.5736 114.177 18.4073 114.959 18.4825V23.0849C112.935 23.1432 111.333 23.5364 111.333 25.9105Z" fill="#231F20"/>
<path d="M127.383 34.3147V32.6544C126.898 33.3785 126.231 33.9618 125.448 34.3454C124.666 34.729 123.796 34.8993 122.926 34.8391C118.207 34.8391 115.221 31.1979 115.221 26.6537C115.164 25.6049 115.321 24.5553 115.682 23.5689C116.043 22.5824 116.6 21.6797 117.321 20.9154C118.042 20.1512 118.91 19.5415 119.874 19.1233C120.837 18.7051 121.876 18.4873 122.926 18.4829C123.791 18.4367 124.653 18.6101 125.432 18.9871C126.211 19.364 126.883 19.9321 127.383 20.6385V19.0072H131.956V34.3147H127.383ZM123.523 22.7649C123.013 22.7644 122.508 22.8674 122.038 23.0678C121.569 23.2682 121.145 23.5618 120.792 23.9308C120.44 24.2999 120.165 24.7366 119.986 25.2146C119.808 25.6927 119.727 26.2021 119.751 26.712C119.751 27.2131 119.85 27.7093 120.042 28.1723C120.233 28.6352 120.514 29.0559 120.869 29.4102C121.223 29.7646 121.644 30.0457 122.107 30.2374C122.57 30.4292 123.066 30.5279 123.567 30.5279C124.068 30.5279 124.564 30.4292 125.027 30.2374C125.49 30.0457 125.911 29.7646 126.265 29.4102C126.62 29.0559 126.901 28.6352 127.093 28.1723C127.284 27.7093 127.383 27.2131 127.383 26.712C127.409 26.1941 127.328 25.6764 127.145 25.1914C126.961 24.7064 126.679 24.2647 126.317 23.8939C125.954 23.5232 125.519 23.2315 125.038 23.0372C124.557 22.8429 124.042 22.7502 123.523 22.7649Z" fill="#231F20"/>
<path d="M140.229 22.4878V34.3143H135.655V22.4878H133.398V19.0068H135.655V13.9092H140.229V19.0068H142.443V22.4878H140.229Z" fill="#231F20"/>
<path d="M157.823 26.2168C156.146 27.5642 154.006 28.1973 151.866 27.9791H149.609V34.373H144.627V13.9824H151.298C153.395 13.9824 155.901 14.0698 157.575 15.4389C158.35 16.1066 158.967 16.9374 159.382 17.8716C159.798 18.8057 160.001 19.8202 159.979 20.8424C159.999 21.8371 159.819 22.8258 159.448 23.7492C159.078 24.6727 158.525 25.5119 157.823 26.2168ZM151.546 18.5412H149.609V23.3038H151.735C153.439 23.3038 154.983 22.9106 154.983 20.8424C154.983 18.7742 153.25 18.4829 151.546 18.4829V18.5412Z" fill="#00B7CE"/>
<path d="M175.898 28.0514H164.421C164.55 28.8951 164.988 29.6607 165.65 30.1991C166.313 30.7375 167.151 31.0103 168.004 30.9644C168.552 30.9725 169.094 30.8436 169.58 30.5892C170.065 30.3349 170.48 29.9632 170.786 29.5079H175.475C174.897 31.0321 173.877 32.3492 172.546 33.2909C171.215 34.2326 169.634 34.7562 168.004 34.7949C166.372 34.8293 164.768 34.3743 163.397 33.4886C162.026 32.6028 160.952 31.3269 160.313 29.8253C159.674 28.3236 159.499 26.665 159.811 25.0631C160.124 23.4613 160.908 21.9896 162.064 20.8377C163.22 19.6858 164.695 18.9066 166.298 18.6003C167.901 18.294 169.559 18.4747 171.058 19.1192C172.558 19.7637 173.83 20.8425 174.71 22.2164C175.591 23.5903 176.04 25.1965 176 26.828C176.003 27.238 175.969 27.6475 175.898 28.0514ZM167.945 22.342C167.152 22.3044 166.371 22.5461 165.738 23.0252C165.104 23.5042 164.659 24.1902 164.479 24.9637H171.426C171.244 24.189 170.796 23.5027 170.16 23.0238C169.524 22.545 168.741 22.3038 167.945 22.342Z" fill="#00B7CE"/>
</g>
<defs>
<clipPath id="clip0_1127_280">
<rect width="176" height="48.1655" fill="white"/>
</clipPath>
</defs>
</svg>
