<svg width="59" height="59" viewBox="0 0 59 59" fill="none" xmlns="http://www.w3.org/2000/svg">
<path d="M1 14.3184V39.4686C1 41.6646 2.78551 43.4599 4.96964 43.4599H39.5753C41.7594 43.4599 43.5449 41.6646 43.5449 39.4686V14.3184H1Z" fill="white" stroke="white" stroke-width="1.5" stroke-linecap="round" stroke-linejoin="round"/>
<path d="M43.5449 8.79062C43.5449 6.59457 41.7594 4.79932 39.5753 4.79932H4.96964C2.78551 4.79932 1 6.59457 1 8.79062V14.3183H43.5449V8.79062Z" fill="#FFAD00" stroke="#FFAD00" stroke-width="1.5" stroke-linejoin="round"/>
<path d="M16.3301 4.79932H28.2141" stroke="#222222" stroke-width="1.5" stroke-linejoin="round"/>
<path d="M26.0802 43.4599H4.96964C2.78551 43.4599 1 41.6646 1 39.4685V8.79062C1 6.59457 2.78551 4.79932 4.96964 4.79932H9.59535" stroke="#222222" stroke-width="1.5" stroke-linejoin="round"/>
<path d="M34.9497 4.79932H39.5754C41.7595 4.79932 43.5451 6.59457 43.5451 8.79062V25.8998" stroke="#222222" stroke-width="1.5" stroke-linejoin="round"/>
<path d="M31.5781 8.59016V1" stroke="#222222" stroke-width="1.5" stroke-linecap="round" stroke-linejoin="round"/>
<path d="M12.9673 1V8.59016" stroke="#222222" stroke-width="1.5" stroke-linecap="round" stroke-linejoin="round"/>
<path d="M4.19727 14.3184H40.3476" stroke="#222222" stroke-width="1.5" stroke-linejoin="round"/>
<path d="M31.5781 25.5825V20.0381H37.0924" stroke="#222222" stroke-width="1.5" stroke-linecap="round" stroke-linejoin="round"/>
<path d="M19.5195 25.5825V20.0381H25.0255" stroke="#222222" stroke-width="1.5" stroke-linecap="round" stroke-linejoin="round"/>
<path d="M7.45264 25.5825V20.0381H12.9669" stroke="#222222" stroke-width="1.5" stroke-linecap="round" stroke-linejoin="round"/>
<path d="M19.5195 37.7316V32.1956H25.0255" stroke="#222222" stroke-width="1.5" stroke-linecap="round" stroke-linejoin="round"/>
<path d="M7.45264 37.7316V32.1956H12.9669" stroke="#222222" stroke-width="1.5" stroke-linecap="round" stroke-linejoin="round"/>
<path d="M57.8122 43.4598C57.8122 51.384 51.4259 57.8051 43.5448 57.8051C35.6636 57.8051 29.2773 51.384 29.2773 43.4598C29.2773 35.5357 35.6636 29.1145 43.5448 29.1145C51.4259 29.1145 57.8122 35.5357 57.8122 43.4598Z" fill="#FFAD00" stroke="#222222" stroke-width="1.5" stroke-linecap="round" stroke-linejoin="round"/>
<path d="M51.0109 43.4598H43.4785V33.3813" stroke="#222222" stroke-width="1.5" stroke-linecap="round" stroke-linejoin="round"/>
</svg>
