<svg width="119" height="38" viewBox="0 0 119 38" fill="none" xmlns="http://www.w3.org/2000/svg">
<mask id="mask0_571_457" style="mask-type:luminance" maskUnits="userSpaceOnUse" x="0" y="0" width="119" height="38">
<path d="M117.603 25.9128C117.455 25.9128 117.158 26.0611 117.158 26.3577C115.974 29.7639 114.345 31.8378 113.01 31.8378C112.269 31.8378 111.974 30.948 111.974 29.6156C111.974 26.2094 114.048 18.9521 115.084 15.6941C115.232 15.2492 115.232 14.9526 115.232 14.6584C115.232 13.7686 114.639 13.1777 113.455 13.1777C112.123 13.1777 110.494 13.7709 109.159 16.2873C108.714 14.0652 107.085 13.0294 105.011 13.0294C102.493 13.0294 100.124 14.6584 98.1989 17.1771C96.2734 19.6959 93.9029 20.5833 92.274 20.1384C93.458 17.0288 94.0512 14.8067 94.0512 13.1777C94.0512 10.5106 92.7188 8.88168 90.645 8.88168C87.3871 8.88168 85.6098 11.9913 85.6098 15.2516C85.6098 17.7703 86.7939 20.2867 89.1643 21.6214C87.0905 26.36 83.9808 30.656 82.9428 30.656C81.4621 30.656 81.0172 23.3987 81.1655 18.0669C81.1655 15.1056 81.4621 14.9573 81.4621 14.0675C81.4621 13.4743 81.1655 13.1777 79.8331 13.1777C76.7235 13.1777 75.6854 15.8447 75.5371 18.9544C75.5371 20.1384 75.2405 21.3248 74.9439 22.3606C73.6115 27.0992 70.9445 30.656 69.1672 30.656C68.2774 30.656 68.1315 29.7662 68.1315 28.7305C68.1315 25.3243 70.057 21.0282 70.057 17.4737C70.057 14.8067 68.873 13.1777 66.6508 13.1777C64.132 13.1777 60.5775 16.2873 57.4679 22.064C58.5037 17.6197 58.9486 13.326 55.8389 13.326C55.0974 13.326 54.5066 13.4743 53.9134 13.7709C53.4685 13.9192 53.1719 14.3641 53.3202 14.8067C53.6168 19.5452 49.4691 31.5435 45.6179 31.5435C44.8764 31.5435 44.5822 30.802 44.5822 29.6179C44.5822 26.2117 46.656 19.1027 47.6918 15.6964C47.8401 15.2516 47.8401 14.955 47.8401 14.5124C47.8401 13.6226 47.2469 13.18 46.0628 13.18C44.7305 13.18 43.1015 13.7732 41.7668 16.2896C41.3219 14.0675 39.693 13.0317 37.6191 13.0317C34.0646 13.0317 30.2135 16.7345 28.5845 21.4731C26.3623 27.843 21.6237 34.0623 15.4022 34.0623C9.77378 34.0623 6.81245 29.3237 6.81245 21.918C6.07096 11.4027 13.9215 2.66242 19.6982 2.66242C22.5112 2.66242 23.8459 4.43968 23.8459 7.10673C23.8459 10.3647 22.0686 11.9936 22.0686 13.18C22.0686 13.6249 22.3652 13.9215 22.9584 13.9215C25.4772 13.9215 28.4385 10.9602 28.4385 6.81245C28.4385 2.66474 25.1806 3.76194e-06 19.4039 3.76194e-06C9.7761 -0.00694772 0 9.62086 0 22.0617C0 31.9861 4.88689 37.9087 13.3306 37.9087C19.1073 37.9087 24.1425 33.4644 26.8095 28.1326C27.1061 32.4287 29.0317 34.7968 32.1413 34.7968C34.8084 34.7968 37.0282 33.1678 38.6572 30.3525C39.2504 33.3138 41.0276 34.6485 43.1015 34.6485C45.6203 34.6485 47.6941 33.0195 49.7657 30.0559C49.7657 32.4263 50.2105 34.5002 52.2844 34.5002C53.1742 34.5002 54.3583 34.3519 54.5066 33.4644C56.5804 24.7264 61.9122 17.6174 63.3929 17.6174C63.8378 17.6174 63.9861 18.0623 63.9861 18.6531C63.9861 21.0236 62.3571 25.9105 62.3571 29.0201C62.3571 32.4263 63.8378 34.6485 66.8014 34.6485C70.0593 34.6485 73.4656 30.6491 75.5394 24.7241C76.2809 30.2042 77.7616 34.6485 80.132 34.6485C82.9451 34.6485 88.1309 28.5752 91.2405 22.2077C92.4246 22.356 94.3501 22.356 95.9791 21.0236C95.2376 22.9492 94.795 25.023 94.795 27.0969C94.795 33.0219 97.6081 34.6508 100.127 34.6508C102.794 34.6508 105.014 33.0219 106.643 30.2065C107.236 32.7253 108.568 34.5025 111.087 34.5025C115.086 34.5025 118.641 30.3548 118.641 27.0969C118.49 26.506 118.045 25.9128 117.603 25.9128ZM34.5095 31.5412C32.8805 31.5412 32.2873 29.9122 32.2873 27.5418C32.2873 23.3941 35.1003 16.285 38.2123 16.285C39.5447 16.285 39.9896 17.914 39.9896 19.8395C39.9896 23.9872 37.3248 31.5412 34.5095 31.5412ZM89.9035 18.9521C88.8677 17.768 88.5711 16.285 88.5711 14.8043C88.5711 13.0271 89.1643 11.6947 89.9035 11.6947C90.645 11.6947 90.9393 12.4362 90.9393 13.472C90.9416 15.1009 90.3484 17.6197 89.9035 18.9521ZM102.495 31.5412C100.866 31.5412 100.273 29.6156 100.273 27.5418C100.273 23.5424 103.086 16.285 106.198 16.285C107.53 16.285 107.975 17.914 107.975 19.8395C107.975 23.9872 105.308 31.5412 102.495 31.5412Z" fill="white"/>
</mask>
<g mask="url(#mask0_571_457)">
<path d="M118.935 -2.08081H-0.444946V39.8343H118.935V-2.08081Z" fill="url(#paint0_linear_571_457)"/>
</g>
<defs>
<linearGradient id="paint0_linear_571_457" x1="25.124" y1="-17.4754" x2="85.31" y2="46.648" gradientUnits="userSpaceOnUse">
<stop stop-color="#00C4CC"/>
<stop offset="0.9122" stop-color="#7A28EB"/>
<stop offset="1" stop-color="#7A28EB"/>
</linearGradient>
</defs>
</svg>
