<svg width="81" height="80" viewBox="0 0 81 80" fill="none" xmlns="http://www.w3.org/2000/svg">
<path d="M80.0013 42.5131H73.1819C69.9722 42.5131 66.903 43.8059 64.6335 46.1066L43.1163 67.9197C40.9873 70.078 37.4642 69.9465 35.5081 67.5252C33.8113 65.4217 34.168 62.2884 36.07 60.3601L35.8647 60.5683C33.8654 62.5951 30.6124 62.5951 28.6131 60.5683C26.6138 58.5415 26.6138 55.2438 28.6131 53.2169C26.6138 55.2438 23.3608 55.2438 21.3615 53.2169C19.3621 51.1901 19.3621 47.8924 21.3615 45.8656L21.4587 45.767C19.4918 47.761 16.2713 47.9143 14.2395 45.9861C12.1105 43.9702 12.0673 40.5849 14.1098 38.5033H14.099L27.6945 24.7318C29.2075 23.198 31.2608 22.3435 33.4007 22.3544L41.7222 22.4092L47.0177 27.7775C50.1626 30.9657 54.8529 31.6559 58.6571 29.8263C60.2782 29.0484 60.6348 26.8792 59.3703 25.5973L46.7908 12.8448C45.2778 11.3109 43.2136 10.4454 41.0738 10.4454H80.0121V42.5241L80.0013 42.5131Z" fill="#FFAD00" stroke="#FFAD00" stroke-width="1.6" stroke-linecap="round" stroke-linejoin="round"/>
<path d="M1.47638 42.5134H8.28491" stroke="#222222" stroke-width="1.6" stroke-linecap="square" stroke-linejoin="round"/>
<path d="M53.3523 10.4348H80.0029" stroke="#222222" stroke-width="1.6" stroke-linecap="square" stroke-linejoin="round"/>
<path d="M51.3201 10.4348H53.3519" stroke="#222222" stroke-width="1.6" stroke-linecap="round" stroke-linejoin="round"/>
<path d="M80.0014 42.5131H73.1821C69.9723 42.5131 66.9031 43.8059 64.6336 46.1066L43.1165 67.9197C40.9875 70.078 37.4643 69.9465 35.5082 67.5252C33.8115 65.4217 34.1681 62.2884 36.0702 60.3601L35.8648 60.5683C33.8655 62.5951 30.6126 62.5951 28.6132 60.5683C26.6139 58.5415 26.6139 55.2438 28.6132 53.2169C26.6139 55.2438 23.3609 55.2438 21.3616 53.2169C19.3623 51.1901 19.3623 47.8924 21.3616 45.8656L21.4589 45.767C19.492 47.761 16.2714 47.9143 14.2397 45.9861C12.1107 43.9702 12.0674 40.5849 14.11 38.5033H14.0992L27.6946 24.7318C29.2076 23.198 31.261 22.3435 33.4008 22.3544L41.7223 22.4092L47.0179 27.7775C50.1628 30.9657 54.8531 31.6559 58.6572 29.8263C60.2783 29.0484 60.6349 26.8792 59.3705 25.5973L46.7909 12.8448C45.2779 11.3109 43.2137 10.4454 41.0739 10.4454H1.47638" stroke="#222222" stroke-width="1.6" stroke-linecap="round" stroke-linejoin="round"/>
<path d="M21.352 45.8442L28.8089 38.2957" stroke="#222222" stroke-width="1.6" stroke-linecap="round" stroke-linejoin="round"/>
<path d="M36.0599 45.6471L28.6137 53.2066" stroke="#222222" stroke-width="1.6" stroke-linecap="round" stroke-linejoin="round"/>
<path d="M43.311 52.998L35.8649 60.5576" stroke="#222222" stroke-width="1.6" stroke-linecap="round" stroke-linejoin="round"/>
<path d="M55.5664 60.3495C57.4685 62.2777 57.8251 65.4111 56.1284 67.5146C54.1723 69.9358 50.6492 70.0673 48.5202 67.909" stroke="#222222" stroke-width="1.6" stroke-linejoin="round"/>
<path d="M63.0244 53.2062C65.0237 55.233 68.2767 55.233 70.276 53.2062C72.2754 51.1794 72.2754 47.8817 70.276 45.8549" stroke="#222222" stroke-width="1.6" stroke-linejoin="round"/>
<path d="M55.7617 60.5578C57.761 62.5846 61.014 62.5846 63.0133 60.5578C65.0126 58.5309 65.0126 55.2332 63.0133 53.2064" stroke="#222222" stroke-width="1.6" stroke-linejoin="round"/>
</svg>
