<svg width="141" height="47" viewBox="0 0 141 47" fill="none" xmlns="http://www.w3.org/2000/svg">
<path d="M20.5684 46.2953C20.3096 46.2953 20.0742 46.2247 19.8389 46.1071L1.2491 35.6356C0.778472 35.3767 0.496094 34.9061 0.496094 34.3649V2.15035C0.496094 1.35029 1.13144 0.691406 1.95504 0.691406H39.1582C39.9583 0.691406 40.6172 1.32675 40.6172 2.15035V34.3649C40.6172 34.8826 40.3113 35.3767 39.8642 35.6356L21.2744 46.1071C21.039 46.2483 20.8273 46.2953 20.5684 46.2953ZM3.43752 33.5413L20.5684 43.1892L37.7228 33.5413V3.60931H3.43752V33.5413Z" fill="#200B4F"/>
<path d="M20.569 31.7301C20.3101 31.7301 20.0748 31.6595 19.8395 31.5419L13.9566 28.2004C13.486 27.9415 13.2036 27.4709 13.2036 26.9297V20.8115H16.1215V26.059L20.569 28.5534L25.7459 25.6355L27.1813 28.1769L21.2984 31.5183C21.0396 31.6595 20.8278 31.7301 20.569 31.7301Z" fill="#200B4F"/>
<path d="M20.5676 39.0251C20.3087 39.0251 20.0734 38.9545 19.8381 38.8368L7.5782 31.9421C7.10757 31.6832 6.8252 31.1891 6.8252 30.6714V14.8818C6.8252 14.0817 7.46054 13.4229 8.28414 13.4229H26.2622V16.3408H9.74309V29.8478L20.5205 35.9189L31.2979 29.8478V23.5178H34.2628V30.6479C34.2628 31.1656 33.9569 31.6597 33.5098 31.9186L21.25 38.8133C21.0382 38.978 20.8264 39.0251 20.5676 39.0251Z" fill="#200B4F"/>
<path d="M34.2637 17.9399H31.3458V9.98626H12.0029V7.06836H32.7812C33.5813 7.06836 34.2401 7.70371 34.2401 8.52731V17.9399H34.2637ZM54.4536 20.9519C54.4536 14.7161 59.0893 9.91566 65.4663 9.91566C69.302 9.91566 72.6905 11.8217 74.5259 14.8337L70.3609 17.2575C69.4196 15.6338 67.5842 14.6455 65.4663 14.6455C61.7248 14.6455 59.3011 17.1633 59.3011 20.9519C59.3011 24.764 61.7248 27.2583 65.4663 27.2583C67.6077 27.2583 69.4667 26.2935 70.3609 24.6463L74.5259 27.0701C72.7376 30.0586 69.3255 31.9646 65.4663 31.9646C59.0893 31.9646 54.4536 27.1877 54.4536 20.9519ZM116.224 27.2348V31.9411H101.917V9.91566H116.224V14.6219H106.952V18.387H115.118V23.1639H106.952V27.1877H116.224V27.2348ZM92.3628 23.8933C94.7865 22.6697 96.4337 20.1754 96.4337 17.4928C96.4337 13.2807 93.0687 9.91566 88.9036 9.91566H80.0794V31.9646H85.1151V24.7405H87.5153L91.6568 31.9646H97.0691L92.3628 23.8933ZM88.8801 20.3166H85.1151V14.6455H88.8801C90.2449 14.6455 91.3745 15.8926 91.3745 17.4928C91.3745 19.0929 90.2449 20.3166 88.8801 20.3166ZM129.778 9.91566H121.683V31.894H129.778C135.825 31.894 140.461 27.1171 140.461 20.8813C140.461 14.6925 135.849 9.91566 129.778 9.91566ZM129.778 27.2348H126.719V14.6455H129.778C133.213 14.6455 135.614 17.1398 135.614 20.9284C135.637 24.6934 133.26 27.2348 129.778 27.2348Z" fill="#200B4F"/>
</svg>
