<svg width="192" height="56" viewBox="0 0 192 56" fill="none" xmlns="http://www.w3.org/2000/svg">
<rect width="192" height="56" fill="white"/>
<path d="M46.0723 50.6039C45.8135 50.6039 45.5782 50.5333 45.3428 50.4157L26.753 39.9442C26.2824 39.6853 26 39.2147 26 38.6735V6.45895C26 5.65888 26.6353 5 27.4589 5H64.6621C65.4622 5 66.1211 5.63535 66.1211 6.45895V38.6735C66.1211 39.1912 65.8152 39.6853 65.3681 39.9442L46.7783 50.4157C46.5429 50.5569 46.3312 50.6039 46.0723 50.6039ZM28.9414 37.8499L46.0723 47.4978L63.2267 37.8499V7.9179H28.9414V37.8499Z" fill="#200B4F"/>
<path d="M46.0729 36.0387C45.814 36.0387 45.5787 35.9681 45.3434 35.8504L39.4605 32.509C38.9899 32.2501 38.7075 31.7795 38.7075 31.2383V25.1201H41.6254V30.3676L46.0729 32.862L51.2498 29.9441L52.6852 32.4855L46.8023 35.8269C46.5435 35.9681 46.3317 36.0387 46.0729 36.0387Z" fill="#200B4F"/>
<path d="M46.0715 43.3337C45.8126 43.3337 45.5773 43.2631 45.342 43.1454L33.0821 36.2507C32.6115 35.9918 32.3291 35.4977 32.3291 34.98V19.1904C32.3291 18.3903 32.9644 17.7314 33.788 17.7314H51.7661V20.6493H35.247V34.1564L46.0244 40.2275L56.8018 34.1564V27.8264H59.7668V34.9565C59.7668 35.4741 59.4608 35.9683 59.0137 36.2272L46.7539 43.1219C46.5421 43.2866 46.3303 43.3337 46.0715 43.3337Z" fill="#200B4F"/>
<path d="M59.7676 22.2485H56.8497V14.2948H37.5068V11.377H58.2851C59.0852 11.377 59.744 12.0123 59.744 12.8359V22.2485H59.7676ZM79.9575 25.2605C79.9575 19.0247 84.5932 14.2243 90.9702 14.2243C94.8059 14.2243 98.1944 16.1303 100.03 19.1423L95.8648 21.5661C94.9235 19.9424 93.0881 18.9541 90.9702 18.9541C87.2287 18.9541 84.805 21.4719 84.805 25.2605C84.805 29.0726 87.2287 31.5669 90.9702 31.5669C93.1116 31.5669 94.9706 30.6021 95.8648 28.9549L100.03 31.3787C98.2415 34.3672 94.8294 36.2732 90.9702 36.2732C84.5932 36.2732 79.9575 31.4963 79.9575 25.2605ZM141.728 31.5434V36.2497H127.42V14.2243H141.728V18.9305H132.456V22.6956H140.622V27.4725H132.456V31.4963H141.728V31.5434ZM117.867 28.2019C120.29 26.9783 121.938 24.484 121.938 21.8014C121.938 17.5893 118.573 14.2243 114.408 14.2243H105.583V36.2732H110.619V29.0491H113.019L117.161 36.2732H122.573L117.867 28.2019ZM114.384 24.6252H110.619V18.9541H114.384C115.749 18.9541 116.878 20.2012 116.878 21.8014C116.878 23.4015 115.749 24.6252 114.384 24.6252ZM155.282 14.2243H147.187V36.2026H155.282C161.329 36.2026 165.965 31.4257 165.965 25.1899C165.965 19.0011 161.353 14.2243 155.282 14.2243ZM155.282 31.5434H152.223V18.9541H155.282C158.717 18.9541 161.117 21.4484 161.117 25.237C161.141 29.002 158.764 31.5434 155.282 31.5434Z" fill="#200B4F"/>
</svg>
