<svg width="45" height="45" viewBox="0 0 45 45" fill="none" xmlns="http://www.w3.org/2000/svg">
<path d="M22.4652 35.832C31.806 35.832 39.8911 30.4043 43.937 22.4719C39.8978 14.5329 31.806 9.11182 22.4652 9.11182C13.1244 9.11182 5.03926 14.5329 1 22.4719C5.03926 30.4109 13.1311 35.832 22.4652 35.832Z" stroke="#222222" stroke-width="1.5" stroke-linecap="round" stroke-linejoin="round"/>
<path d="M30.6567 22.4719C30.6567 26.9895 26.9895 30.6567 22.4719 30.6567C17.9543 30.6567 14.2871 26.9895 14.2871 22.4719C14.2871 17.9543 17.9543 14.2871 22.4719 14.2871C26.9895 14.2871 30.6567 17.9543 30.6567 22.4719Z" fill="#FFAD00" stroke="#222222" stroke-width="1.5" stroke-linecap="round" stroke-linejoin="round"/>
<path d="M22.4653 14.2803C21.7411 14.2803 21.0369 14.3866 20.3659 14.5593C20.1866 15.2303 20.0869 15.9279 20.0869 16.6587C20.0869 21.1762 23.7541 24.8435 28.2717 24.8435C28.9959 24.8435 29.7001 24.7372 30.3711 24.5644C30.5504 23.8934 30.6501 23.1959 30.6501 22.4651C30.6501 17.9408 26.9829 14.2803 22.4653 14.2803Z" fill="white" stroke="#222222" stroke-width="1.5" stroke-linecap="round" stroke-linejoin="round"/>
<path d="M1 5.99585L6.74664 10.4071" stroke="#222222" stroke-width="1.5" stroke-linecap="round" stroke-linejoin="round"/>
<path d="M14.6528 1L16.513 6.10222" stroke="#222222" stroke-width="1.5" stroke-linecap="round" stroke-linejoin="round"/>
<path d="M30.2252 1.16602L28.4248 6.10215" stroke="#222222" stroke-width="1.5" stroke-linecap="round" stroke-linejoin="round"/>
<path d="M43.9371 5.99585L38.1904 10.4071" stroke="#222222" stroke-width="1.5" stroke-linecap="round" stroke-linejoin="round"/>
<path d="M1 38.9411L6.74664 34.5298" stroke="#222222" stroke-width="1.5" stroke-linecap="round" stroke-linejoin="round"/>
<path d="M14.6528 43.9369L16.513 38.8347" stroke="#222222" stroke-width="1.5" stroke-linecap="round" stroke-linejoin="round"/>
<path d="M30.285 43.9369L28.4248 38.8347" stroke="#222222" stroke-width="1.5" stroke-linecap="round" stroke-linejoin="round"/>
<path d="M43.9371 38.9411L38.1904 34.5298" stroke="#222222" stroke-width="1.5" stroke-linecap="round" stroke-linejoin="round"/>
</svg>
