<svg width="82" height="80" viewBox="0 0 82 80" fill="none" xmlns="http://www.w3.org/2000/svg">
<path d="M42.1479 58.4605C39.0178 58.4605 36.467 55.9097 36.467 52.7797C36.467 49.6497 39.0178 47.0989 42.1479 47.0989C45.2779 47.0989 47.8287 49.6497 47.8287 52.7797C47.8287 55.9097 45.2779 58.4605 42.1479 58.4605Z" stroke="#222222" stroke-width="1.6" stroke-linecap="round" stroke-linejoin="round"/>
<path d="M51.7492 64.1301H34.6176C31.6213 64.1301 29.1819 66.5584 29.1819 69.5659V76.3383" stroke="#222222" stroke-width="1.6" stroke-miterlimit="10"/>
<path d="M68.0565 58.4605C64.9265 58.4605 62.3757 55.9097 62.3757 52.7797C62.3757 49.6497 64.9265 47.0989 68.0565 47.0989C71.1865 47.0989 73.7373 49.6497 73.7373 52.7797C73.7373 55.9097 71.1865 58.4605 68.0565 58.4605Z" stroke="#222222" stroke-width="1.6" stroke-linecap="round" stroke-linejoin="round"/>
<path d="M81.0004 76.3383V69.5659C81.0004 66.5695 78.5721 64.1301 75.5646 64.1301H60.5161C57.5197 64.1301 55.0803 66.5584 55.0803 69.5659V76.3383" stroke="#222222" stroke-width="1.6" stroke-miterlimit="10" stroke-linecap="square"/>
<path d="M14.478 15.7095C11.348 15.7095 8.79721 13.1587 8.79721 10.0287C8.79721 6.89869 11.348 4.3479 14.478 4.3479C17.608 4.3479 20.1588 6.89869 20.1588 10.0287C20.1588 13.1587 17.608 15.7095 14.478 15.7095Z" fill="#FFAD00" stroke="#222222" stroke-width="1.6" stroke-linecap="round" stroke-linejoin="round"/>
<path d="M20.1031 76.3384L24.5141 28.2854H41.0775C42.8375 28.2854 44.4749 27.0824 44.7534 25.3448C45.1098 23.1282 43.4167 21.2123 41.2669 21.2123H6.90358C3.65104 21.2123 1 23.8522 1 27.1159V43.0333C1 45.9405 3.36143 48.3019 6.26867 48.3019L8.84174 76.3384H20.092H20.1031Z" fill="#FFAD00" stroke="#FFAD00" stroke-width="1.6" stroke-linecap="round" stroke-linejoin="round"/>
<path d="M20.1031 76.3384L24.5141 28.2854H41.0775C42.8375 28.2854 44.4749 27.0824 44.7534 25.3448C45.1098 23.1282 43.4167 21.2123 41.2669 21.2123H6.90358C3.65104 21.2123 1 23.8522 1 27.1159V43.0333C1 45.9405 3.36143 48.3019 6.26867 48.3019L8.84174 76.3384" stroke="#222222" stroke-width="1.6" stroke-linecap="round" stroke-linejoin="round"/>
<path d="M1 76.338H8.84174" stroke="#222222" stroke-width="1.6" stroke-linecap="round" stroke-linejoin="round"/>
<path d="M20.1033 76.338H29.1814" stroke="#222222" stroke-width="1.6" stroke-linecap="round" stroke-linejoin="round"/>
</svg>
