<svg width="182" height="31" viewBox="0 0 182 31" fill="none" xmlns="http://www.w3.org/2000/svg">
<g clip-path="url(#clip0_569_348)">
<path d="M23.2645 10.9743H12.2657V14.2288H20.066C19.6807 18.7926 15.873 20.7388 12.2788 20.7388C7.68044 20.7388 3.66789 17.131 3.66789 12.0742C3.66789 7.14817 7.4929 3.35439 12.289 3.35439C15.9892 3.35439 18.1696 5.70657 18.1696 5.70657L20.4548 3.34682C20.4548 3.34682 17.5217 0.0906982 12.1722 0.0906982C5.36091 0.0906982 0.0910645 5.82375 0.0910645 12.0162C0.0910645 18.0841 5.0483 24.0012 12.3462 24.0012C18.765 24.0012 23.4637 19.6164 23.4637 13.1328C23.4637 11.7649 23.2645 10.9743 23.2645 10.9743Z" fill="#4885ED"/>
<path d="M32.2746 8.61755C27.7615 8.61755 24.5272 12.1359 24.5272 16.2393C24.5272 20.4034 27.6643 23.9871 32.3276 23.9871C36.5492 23.9871 40.0076 20.7696 40.0076 16.3288C40.0076 11.2389 35.9846 8.61755 32.2746 8.61755ZM32.3195 11.6361C34.5389 11.6361 36.6419 13.4253 36.6419 16.3084C36.6419 19.1304 34.5477 20.9706 32.3093 20.9706C29.8497 20.9706 27.9093 19.0063 27.9093 16.2861C27.9093 13.6242 29.8256 11.6361 32.3195 11.6361Z" fill="#DB3236"/>
<path d="M49.1246 8.61755C44.6115 8.61755 41.3772 12.1359 41.3772 16.2393C41.3772 20.4034 44.5143 23.9871 49.1776 23.9871C53.3991 23.9871 56.8576 20.7696 56.8576 16.3288C56.8576 11.2389 52.8346 8.61755 49.1246 8.61755ZM49.1694 11.6361C51.3888 11.6361 53.4919 13.4253 53.4919 16.3084C53.4919 19.1304 51.3977 20.9706 49.1592 20.9706C46.6996 20.9706 44.7593 19.0063 44.7593 16.2861C44.7593 13.6242 46.6756 11.6361 49.1694 11.6361Z" fill="#F4C20D"/>
<path d="M65.6505 8.62573C61.508 8.62573 58.252 12.2437 58.252 16.3044C58.252 20.93 62.0269 23.9974 65.5791 23.9974C67.7755 23.9974 68.9435 23.128 69.8057 22.1301V23.6455C69.8057 26.2968 68.1913 27.8845 65.7545 27.8845C63.4005 27.8845 62.2198 26.1391 61.8095 25.1487L58.8476 26.3834C59.8984 28.5988 62.0135 30.9092 65.779 30.9092C69.8976 30.9092 73.0368 28.3223 73.0368 22.8969V9.08748H69.8057V10.3893C68.8129 9.32179 67.4543 8.62573 65.6505 8.62573ZM65.9503 11.6382C67.9813 11.6382 70.0668 13.3675 70.0668 16.3207C70.0668 19.3224 67.9858 20.9768 65.9055 20.9768C63.697 20.9768 61.6422 19.1886 61.6422 16.3492C61.6422 13.3988 63.7763 11.6382 65.9503 11.6382Z" fill="#4885ED"/>
<path d="M87.4035 8.60742C83.496 8.60742 80.2151 11.7075 80.2151 16.282C80.2151 21.1225 83.8721 23.9933 87.7788 23.9933C91.0395 23.9933 93.0407 22.2145 94.235 20.6207L91.5709 18.8531C90.8796 19.923 89.7239 20.9686 87.7951 20.9686C85.6286 20.9686 84.6325 19.7856 84.0153 18.6396L94.3492 14.3639L93.8127 13.1109C92.814 10.657 90.4851 8.60742 87.4035 8.60742ZM87.5381 11.5629C88.9462 11.5629 89.9595 12.3094 90.3899 13.2045L83.489 16.0807C83.1915 13.8539 85.3071 11.5629 87.5381 11.5629Z" fill="#DB3236"/>
<path d="M75.2888 23.5368H78.6831V0.885132H75.2888V23.5368Z" fill="#3CBA54"/>
<path d="M160.556 23.8672C158.764 23.8672 157.217 23.1619 155.916 21.7512C154.615 20.3404 153.964 18.5912 153.964 16.5034C153.964 14.4156 154.615 12.6662 155.916 11.2552C157.217 9.84423 158.764 9.13874 160.556 9.13872C161.612 9.13874 162.56 9.36448 163.4 9.81595C164.239 10.2675 164.867 10.8319 165.282 11.5092H165.395L165.282 9.59078V3.21375H167.884V23.416H165.395V21.4976H165.282C164.867 22.1744 164.239 22.7385 163.4 23.19C162.56 23.6415 161.612 23.8672 160.556 23.8672ZM160.981 21.4976C162.207 21.4976 163.249 21.0461 164.107 20.1431C164.966 19.2401 165.395 18.0269 165.395 16.5034C165.395 14.9799 164.966 13.7667 164.107 12.8637C163.249 11.9607 162.207 11.5092 160.981 11.5092C159.773 11.5092 158.736 11.9653 157.868 12.8775C157 13.7896 156.566 14.9981 156.566 16.503C156.566 18.0078 157 19.2165 157.868 20.1289C158.736 21.0413 159.773 21.4976 160.981 21.4976Z" fill="#767676"/>
<path d="M108.575 23.416H105.972V5.69705H100.312V3.21375H114.234V5.69705H108.575V23.416Z" fill="#767676"/>
<path d="M117.43 23.4161H114.827V9.59085H117.317V11.8477H117.43C117.694 11.0951 118.236 10.4743 119.057 9.98521C119.877 9.49614 120.675 9.2516 121.448 9.25159C122.221 9.2516 122.872 9.36469 123.401 9.59085L122.41 12.0173C122.071 11.8853 121.608 11.8193 121.024 11.8193C120.081 11.8193 119.246 12.1908 118.52 12.9339C117.794 13.677 117.43 14.6505 117.43 15.8542V23.4161Z" fill="#767676"/>
<path d="M130.395 23.8672C128.301 23.8672 126.598 23.1713 125.287 21.7795C123.977 20.3878 123.321 18.629 123.321 16.5033C123.321 14.4908 123.958 12.7602 125.231 11.3116C126.504 9.86298 128.131 9.13869 130.112 9.13867C132.168 9.13869 133.814 9.80644 135.049 11.1419C136.285 12.4775 136.902 14.2646 136.902 16.5033L136.874 16.983H125.924C125.999 18.375 126.466 19.4755 127.324 20.2843C128.183 21.0931 129.187 21.4975 130.338 21.4975C132.205 21.4975 133.469 20.7073 134.13 19.127L136.45 20.0862C135.997 21.1585 135.252 22.0568 134.214 22.7809C133.177 23.5051 131.904 23.8672 130.395 23.8672ZM134.13 14.8389C134.073 14.0485 133.71 13.2959 133.04 12.5812C132.37 11.8665 131.375 11.5092 130.055 11.5092C129.093 11.5092 128.258 11.8101 127.551 12.412C126.844 13.0139 126.358 13.8229 126.094 14.8389H134.13Z" fill="#767676"/>
<path d="M141.951 9.59073V11.5092H142.064C142.441 10.8508 143.035 10.2911 143.847 9.83011C144.658 9.36916 145.525 9.13869 146.45 9.13867C148.167 9.13869 149.478 9.66537 150.383 10.7187C151.288 11.7721 151.741 13.1831 151.741 14.9517V23.416H149.138V15.3461C149.138 12.7882 147.997 11.5092 145.714 11.5092C144.639 11.5092 143.762 11.9371 143.083 12.793C142.404 13.6489 142.064 14.6412 142.064 15.7697V23.416H139.461V9.59073H141.951Z" fill="#767676"/>
<path d="M176.448 23.8672C174.901 23.8672 173.623 23.491 172.614 22.7387C171.605 21.9865 170.864 21.046 170.392 19.9175L172.713 18.9582C173.448 20.6884 174.703 21.5535 176.477 21.5535C177.288 21.5535 177.953 21.3748 178.471 21.0175C178.99 20.6601 179.249 20.1899 179.249 19.6066C179.249 18.7037 178.617 18.0923 177.353 17.7726L174.552 17.0958C173.665 16.8702 172.826 16.4422 172.034 15.8119C171.242 15.1816 170.846 14.3306 170.846 13.2589C170.846 12.0362 171.388 11.0438 172.473 10.2817C173.557 9.51971 174.845 9.13869 176.335 9.13867C177.561 9.13869 178.655 9.41623 179.617 9.97132C180.579 10.5264 181.268 11.3212 181.683 12.3556L179.419 13.2864C178.91 12.0637 177.853 11.4524 176.25 11.4523C175.476 11.4524 174.826 11.6122 174.298 11.932C173.769 12.2517 173.505 12.6845 173.505 13.2304C173.505 14.0203 174.118 14.5565 175.345 14.8389L178.089 15.4873C179.39 15.7881 180.352 16.3053 180.975 17.0389C181.598 17.7726 181.909 18.6003 181.909 19.5222C181.909 20.7639 181.4 21.7985 180.381 22.6259C179.362 23.4534 178.051 23.8672 176.448 23.8672Z" fill="#767676"/>
</g>
<defs>
<clipPath id="clip0_569_348">
<rect width="182" height="31" fill="white"/>
</clipPath>
</defs>
</svg>
