<svg width="130" height="44" viewBox="0 0 130 44" fill="none" xmlns="http://www.w3.org/2000/svg">
<g clip-path="url(#clip0_569_364)">
<path d="M76.4174 11.9586C76.4174 15.2173 73.8252 17.6186 70.644 17.6186C67.4628 17.6186 64.8706 15.2173 64.8706 11.9586C64.8706 8.67691 67.4628 6.29858 70.644 6.29858C73.8252 6.29858 76.4174 8.67691 76.4174 11.9586ZM73.8901 11.9586C73.8901 9.92221 72.3877 8.5289 70.644 8.5289C68.9003 8.5289 67.3979 9.92221 67.3979 11.9586C67.3979 13.9746 68.9003 15.3883 70.644 15.3883C72.3877 15.3883 73.8901 13.972 73.8901 11.9586Z" fill="#EA4335"/>
<path d="M88.8723 11.9586C88.8723 15.2173 86.2802 17.6186 83.099 17.6186C79.9177 17.6186 77.3256 15.2173 77.3256 11.9586C77.3256 8.67946 79.9177 6.29858 83.099 6.29858C86.2802 6.29858 88.8723 8.67691 88.8723 11.9586ZM86.345 11.9586C86.345 9.92221 84.8426 8.5289 83.099 8.5289C81.3553 8.5289 79.8529 9.92221 79.8529 11.9586C79.8529 13.9746 81.3553 15.3883 83.099 15.3883C84.8426 15.3883 86.345 13.972 86.345 11.9586Z" fill="#FBBC05"/>
<path d="M100.808 6.64053V16.802C100.808 20.9819 98.3017 22.6891 95.3385 22.6891C92.5491 22.6891 90.8703 20.8543 90.2371 19.3539L92.4375 18.453C92.8293 19.3743 93.7894 20.4614 95.3359 20.4614C97.2327 20.4614 98.4081 19.3105 98.4081 17.1439V16.3299H98.3199C97.7542 17.0164 96.6644 17.616 95.2892 17.616C92.4116 17.616 89.7753 15.151 89.7753 11.979C89.7753 8.78409 92.4116 6.29858 95.2892 6.29858C96.6618 6.29858 97.7516 6.89827 98.3199 7.5643H98.4081V6.64308H100.808V6.64053ZM98.5871 11.979C98.5871 9.98601 97.2353 8.5289 95.5149 8.5289C93.7712 8.5289 92.3104 9.98601 92.3104 11.979C92.3104 13.9516 93.7712 15.3883 95.5149 15.3883C97.2353 15.3883 98.5871 13.9516 98.5871 11.979Z" fill="#4285F4"/>
<path d="M104.765 0.68457V17.2716H102.3V0.68457H104.765Z" fill="#34A853"/>
<path d="M114.371 13.8214L116.333 15.1076C115.7 16.0288 114.174 17.616 111.538 17.616C108.268 17.616 105.827 15.1305 105.827 11.956C105.827 8.59013 108.289 6.29602 111.255 6.29602C114.242 6.29602 115.702 8.63352 116.18 9.89668L116.442 10.5397L108.748 13.6734C109.337 14.809 110.253 15.3883 111.538 15.3883C112.825 15.3883 113.717 14.7656 114.371 13.8214ZM108.333 11.7851L113.476 9.68488C113.193 8.97802 112.342 8.48551 111.341 8.48551C110.056 8.48551 108.268 9.60067 108.333 11.7851Z" fill="#EA4335"/>
<path d="M55.5398 10.4862V8.08493H63.7678C63.8483 8.50343 63.8898 8.99849 63.8898 9.53438C63.8898 11.336 63.389 13.5637 61.775 15.151C60.2052 16.7587 58.1994 17.6161 55.5424 17.6161C50.6175 17.6161 46.4762 13.6709 46.4762 8.82751C46.4762 3.9841 50.6175 0.0389404 55.5424 0.0389404C58.2669 0.0389404 60.2078 1.0903 61.666 2.46065L59.9431 4.15508C58.8974 3.19048 57.4807 2.44023 55.5398 2.44023C51.9434 2.44023 49.1307 5.29065 49.1307 8.82751C49.1307 12.3644 51.9434 15.2148 55.5398 15.2148C57.8725 15.2148 59.201 14.2936 60.0521 13.4566C60.7423 12.7778 61.1964 11.8081 61.3754 10.4837L55.5398 10.4862Z" fill="#4285F4"/>
<path d="M53.2289 26.5364L50.695 33.4294H55.8649L53.3106 26.5364H53.2289ZM48.5085 39.398H46.3016L52.1458 24.1249H54.4141L60.2583 39.398H58.0514L56.5597 35.2582H50.0207L48.5085 39.398Z" fill="#747474"/>
<path d="M61.2643 28.948H63.1851V30.3949H63.2668C63.5631 29.8875 64.028 29.4654 64.6564 29.1288C65.2949 28.7822 65.9488 28.6063 66.6181 28.6063C67.9259 28.6063 68.9271 28.9781 69.6219 29.7116C70.3269 30.4351 70.6845 31.4751 70.6845 32.8265V39.398H68.6819V32.9672C68.6411 31.254 67.7675 30.3949 66.0663 30.3949C65.2745 30.3949 64.6053 30.7164 64.0638 31.3595C63.5325 31.9925 63.2668 32.7411 63.2668 33.6103V39.398H61.2643V28.948Z" fill="#747474"/>
<path d="M74.3804 36.2027C74.3804 36.7151 74.595 37.1422 75.0343 37.4888C75.4685 37.8255 75.9845 37.9913 76.5873 37.9913C77.4149 37.9913 78.1607 37.6898 78.8146 37.0869C79.4787 36.474 79.8159 35.7505 79.8159 34.9165C79.1876 34.4342 78.314 34.1931 77.2003 34.1931C76.3932 34.1931 75.7188 34.389 75.1773 34.7759C74.646 35.1527 74.3804 35.6299 74.3804 36.2027ZM76.9551 28.6063C78.4264 28.6063 79.5809 28.9982 80.4289 29.7719C81.2872 30.5506 81.7163 31.6157 81.7163 32.9672V39.398H79.8159V37.9511H79.7342C78.9015 39.1468 77.798 39.7396 76.4238 39.7396C75.2488 39.7396 74.268 39.398 73.4813 38.7147C72.7048 38.0314 72.3165 37.1824 72.3165 36.1625C72.3165 35.0773 72.7303 34.2232 73.563 33.5902C74.3906 32.9471 75.5043 32.6256 76.8938 32.6256C78.079 32.6256 79.0496 32.8366 79.8159 33.2485V32.8064C79.8159 32.1232 79.5349 31.5504 78.9781 31.0782C78.4315 30.5958 77.7929 30.3547 77.0573 30.3547C75.9385 30.3547 75.0598 30.8169 74.4213 31.7413L72.6639 30.6561C73.6294 29.2896 75.0598 28.6063 76.9551 28.6063Z" fill="#747474"/>
<path d="M85.8943 24.1249V39.398H83.8917V24.1249H85.8943Z" fill="#747474"/>
<path d="M97.6667 28.948L91.0051 44.0001H88.9617L91.4343 38.7348L87.0409 28.948H89.2069L92.3742 36.464H92.4151L95.5007 28.948H97.6667Z" fill="#747474"/>
<path d="M103.152 39.5588C102.294 39.5588 101.578 39.2975 101.006 38.775C100.434 38.2525 100.138 37.524 100.128 36.5845V30.7365H98.2477V28.948H100.128V25.7527H102.11V28.948H104.725V30.7365H102.11V35.9415C102.11 36.6398 102.243 37.1171 102.518 37.3683C102.805 37.6094 103.116 37.73 103.458 37.73C103.622 37.73 103.775 37.72 103.928 37.6898C104.077 37.6496 104.22 37.6044 104.358 37.5492L104.971 39.2975C104.449 39.4683 103.847 39.5588 103.152 39.5588Z" fill="#747474"/>
<path d="M109.093 25.3507C109.093 25.7276 108.95 26.0541 108.664 26.3355C108.388 26.6068 108.061 26.7374 107.683 26.7374C107.284 26.7374 106.952 26.6068 106.682 26.3355C106.406 26.0541 106.273 25.7276 106.273 25.3507C106.273 24.9639 106.406 24.6373 106.682 24.366C106.952 24.0998 107.284 23.9641 107.683 23.9641C108.061 23.9641 108.388 24.0998 108.664 24.366C108.95 24.6373 109.093 24.9639 109.093 25.3507ZM108.684 28.948V39.398H106.682V28.948H108.684Z" fill="#747474"/>
<path d="M115.411 39.7396C113.827 39.7396 112.519 39.2121 111.488 38.152C110.466 37.0819 109.955 35.7555 109.955 34.173C109.955 32.5653 110.466 31.2389 111.488 30.1939C112.519 29.1389 113.827 28.6063 115.411 28.6063C116.499 28.6063 117.444 28.8776 118.251 29.4102C119.053 29.9477 119.661 30.6863 120.07 31.6208L118.251 32.3643C117.689 31.053 116.703 30.3949 115.288 30.3949C114.374 30.3949 113.582 30.7566 112.918 31.4801C112.264 32.2035 111.937 33.1028 111.937 34.173C111.937 35.2481 112.264 36.1424 112.918 36.8659C113.582 37.5893 114.374 37.9511 115.288 37.9511C116.744 37.9511 117.766 37.2979 118.353 35.9816L120.131 36.7252C119.748 37.6647 119.14 38.4032 118.313 38.9358C117.48 39.4683 116.514 39.7396 115.411 39.7396Z" fill="#747474"/>
<path d="M130 36.5041C130 37.4185 129.591 38.1872 128.774 38.8152C127.967 39.4281 126.955 39.7396 125.729 39.7396C124.667 39.7396 123.727 39.4633 122.909 38.9157C122.102 38.3681 121.525 37.6446 121.172 36.7453L122.95 36.0017C123.221 36.6348 123.604 37.1221 124.094 37.4687C124.595 37.8204 125.142 37.9913 125.729 37.9913C126.368 37.9913 126.899 37.8606 127.323 37.5893C127.757 37.3231 127.977 37.0015 127.977 36.6247C127.977 35.9565 127.451 35.4692 126.404 35.1577L124.585 34.7156C122.511 34.1931 121.479 33.2084 121.479 31.7614C121.479 30.8119 121.872 30.0482 122.664 29.4705C123.451 28.8977 124.462 28.6063 125.688 28.6063C126.628 28.6063 127.476 28.8274 128.243 29.2695C129.004 29.7116 129.535 30.3045 129.837 31.038L128.059 31.7614C127.854 31.3193 127.517 30.9777 127.057 30.7365C126.608 30.4853 126.102 30.3547 125.545 30.3547C125.024 30.3547 124.554 30.4853 124.135 30.7365C123.727 30.9927 123.522 31.3093 123.522 31.681C123.522 32.2739 124.094 32.7009 125.239 32.9672L126.833 33.3691C128.943 33.8816 130 34.9266 130 36.5041Z" fill="#747474"/>
<path d="M27.4291 5.14982V37.5202C27.4291 41.145 29.9694 43.1604 32.6655 43.1604C35.1591 43.1604 37.902 41.4438 37.902 37.5202V5.39505C37.902 2.07679 35.4085 0 32.6655 0C29.9226 0 27.4291 2.29136 27.4291 5.14982Z" fill="#F8AB00"/>
<path d="M13.7145 21.5802V37.5202C13.7145 41.145 16.2548 43.1605 18.9509 43.1605C21.4445 43.1605 24.1874 41.4438 24.1874 37.5202V21.8255C24.1874 18.5072 21.6939 16.4304 18.9509 16.4304C16.208 16.4304 13.7145 18.7218 13.7145 21.5802Z" fill="#E37300"/>
<path d="M10.4729 38.0107C10.4729 40.8538 8.12743 43.1605 5.23646 43.1605C2.3455 43.1605 0 40.8538 0 38.0107C0 35.1675 2.3455 32.8608 5.23646 32.8608C8.12743 32.8608 10.4729 35.1675 10.4729 38.0107Z" fill="#E37300"/>
</g>
<defs>
<clipPath id="clip0_569_364">
<rect width="130" height="44" fill="white"/>
</clipPath>
</defs>
</svg>
