<svg width="211" height="50" viewBox="0 0 211 50" fill="none" xmlns="http://www.w3.org/2000/svg">
<mask id="mask0_571_568" style="mask-type:luminance" maskUnits="userSpaceOnUse" x="0" y="0" width="211" height="50">
<path d="M211 0H0V49.148H211V0Z" fill="white"/>
</mask>
<g mask="url(#mask0_571_568)">
<path d="M38.7429 30.3383C37.9018 30.6309 36.0368 31.0697 33.989 30.0092C33.8793 29.9726 33.7696 30.0824 33.8793 30.1555C34.5375 30.8503 35.7077 32.0936 36.4025 32.6787C36.5488 32.7884 36.7682 32.7884 36.9145 32.6421L38.8892 30.4846C38.9258 30.448 38.8526 30.3018 38.7429 30.3383Z" fill="white"/>
<path d="M46.4062 21.3341C45.3457 19.0668 43.7733 16.9458 41.3963 16.6533C40.9575 16.6167 40.5187 16.6899 40.153 16.9093L37.5566 18.4452C36.8984 18.8108 36.0939 18.7743 35.5088 18.2989L33.2415 16.5436C32.4736 15.9585 31.6325 15.5197 30.6817 15.3003C26.8055 14.3861 24.2091 16.4339 22.1979 20.237C20.2963 23.8573 21.3568 29.0866 26.0376 30.3299C30.9743 31.6464 34.2289 26.1611 35.5088 24.3692C35.7648 24.0036 36.2767 24.0036 36.5327 24.3692C38.544 27.1119 41.25 30.0374 44.1755 29.4523C48.0152 28.7209 47.5764 23.8939 46.4062 21.3341ZM32.1445 24.223C31.1937 24.8446 29.9869 24.6984 29.2556 23.6379C28.5242 22.5774 28.8533 21.3706 29.8041 20.749C30.7549 20.1273 31.9616 20.2736 32.693 21.3341C33.4244 22.3945 33.0953 23.5647 32.1445 24.223ZM42.2374 24.4058C41.2866 25.0275 40.0798 24.8812 39.3485 23.8207C38.6171 22.7602 38.9462 21.5535 39.897 20.9318C40.8478 20.3101 42.0545 20.4564 42.7859 21.5169C43.4807 22.5774 43.1516 23.7841 42.2374 24.4058Z" fill="white"/>
<path d="M36.5074 25.7987C36.3246 25.5793 35.9589 25.5793 35.7761 25.7987L33.7282 28.2488C33.6185 28.3585 33.6551 28.5413 33.7648 28.6145C34.2402 28.9436 35.4104 29.7115 36.544 29.7115C37.6045 29.7115 38.5553 29.3093 39.0307 29.0533C39.1769 28.9802 39.2135 28.7608 39.1038 28.6511L36.5074 25.7987Z" fill="white"/>
<path d="M59.9869 32.7269V16.3442H63.6072V23.4751H75.6748V16.3442H79.2951V32.7269H75.6748V26.5468H63.6072V32.7269H59.9869Z" fill="#FF4C46"/>
<path d="M89.5898 33.1626C87.1763 33.1626 85.2381 32.5409 83.7754 31.2976C82.3127 30.0542 81.5813 28.4086 81.5813 26.3608C81.5813 24.313 82.3127 22.6674 83.7754 21.4241C85.2381 20.1807 87.1763 19.5591 89.5898 19.5591C92.0033 19.5591 93.9414 20.1807 95.4407 21.4241C96.9035 22.6674 97.6348 24.313 97.6348 26.3608C97.6348 28.4086 96.9035 30.0542 95.4407 31.2976C93.9414 32.5409 92.0033 33.1626 89.5898 33.1626ZM89.5898 30.3468C90.9794 30.3468 92.113 29.9811 92.9541 29.2497C93.7952 28.5184 94.234 27.5676 94.234 26.3608C94.234 25.1541 93.7952 24.1667 92.9541 23.4353C92.113 22.704 90.9794 22.3383 89.5898 22.3383C88.2002 22.3383 87.1031 22.704 86.2255 23.4353C85.3844 24.1667 84.9456 25.1541 84.9456 26.3242C84.9456 27.531 85.3844 28.4818 86.2255 29.2132C87.0666 29.9811 88.2002 30.3468 89.5898 30.3468Z" fill="#FF4C46"/>
<path d="M107.23 33.1626C104.816 33.1626 102.878 32.5409 101.415 31.2976C99.9526 30.0542 99.2212 28.4086 99.2212 26.3608C99.2212 24.313 99.9526 22.6674 101.415 21.4241C102.878 20.1807 104.816 19.5591 107.23 19.5591C109.643 19.5591 111.581 20.1807 113.081 21.4241C114.543 22.6674 115.275 24.313 115.275 26.3608C115.275 28.4086 114.543 30.0542 113.081 31.2976C111.618 32.5409 109.68 33.1626 107.23 33.1626ZM107.23 30.3468C108.619 30.3468 109.753 29.9811 110.594 29.2497C111.435 28.5184 111.874 27.5676 111.874 26.3608C111.874 25.1541 111.435 24.1667 110.594 23.4353C109.753 22.704 108.619 22.3383 107.23 22.3383C105.84 22.3383 104.743 22.704 103.865 23.4353C103.024 24.1667 102.585 25.1541 102.585 26.3242C102.585 27.531 103.024 28.4818 103.865 29.2132C104.743 29.9811 105.877 30.3468 107.23 30.3468Z" fill="#FF4C46"/>
<path d="M121.979 32.9851C120.37 32.9851 119.456 32.2537 118.98 31.5589C118.505 30.9007 118.139 30.023 118.139 28.1215V22.5631H116.311V19.9301H118.651V16.3464H121.759V19.9301H125.453V22.5631H121.759V27.3535C121.723 28.7797 121.979 29.2917 122.308 29.6574C122.93 30.279 124.795 29.8402 125.453 29.4379V32.2171C124.685 32.7657 123.295 32.9851 121.979 32.9851Z" fill="#FF4C46"/>
<path d="M134.722 33.1625C132.455 33.1625 130.151 32.8334 127.847 32.1751V29.2497C129.785 29.981 131.87 30.3467 134.1 30.3467C135.709 30.3467 136.88 30.237 137.574 30.0542C138.269 29.8347 138.635 29.4691 138.635 28.9571C138.635 28.4451 138.233 28.116 137.465 27.9332C136.697 27.7503 135.746 27.6041 134.612 27.5675C133.479 27.5309 132.382 27.4212 131.248 27.275C130.114 27.1287 129.2 26.763 128.396 26.2145C127.628 25.6659 127.226 24.8614 127.226 23.8375C127.226 22.4479 127.884 21.3874 129.237 20.6561C130.59 19.9247 132.418 19.5956 134.722 19.5956C136.551 19.5956 138.672 19.8516 141.122 20.327V23.1427C139.037 22.7039 137.026 22.4845 135.124 22.4845C132.235 22.4845 130.773 22.9233 130.773 23.801C130.773 24.2398 131.175 24.5689 131.943 24.7517C132.711 24.9346 133.662 25.0443 134.795 25.1174C135.892 25.1906 137.026 25.3003 138.123 25.4465C139.257 25.5928 140.207 25.9951 140.975 26.5436C141.743 27.1287 142.146 27.9332 142.146 28.9571C142.146 30.3833 141.487 31.4438 140.134 32.1386C138.927 32.7968 137.099 33.1625 134.722 33.1625Z" fill="#FF4C46"/>
<path d="M159.625 19.9503V32.7493H155.639L156.151 27.4834H155.931C155.346 31.2865 153.225 33.1515 149.641 33.1515C147.813 33.115 146.46 32.5299 145.582 31.3597C144.741 30.1895 144.302 28.2514 144.302 25.5087V19.9503H147.923V25.0699C147.923 27.008 148.179 28.3611 148.727 29.2021C149.276 30.0066 150.153 30.4455 151.397 30.4455C152.786 30.4455 153.883 29.8238 154.688 28.5439C155.492 27.264 155.931 25.6184 155.931 23.4975V19.9503H159.625Z" fill="#FF4C46"/>
<path d="M164.587 18.7253C163.892 18.7253 163.344 18.5425 162.941 18.2133C162.539 17.8477 162.356 17.3357 162.356 16.6775C162.356 15.9827 162.539 15.4707 162.941 15.1416C163.344 14.8125 163.892 14.6296 164.587 14.6296C165.318 14.6296 165.867 14.8125 166.269 15.1416C166.671 15.4707 166.854 15.9827 166.854 16.6775C166.854 18.0305 166.086 18.7253 164.587 18.7253ZM162.795 32.731V19.9321H166.415V32.731H162.795Z" fill="#FF4C46"/>
<path d="M186.928 33.1626C184.624 33.1626 182.759 32.5409 181.333 31.2976C179.944 30.0542 179.212 28.4086 179.212 26.3608C179.212 24.313 179.907 22.6674 181.333 21.4241C182.723 20.1807 184.588 19.5591 186.928 19.5591C189.232 19.5591 191.06 20.1076 192.487 21.1681C193.876 22.2286 194.607 23.6548 194.644 25.3735V27.4579H182.723C182.942 28.4818 183.454 29.2497 184.332 29.7251C185.209 30.2005 186.489 30.4199 188.208 30.4199C190.475 30.4199 191.499 30.0542 192.596 29.652C192.779 29.5788 193.949 29.0669 194.096 28.9937V31.9192C192.816 32.4312 191.682 32.7603 190.731 32.9066C189.744 33.0528 188.501 33.1626 186.928 33.1626ZM182.613 25.666L191.17 25.4466C191.133 24.313 190.768 23.5085 190.073 23.0331C189.378 22.5577 188.354 22.3017 186.928 22.3017C185.575 22.3017 184.551 22.5577 183.856 23.0697C183.162 23.6182 182.723 24.4958 182.613 25.666Z" fill="#FF4C46"/>
<path d="M174.548 32.9851C172.938 32.9851 172.024 32.2537 171.549 31.5589C171.074 30.9007 170.708 30.023 170.708 28.1215V22.5631H168.879V19.9301H171.22V16.3464H174.328V19.9301H178.022V22.5631H174.328V27.3535C174.292 28.7797 174.548 29.2917 174.877 29.6574C175.498 30.279 177.363 29.8402 178.022 29.4379V32.2171C177.254 32.7657 175.827 32.9851 174.548 32.9851Z" fill="#FF4C46"/>
<path d="M198.181 22.9069C197.852 23.236 197.449 23.4189 196.974 23.4189C196.499 23.4189 196.096 23.236 195.767 22.9069C195.438 22.5778 195.255 22.1756 195.255 21.7002C195.255 21.2248 195.438 20.8225 195.767 20.4934C196.096 20.1643 196.499 19.9814 196.974 19.9814C197.449 19.9814 197.852 20.1643 198.181 20.4934C198.51 20.8225 198.693 21.2248 198.693 21.7002C198.693 22.139 198.547 22.5412 198.181 22.9069ZM195.914 20.6031C195.621 20.8957 195.475 21.2613 195.475 21.6636C195.475 22.0658 195.621 22.4315 195.914 22.7241C196.206 23.0166 196.535 23.1629 196.974 23.1629C197.376 23.1629 197.742 23.0166 198.035 22.7241C198.327 22.4315 198.473 22.0658 198.473 21.6636C198.473 21.2613 198.327 20.8957 198.035 20.6031C197.742 20.3106 197.376 20.1643 196.974 20.1643C196.572 20.1643 196.206 20.3106 195.914 20.6031ZM196.938 20.7128C197.157 20.7128 197.34 20.7494 197.449 20.786C197.632 20.8591 197.742 21.0419 197.742 21.2613C197.742 21.4442 197.669 21.5539 197.559 21.627C197.486 21.6636 197.413 21.7002 197.303 21.7367C197.449 21.7733 197.559 21.8099 197.632 21.9196C197.705 22.0293 197.742 22.1024 197.742 22.2121V22.3584C197.742 22.395 197.742 22.4315 197.742 22.5047C197.742 22.5412 197.742 22.5778 197.742 22.6144V22.6509H197.413C197.413 22.6509 197.413 22.6509 197.413 22.6144C197.413 22.6144 197.413 22.6144 197.413 22.5778V22.5047V22.3584C197.413 22.139 197.34 21.9927 197.23 21.9196C197.157 21.883 197.047 21.8464 196.864 21.8464H196.608V22.5778H196.279V20.6762H196.938V20.7128ZM197.303 21.0054C197.23 20.9688 197.084 20.9322 196.901 20.9322H196.608V21.627H196.901C197.047 21.627 197.157 21.627 197.23 21.5905C197.376 21.5539 197.413 21.4442 197.413 21.2979C197.413 21.1516 197.376 21.0419 197.303 21.0054Z" fill="#FF4C46"/>
<path d="M33.2352 9.32739C29.5096 9.30275 25.3596 11.5935 22.3278 15.0087C20.1301 17.4789 17.3622 24.3187 16.0088 27.8866C15.4289 29.406 15.7018 31.1157 16.7256 32.3779C19.1177 35.3209 24.0929 40.1161 33.7247 40.1817C42.549 40.2468 47.0455 36.3181 49.1545 33.426C50.3243 31.8263 50.6819 29.7746 50.1277 27.8662C49.1895 24.6535 47.2247 19.0813 43.9917 15.2285C40.3065 10.8447 36.9609 9.35203 33.2352 9.32739Z" fill="#FF4C46"/>
<path d="M36.3751 18.2792C41.8346 14.4752 44.7993 17.7756 46.4578 21.4341C47.6615 24.0679 48.0851 29.012 44.1894 29.7604C41.2036 30.3395 38.4479 27.3215 36.4093 24.4934C36.2022 24.203 35.7927 24.1419 35.5102 24.351C35.4582 24.3888 35.412 24.4366 35.3639 24.4924C34.0195 26.3455 30.6556 31.9124 25.6307 30.5389C20.8773 29.2341 19.8333 23.8864 21.8126 20.1964C24.7347 14.6282 29.0113 12.8115 36.3751 18.2792Z" fill="white"/>
<path d="M33.4546 30.2575C34.0803 30.9428 35.3835 32.3437 36.1651 33.0175C36.3186 33.1499 36.5425 33.1385 36.6748 32.985L38.7801 30.6784C38.8122 30.6526 38.8163 30.6026 38.7884 30.5785C38.7685 30.5565 38.7285 30.5464 38.7005 30.5563C37.0077 31.1991 35.1174 31.0437 33.5509 30.1458C33.513 30.1277 33.4649 30.1496 33.4548 30.1895C33.4328 30.2094 33.4427 30.2375 33.4546 30.2575Z" fill="white"/>
<path d="M35.5737 25.9482L33.4319 28.4326C33.3357 28.5442 33.3452 28.7082 33.4569 28.8044C33.4648 28.8064 33.4708 28.8165 33.4788 28.8185C33.9675 29.1717 35.1506 29.9386 36.3118 29.9519C37.1933 29.9284 38.0554 29.713 38.8461 29.3095C38.9742 29.2399 39.0226 29.0822 38.961 28.9561C38.9491 28.936 38.9371 28.916 38.9232 28.904L36.3093 25.9304C36.122 25.73 35.8082 25.7271 35.6078 25.9144C35.5937 25.9363 35.5837 25.9423 35.5737 25.9482Z" fill="white"/>
<path d="M42.7415 21.6074C43.3683 22.5906 43.0888 23.897 42.1136 24.5258C41.1364 25.1626 39.824 24.873 39.1952 23.8978C38.5744 22.9247 38.8419 21.6322 39.8031 20.9914C40.7164 20.3384 41.999 20.5439 42.65 21.4652C42.6798 21.5153 42.7197 21.5594 42.7415 21.6074Z" fill="#FF4C46"/>
<path d="M35.3666 18.2741C35.9689 18.7495 36.8022 18.8158 37.4629 18.422L50.7348 10.6867C50.907 10.5773 50.9636 10.3536 50.8622 10.1834C50.7885 10.0713 50.6628 9.99694 50.5329 10.0066L36.1624 11.1987L19.7763 4.96972C19.5507 4.88713 19.2985 5.01033 19.2159 5.23596C19.1555 5.40768 19.2089 5.59971 19.3485 5.72003L35.3666 18.2741Z" fill="#FF4C46"/>
<path d="M29.5154 20.4366C28.417 20.8132 27.868 21.9749 28.1967 23.0612C28.5733 24.1595 29.735 24.7085 30.8213 24.3798C31.9197 24.0032 32.4568 22.8215 32.14 21.7552C32.142 21.7473 32.1381 21.7293 32.1202 21.6992C31.7834 20.6449 30.7017 20.0822 29.6755 20.375C29.6355 20.3649 29.5755 20.4007 29.5154 20.4366Z" fill="#FF4C46"/>
</g>
</svg>
