<svg width="135" height="39" viewBox="0 0 135 39" fill="none" xmlns="http://www.w3.org/2000/svg">
<path d="M14.6208 6.80884V17.4296H4.70462V6.80884H0V32.1621H4.7059V21.886H14.6195V32.1621H19.3267V6.80884H14.6208ZM34.3893 23.9675C34.3893 24.9837 33.9791 25.9583 33.2488 26.6769C32.5186 27.3955 31.5281 27.7992 30.4954 27.7992C29.4626 27.7992 28.4722 27.3955 27.7419 26.6769C27.0116 25.9583 26.6014 24.9837 26.6014 23.9675V13.1074H22.1375V23.9675C22.1375 26.1465 23.0171 28.2363 24.583 29.7771C26.1489 31.3179 28.2726 32.1835 30.4871 32.1835C32.7015 32.1835 34.8253 31.3179 36.3912 29.7771C37.957 28.2363 38.8367 26.1465 38.8367 23.9675V13.1074H34.3893V23.9675ZM67.4656 14.2265C67.4656 11.9996 68.9621 11.294 70.6012 11.294C71.9232 11.294 73.668 12.284 74.8104 13.4846L77.7333 10.0935C76.2737 8.15101 73.3139 6.80884 70.8903 6.80884C66.0468 6.80884 62.5445 9.59969 62.5445 14.2265C62.5445 22.8108 73.2069 20.0864 73.2069 24.8911C73.2069 26.3724 71.7449 27.6807 70.0714 27.6807C67.4312 27.6807 66.5754 26.4113 65.3629 25.0678L62.1178 28.3875C64.1938 30.8939 66.7537 32.1672 69.8192 32.1672C74.4207 32.1672 78.1217 29.3425 78.1217 24.9262C78.1217 15.397 67.458 18.3582 67.458 14.2265M133.43 28.1118C130.792 28.1118 130.042 26.989 130.042 25.2696V17.6565H134.143V13.7991H130.042V8.70993L125.516 10.7088V26.2158C125.516 30.1821 128.297 32.1809 132.11 32.1809C132.709 32.191 133.307 32.1433 133.896 32.0406L135 28.0404C134.502 28.0742 133.93 28.1081 133.43 28.1081M51.3815 13.2339C49.1706 13.2339 47.627 13.8656 46.1343 15.3055V6.96047H41.6641V22.4286C41.6641 28.2184 45.9178 32.186 50.6989 32.186C56.0021 32.186 60.6672 28.1482 60.6672 22.7118C60.6672 17.3432 56.374 13.2377 51.3815 13.2377M51.3535 27.7584C50.6873 27.7584 50.0275 27.6293 49.412 27.3784C48.7965 27.1276 48.2372 26.7598 47.7661 26.2963C47.295 25.8327 46.9213 25.2824 46.6664 24.6767C46.4114 24.0711 46.2802 23.4219 46.2802 22.7663C46.2802 22.1108 46.4114 21.4616 46.6664 20.856C46.9213 20.2503 47.295 19.7 47.7661 19.2364C48.2372 18.7729 48.7965 18.4051 49.412 18.1543C50.0275 17.9034 50.6873 17.7743 51.3535 17.7743C52.699 17.7743 53.9894 18.3002 54.9409 19.2364C55.8923 20.1726 56.4268 21.4424 56.4268 22.7663C56.4268 24.0903 55.8923 25.3601 54.9409 26.2963C53.9894 27.2325 52.699 27.7584 51.3535 27.7584ZM99.9306 22.4812C99.9306 17.0349 95.2756 13.0071 89.9622 13.0071C85.1825 13.0071 80.9274 16.9735 80.9274 22.7645V38.2414H85.3977V29.8851C86.8878 31.3225 88.4339 31.9566 90.6423 31.9566C95.6348 31.9566 99.9306 27.8512 99.9306 22.4812ZM95.6972 22.4261C95.6972 23.7501 95.1627 25.0198 94.2112 25.956C93.2598 26.8922 91.9694 27.4182 90.6238 27.4182C89.2783 27.4182 87.9879 26.8922 87.0365 25.956C86.085 25.0198 85.5505 23.7501 85.5505 22.4261C85.5505 21.1021 86.085 19.8324 87.0365 18.8962C87.9879 17.96 89.2783 17.434 90.6238 17.434C91.9694 17.434 93.2598 17.96 94.2112 18.8962C95.1627 19.8324 95.6972 21.1021 95.6972 22.4261Z" fill="#33475B"/>
<path d="M114.376 12.7941V8.37411C114.969 8.10113 115.472 7.66786 115.825 7.12475C116.178 6.58164 116.367 5.95102 116.37 5.3063V5.20479C116.37 3.325 114.822 1.80112 112.911 1.80112H112.808C111.891 1.80112 111.011 2.15972 110.362 2.79803C109.713 3.43635 109.349 4.30208 109.349 5.20479V5.3063C109.352 5.95102 109.541 6.58164 109.894 7.12475C110.247 7.66786 110.75 8.10113 111.343 8.37411V12.7941C109.637 13.0512 108.031 13.7472 106.686 14.8118L94.3665 5.37021C94.4543 5.05817 94.5002 4.73735 94.5053 4.41528C94.5068 3.65673 94.2796 2.91478 93.8525 2.28328C93.4255 1.65177 92.8176 1.15909 92.106 0.867547C91.3943 0.576003 90.6107 0.498696 89.8544 0.645406C89.098 0.792115 88.4029 1.15625 87.8569 1.69175C87.3109 2.22725 86.9386 2.91005 86.787 3.6538C86.6354 4.39754 86.7114 5.16881 87.0054 5.87005C87.2994 6.57129 87.7981 7.17098 88.4385 7.59329C89.0788 8.01559 89.8321 8.24153 90.603 8.24253C91.2774 8.2394 91.9392 8.06223 92.5223 7.72872L104.653 17.0174C103.563 18.6373 102.995 20.5428 103.022 22.4853C103.049 24.4278 103.669 26.3174 104.803 27.9076L101.114 31.5393C100.816 31.4455 100.505 31.3957 100.192 31.3915C99.559 31.392 98.9406 31.577 98.4147 31.9233C97.8887 32.2695 97.4789 32.7614 97.237 33.3367C96.9951 33.9121 96.9319 34.5451 97.0555 35.1557C97.1791 35.7664 97.4838 36.3273 97.9313 36.7676C98.3787 37.2079 98.9488 37.5078 99.5694 37.6294C100.19 37.751 100.833 37.6888 101.418 37.4508C102.003 37.2127 102.503 36.8095 102.854 36.2919C103.206 35.7744 103.394 35.1659 103.395 34.5432C103.391 34.2351 103.34 33.9294 103.245 33.6359L106.895 30.043C108.085 30.9447 109.469 31.5663 110.941 31.8603C112.413 32.1543 113.934 32.1128 115.388 31.739C116.841 31.3652 118.188 30.669 119.326 29.7038C120.463 28.7386 121.362 27.53 121.951 26.1705C122.541 24.811 122.806 23.3368 122.727 21.8607C122.649 20.3847 122.227 18.946 121.496 17.6548C120.765 16.3637 119.743 15.2543 118.509 14.4118C117.275 13.5693 115.861 13.0159 114.376 12.7941ZM112.863 27.3311C112.188 27.3494 111.517 27.2344 110.888 26.993C110.259 26.7516 109.686 26.3887 109.203 25.9256C108.719 25.4626 108.334 24.9089 108.072 24.2971C107.809 23.6854 107.674 23.0281 107.674 22.3641C107.674 21.7001 107.809 21.0428 108.072 20.4311C108.334 19.8193 108.719 19.2656 109.203 18.8026C109.686 18.3395 110.259 17.9766 110.888 17.7352C111.517 17.4938 112.188 17.3788 112.863 17.3971C114.17 17.4421 115.409 17.9847 116.318 18.9105C117.227 19.8363 117.735 21.0731 117.736 22.3604C117.736 23.6477 117.229 24.885 116.321 25.8118C115.413 26.7385 114.175 27.2823 112.868 27.3286" fill="#FF7A59"/>
</svg>
