<svg width="141" height="45" viewBox="0 0 141 45" fill="none" xmlns="http://www.w3.org/2000/svg">
<path d="M6.27706 11.6181C6.27706 5.4323 11.1795 0.415894 17.2252 0.415894C28.9454 0.415894 39.1736 9.23044 44.5939 22.3057C39.1703 35.3842 28.9454 44.202 17.2219 44.202C11.1762 44.202 6.2738 39.1856 6.2738 32.9965C6.2738 27.9801 9.49538 23.7324 13.9385 22.3057C9.49863 20.8789 6.27706 16.6345 6.27706 11.6181Z" fill="url(#paint0_linear_571_502)"/>
<path d="M6.32914 31.0583C2.83394 31.0583 0 29.0518 0 26.5794C0 24.5728 1.86324 22.8757 4.43007 22.3057H22.1536C19.02 27.5338 13.1078 31.0583 6.32914 31.0583Z" fill="#A93D8F"/>
<path d="M6.32914 13.553C2.83394 13.553 0 15.5595 0 18.0319C0 20.0385 1.86324 21.7356 4.43007 22.3056H22.1536C19.02 17.0775 13.1078 13.553 6.32914 13.553Z" fill="url(#paint1_linear_571_502)"/>
<path d="M22.0168 33.0356C18.8604 33.0356 16.3 30.5763 16.3 27.5469C16.3 25.0875 17.9809 23.0093 20.3001 22.309H36.3038C33.4764 28.713 28.1375 33.0356 22.0168 33.0356Z" fill="url(#paint2_linear_571_502)"/>
<path fill-rule="evenodd" clip-rule="evenodd" d="M32.789 17.9831C34.0301 17.9831 35.0334 16.9798 35.0334 15.7387C35.0334 14.4977 34.0301 13.4944 32.789 13.4944C31.548 13.4944 30.5447 14.4977 30.5447 15.7387C30.5447 16.9766 31.5512 17.9831 32.789 17.9831Z" fill="white"/>
<path d="M54.3791 28.814H58.617V15.501H54.3791V28.814ZM56.503 13.9504C57.7082 13.9504 58.6789 13.0416 58.6789 11.9211C58.6789 10.8038 57.7082 9.90149 56.503 9.90149C55.3075 9.90149 54.327 10.8038 54.327 11.9211C54.327 13.0416 55.3075 13.9504 56.503 13.9504Z" fill="#262626"/>
<path d="M65.5521 21.2209C65.5619 19.7029 66.4446 18.8039 67.7867 18.8039C69.1287 18.8039 69.9268 19.6867 69.9203 21.1623V28.8139H74.1582V20.3284C74.1679 17.3283 72.3373 15.3282 69.5392 15.3282C67.5717 15.3282 66.0798 16.325 65.4902 17.9472H65.3436V15.5041H61.3142V28.8172H65.5521V21.2209Z" fill="#262626"/>
<path d="M89.2203 15.501H84.7576L82.295 24.6706H82.155L79.7022 15.501H75.2395L79.7999 28.814H84.6534L89.2203 15.501Z" fill="#262626"/>
<path d="M90.8458 28.814H95.0837V15.501H90.8458V28.814ZM92.9696 13.9504C94.1749 13.9504 95.1456 13.0416 95.1456 11.9211C95.1456 10.8038 94.1749 9.90149 92.9696 9.90149C91.7742 9.90149 90.7937 10.8038 90.7937 11.9211C90.7937 13.0416 91.7742 13.9504 92.9696 13.9504Z" fill="#262626"/>
<path d="M102.644 29.0062C104.654 29.0062 105.849 27.8889 106.387 26.6576H106.517V28.8172H110.713V11.0676H106.475V17.7844H106.387C105.885 16.5629 104.722 15.3316 102.625 15.3316C99.8428 15.3316 97.3215 17.4717 97.3215 22.1689C97.3215 26.6999 99.706 29.0062 102.644 29.0062ZM104.116 25.7032C102.546 25.7032 101.673 24.309 101.673 22.1591C101.673 20.019 102.54 18.6411 104.116 18.6411C105.667 18.6411 106.569 19.9831 106.569 22.1591C106.569 24.3155 105.66 25.7032 104.116 25.7032Z" fill="#262626"/>
<path d="M119.576 29.0647C123.068 29.0647 125.364 27.3741 125.85 24.7584L121.96 24.6444C121.631 25.5271 120.765 26.006 119.654 26.006C118.026 26.006 117.019 24.9213 117.019 23.2926V23.1786H125.895V22.1199C125.895 17.7354 123.224 15.325 119.446 15.325C115.423 15.325 112.843 18.0807 112.843 22.2079C112.843 26.4751 115.39 29.0647 119.576 29.0647ZM117.019 20.7192C117.081 19.3935 118.13 18.3869 119.534 18.3869C120.928 18.3869 121.934 19.3576 121.951 20.7192H117.019Z" fill="#262626"/>
<path d="M134.273 29.0647C138.459 29.0647 141 26.2992 141 22.2014C141 18.0938 138.459 15.3282 134.273 15.3282C130.088 15.3282 127.55 18.0938 127.55 22.2014C127.55 26.3024 130.088 29.0647 134.273 29.0647ZM134.3 25.8692C132.729 25.8692 131.863 24.3773 131.863 22.1786C131.863 19.9701 132.729 18.4684 134.3 18.4684C135.817 18.4684 136.681 19.9668 136.681 22.1786C136.684 24.3773 135.817 25.8692 134.3 25.8692Z" fill="#262626"/>
<defs>
<linearGradient id="paint0_linear_571_502" x1="25.4373" y1="0.416512" x2="25.4373" y2="44.2032" gradientUnits="userSpaceOnUse">
<stop stop-color="#E83F5F"/>
<stop offset="0.4999" stop-color="#A93D8F"/>
<stop offset="1" stop-color="#464C9B"/>
</linearGradient>
<linearGradient id="paint1_linear_571_502" x1="22.1537" y1="17.9298" x2="0.000945412" y2="17.9298" gradientUnits="userSpaceOnUse">
<stop stop-color="#A93D8F" stop-opacity="0"/>
<stop offset="1" stop-color="#E83F5F"/>
</linearGradient>
<linearGradient id="paint2_linear_571_502" x1="26.3044" y1="22.3064" x2="26.3044" y2="33.0342" gradientUnits="userSpaceOnUse">
<stop stop-color="#E83F5F" stop-opacity="0"/>
<stop offset="1" stop-color="white"/>
</linearGradient>
</defs>
</svg>
