<svg width="192" height="56" viewBox="0 0 192 56" fill="none" xmlns="http://www.w3.org/2000/svg">
<rect width="192" height="56" fill="white"/>
<path d="M46.6828 10.6895H39.254C39.2664 13.6661 38.5781 16.6039 37.2447 19.2652C35.9113 21.9265 33.9703 24.2366 31.5786 26.0086L28.6387 28.2088L40.019 43.743H49.3951L38.9126 29.448C41.3873 26.993 43.3488 24.0701 44.6828 20.8496C46.0168 17.6291 46.6967 14.1753 46.6828 10.6895Z" fill="black"/>
<path d="M20.1284 43.743H27.7343V10.6895H20.1284V43.743Z" fill="black"/>
<path d="M51.6079 43.7318H58.7712V10.6973H51.6079V43.7318Z" fill="black"/>
<path d="M121.597 20.2675C118.865 20.2675 116.279 21.1147 114.553 23.4287V20.8808H107.738V43.73H114.636V31.7174C114.636 28.2401 116.962 26.5394 119.769 26.5394C122.779 26.5394 124.505 28.3349 124.505 31.6668V43.73H131.339V29.1884C131.339 23.8713 127.11 20.2549 121.597 20.2549V20.2675Z" fill="black"/>
<path d="M74.1914 38.1847C72.5904 38.2255 71.0386 37.6292 69.8769 36.5267C68.7152 35.4243 68.0385 33.9058 67.9955 32.3049C68.0832 30.7201 68.7745 29.229 69.9275 28.1381C71.0804 27.0472 72.6074 26.4393 74.1946 26.4393C75.7818 26.4393 77.3088 27.0472 78.4618 28.1381C79.6147 29.229 80.306 30.7201 80.3937 32.3049C80.3507 33.907 79.6731 35.4264 78.5101 36.529C77.347 37.6317 75.7936 38.2272 74.1914 38.1847ZM80.4127 20.8803V22.3408C78.8526 21.2779 77.0647 20.5962 75.1931 20.3506C73.3214 20.1049 71.4182 20.3022 69.6366 20.9265C67.8551 21.5509 66.2451 22.5848 64.9362 23.9451C63.6273 25.3054 62.6561 26.954 62.1008 28.7582C61.5455 30.5624 61.4216 32.4718 61.7391 34.3327C62.0566 36.1935 62.8066 37.9538 63.9288 39.4718C65.0509 40.9899 66.5138 42.2232 68.1997 43.0725C69.8856 43.9218 71.7473 44.3634 73.6351 44.3617C76.0507 44.3759 78.4139 43.6573 80.4127 42.3006V43.7611H87.2599V20.8803H80.4127Z" fill="black"/>
<path d="M97.8431 23.8597V20.8818H90.8379V43.731H97.8558V33.0651C97.8558 29.4613 101.757 27.5267 104.469 27.5267H104.545V20.8818C101.769 20.8818 99.2151 22.0704 97.8431 23.8597Z" fill="black"/>
<path d="M146.374 38.1847C144.773 38.2255 143.221 37.6292 142.059 36.5267C140.897 35.4243 140.221 33.9059 140.178 32.3049C140.265 30.7201 140.957 29.229 142.11 28.1381C143.263 27.0472 144.79 26.4393 146.377 26.4393C147.964 26.4393 149.491 27.0472 150.644 28.1381C151.797 29.229 152.488 30.7201 152.576 32.3049C152.533 33.907 151.855 35.4264 150.692 36.529C149.529 37.6317 147.976 38.2272 146.374 38.1847ZM152.601 20.8803V22.3408C150.789 21.1063 148.675 20.3892 146.486 20.2668C144.297 20.1445 142.115 20.6214 140.177 21.6462C138.239 22.6711 136.617 24.2051 135.485 26.0831C134.354 27.9612 133.756 30.1123 133.756 32.3049C133.756 34.4975 134.354 36.6485 135.485 38.5266C136.617 40.4047 138.239 41.9387 140.177 42.9636C142.115 43.9884 144.297 44.4653 146.486 44.3429C148.675 44.2205 150.789 43.5035 152.601 42.269V43.7295H159.442V20.8803H152.601Z" fill="black"/>
<path d="M166.707 35.626C165.857 35.6247 165.025 35.8758 164.317 36.3475C163.609 36.8191 163.057 37.4901 162.731 38.2756C162.405 39.0611 162.319 39.9257 162.484 40.7601C162.649 41.5945 163.058 42.3611 163.659 42.963C164.26 43.5649 165.026 43.975 165.86 44.1414C166.694 44.3078 167.559 44.223 168.345 43.8978C169.131 43.5726 169.803 43.0215 170.275 42.3144C170.748 41.6073 171 40.7758 171 39.9252C171.001 39.3609 170.891 38.802 170.675 38.2804C170.46 37.7589 170.144 37.2849 169.745 36.8856C169.346 36.4863 168.873 36.1695 168.352 35.9534C167.83 35.7372 167.272 35.626 166.707 35.626Z" fill="black"/>
</svg>
