<svg width="192" height="56" viewBox="0 0 192 56" fill="none" xmlns="http://www.w3.org/2000/svg">
<rect width="192" height="56" fill="white"/>
<path d="M0 37.7528V18.5127H3.91802V34.484H13.6566V37.7528H0Z" fill="#00458A"/>
<path d="M16.4448 37.7536V18.3555H30.8297V21.6412H20.3628V25.9431H30.1014V29.2119H20.3628V34.4905H31.2023V37.7593H16.4448V37.7536Z" fill="#00458A"/>
<path d="M34.5625 37.7536V18.3555H38.3733L46.3109 31.312V18.3555H49.9523V37.7536H46.023L38.2039 25.1019V37.7536H34.5625Z" fill="#00458A"/>
<path d="M54.0791 18.3555H61.2377C62.8523 18.3555 64.083 18.4797 64.9299 18.7281C66.0703 19.0612 67.0413 19.6596 67.8543 20.5121C68.6672 21.3646 69.2826 22.4146 69.706 23.6567C70.1294 24.8987 70.3383 26.423 70.3383 28.2408C70.3383 29.8385 70.1407 31.2161 69.7455 32.3678C69.26 33.7791 68.5656 34.9195 67.668 35.7946C66.9905 36.4551 66.0703 36.9745 64.9129 37.3415C64.0492 37.6125 62.8918 37.7536 61.4466 37.7536H54.0791V18.3555ZM57.9971 21.6355V34.4848H60.9215C62.0168 34.4848 62.8071 34.4227 63.2927 34.2985C63.925 34.1405 64.4556 33.8695 64.8734 33.4912C65.2912 33.113 65.6356 32.4863 65.9009 31.6169C66.1663 30.7475 66.2961 29.5619 66.2961 28.0658C66.2961 26.5698 66.1663 25.4124 65.9009 24.6108C65.6356 23.8091 65.2686 23.1824 64.7887 22.7308C64.3089 22.2791 63.7104 21.9743 62.9765 21.8162C62.4289 21.692 61.3562 21.6299 59.7585 21.6299H57.9971V21.6355Z" fill="#00458A"/>
<path d="M73.5449 37.7536V18.3555H77.4629V37.7536H73.5449Z" fill="#00458A"/>
<path d="M81.2285 37.7536V18.3555H85.0393L92.9769 31.312V18.3555H96.6183V37.7536H92.689L84.8699 25.1019V37.7536H81.2285Z" fill="#00458A"/>
<path d="M109.783 30.6226V27.3538H118.223V35.0826C117.405 35.8786 116.214 36.573 114.655 37.1771C113.097 37.7812 111.522 38.086 109.924 38.086C107.898 38.086 106.125 37.6626 104.618 36.8101C103.11 35.9577 101.976 34.7439 101.219 33.1575C100.463 31.571 100.079 29.8492 100.079 27.9918C100.079 25.9707 100.502 24.1754 101.349 22.6059C102.196 21.0364 103.438 19.8339 105.069 18.9927C106.311 18.3491 107.864 18.0273 109.716 18.0273C112.126 18.0273 114.006 18.5298 115.361 19.5404C116.716 20.5509 117.586 21.9454 117.975 23.7294L114.085 24.4576C113.814 23.5035 113.301 22.7527 112.544 22.1994C111.788 21.6461 110.85 21.3752 109.721 21.3752C108.011 21.3752 106.65 21.9171 105.639 23.0011C104.629 24.085 104.126 25.694 104.126 27.828C104.126 30.1314 104.64 31.859 105.662 33.0107C106.684 34.1624 108.028 34.7382 109.682 34.7382C110.5 34.7382 111.325 34.5745 112.149 34.2527C112.973 33.9309 113.679 33.5413 114.272 33.0841V30.6226H109.783Z" fill="#00458A"/>
<path d="M121.893 37.7536V18.3555H125.811V26.9706L133.721 18.3555H138.988L131.683 25.9092L139.383 37.7536H134.314L128.979 28.653L125.806 31.8935V37.7536H121.888H121.893Z" fill="#00458A"/>
<path d="M158.9 37.7536H154.638L152.944 33.3501H145.193L143.59 37.7536H139.435L146.994 18.3555H151.138L158.906 37.7536H158.9ZM151.691 30.0813L149.021 22.8832L146.401 30.0813H151.697H151.691Z" fill="#00458A"/>
<path d="M161.655 18H174.386V18.0282C173.635 19.1856 173.211 19.8009 173.115 19.88H169.717C170.185 20.4276 170.501 21.0938 170.671 21.8785H174.295C174.34 21.8898 174.363 21.9067 174.363 21.9293C173.55 23.1488 173.138 23.7528 173.121 23.7528H170.767C170.716 24.3795 170.417 25.136 169.869 26.0167C169.146 26.9087 168.452 27.4845 167.792 27.7499C166.555 28.3427 165.375 28.6362 164.246 28.6362V28.6645C164.246 28.7548 164.523 29.1161 165.082 29.7654L171.365 37.3473V37.703C171.365 37.7369 171.343 37.7538 171.297 37.7538H168.531C163.557 31.9558 161.068 29.0484 161.068 29.0201V27.2587L161.096 27.191C161.536 27.2531 162.056 27.2813 162.643 27.2813C165.432 27.2813 167.165 26.378 167.842 24.5714C167.95 24.3061 168 24.0351 168 23.7528H160.43C160.396 23.7528 160.379 23.7359 160.379 23.702C161.214 22.4826 161.644 21.8785 161.66 21.8785H167.667V21.8503C167.323 21.1559 166.657 20.6082 165.669 20.2244C164.963 19.9929 164.325 19.88 163.761 19.88H160.401V19.8122C161.214 18.6041 161.632 18 161.66 18H161.655Z" fill="#FC7500"/>
<path d="M182.346 37.7536V21.6412H176.588V18.3555H192V21.6412H186.259V37.7593H182.341L182.346 37.7536Z" fill="#00458A"/>
</svg>
