<svg width="158" height="44" viewBox="0 0 158 44" fill="none" xmlns="http://www.w3.org/2000/svg">
<path d="M30.6032 20.9088C30.8918 20.9088 31.1804 20.9088 31.469 20.9088C31.6526 20.5153 31.6526 19.9381 31.469 19.2823C31.2853 18.3116 30.9967 17.6557 30.4196 17.7344C29.8424 17.8394 29.8424 18.6002 30.0261 19.5709C30.1048 20.148 30.3146 20.6203 30.6032 20.9088Z" fill="black"/>
<path d="M25.5136 21.7746C25.9071 21.9582 26.1957 22.0632 26.2744 21.9582C26.3794 21.8533 26.2744 21.7746 26.1695 21.5647C25.9858 21.1712 25.4874 20.8826 25.1201 20.699C24.1494 20.3054 23.1 20.4104 22.2342 21.0925C21.9457 21.2761 21.6571 21.5647 21.762 21.7746C21.762 21.8795 21.867 21.8795 21.9457 21.8795C22.1293 21.8795 22.9951 21.486 23.9657 21.4073C24.5429 21.3811 25.1201 21.5909 25.5136 21.7746Z" fill="black"/>
<path d="M24.648 22.2469C24.0709 22.3518 23.7823 22.5355 23.5986 22.7191C23.415 22.9028 23.3101 23.0077 23.3101 23.1127V23.2176H23.415C23.5199 23.2176 23.8085 23.1127 23.8085 23.1127C24.5693 22.8241 25.0678 22.8241 25.54 22.929C25.8286 22.929 25.9335 23.034 26.0123 22.929C26.0123 22.929 26.0123 22.8241 26.0123 22.7454C25.986 22.4568 25.4088 22.1682 24.648 22.2469Z" fill="black"/>
<path d="M24.9365 22.9289C25.1201 22.5354 25.1201 21.6697 24.9365 21.0138C24.7528 20.0431 24.4642 19.4659 23.7821 19.4659C23.205 19.5709 23.205 20.3317 23.3886 21.3811C23.4935 22.0632 23.7821 22.4305 23.8608 22.7191C24.3593 23.5061 24.6479 23.2962 24.9365 22.9289Z" fill="black"/>
<path d="M28.8718 23.9783C29.2654 24.1619 29.6326 24.0832 29.8425 23.7946C29.9475 23.506 29.7376 23.1125 29.3703 22.9289C28.9768 22.7452 28.6095 22.8239 28.3996 23.1125C28.1897 23.4011 28.4783 23.7946 28.8718 23.9783Z" fill="black"/>
<path d="M31.2593 21.8796C30.9707 21.8796 30.6821 22.1682 30.6821 22.6404C30.6821 23.034 30.8658 23.4013 31.2593 23.4013C31.5479 23.4013 31.8365 23.1127 31.8365 22.6404C31.7578 22.2469 31.5479 21.8796 31.2593 21.8796Z" fill="black"/>
<path d="M10.927 29.3565C10.822 29.2515 10.7433 29.2515 10.6384 29.3565C10.5335 29.3565 10.4548 29.3565 10.3498 29.3565C10.1662 29.3565 9.9563 29.2515 9.87759 29.0679C9.79889 28.8843 9.77265 28.5957 9.87759 28.2021L9.98253 28.0185C10.2711 27.4413 10.6646 26.5756 10.1662 25.7098C9.77265 25.0277 9.30042 24.6604 8.61832 24.5555C7.93621 24.4506 7.28034 24.7391 6.88682 25.2376C6.20471 25.9984 6.12601 26.9691 6.20471 27.3364C6.20471 27.4413 6.30965 27.52 6.38836 27.52C6.49329 27.52 6.67694 27.4151 6.78188 27.1265V27.0216C6.78188 26.8379 6.88682 26.6281 7.07046 26.3395C7.25411 26.0509 7.54269 25.8672 7.83127 25.8672C8.11986 25.7623 8.51338 25.8672 8.80196 26.0509C9.27419 26.3395 9.48407 26.9166 9.27419 27.4938C8.98561 27.7824 8.88067 28.2546 8.88067 28.7531C8.98561 29.6188 9.56277 30.0124 10.035 30.0911C10.5072 30.0911 10.9008 29.8025 10.9008 29.6188C11.0057 29.4614 10.927 29.4614 10.927 29.3565Z" fill="black"/>
<path d="M38.8411 27.7298C38.8411 27.6249 38.7361 27.2576 38.5525 26.6804L38.159 25.8147C38.8411 24.844 38.8411 23.8995 38.7361 23.4273C38.6312 22.8502 38.3426 22.273 37.8704 21.6958C37.3982 21.1187 36.2438 20.5415 34.8009 20.148L34.0401 19.9643C34.0401 19.9643 34.0401 18.1279 33.9351 17.3671C33.9351 16.7899 33.8302 15.9242 33.5416 15.0584C33.253 13.9041 32.6759 12.8547 31.9151 12.1726C33.8302 10.1525 35.0895 7.84381 35.0895 5.92867C35.0895 2.28202 30.5771 1.12769 24.9104 3.43635L23.756 3.90858C23.756 3.90858 21.6572 1.80979 21.5523 1.80979C15.3346 -3.752 -4.52516 18.4165 1.79744 23.7946L3.13542 24.9489C2.7419 25.9196 2.66319 26.969 2.7419 28.1234C2.92554 29.5663 3.71259 31.0092 4.84069 32.1635C5.99502 33.2129 7.51664 33.895 9.0645 33.895C11.5568 39.6667 17.2235 43.1035 23.8347 43.3133C30.9444 43.497 36.9784 40.1389 39.4707 34.1836C39.6544 33.7901 40.3365 31.875 40.3365 30.1434C40.4939 28.3857 39.5232 27.7298 38.8411 27.7298ZM9.6679 32.2422C9.48426 32.2422 9.19567 32.3472 8.98579 32.2422C6.88701 32.1373 4.4734 30.2222 4.28975 27.9135C4.10611 25.4212 5.33915 23.506 7.64782 23.0076C7.9364 22.9026 8.22498 22.9026 8.61851 22.9026C9.87778 23.0076 11.7929 23.952 12.2652 26.7329C12.6324 29.3564 12.0815 31.8487 9.6679 32.2422ZM7.28053 21.4859C5.83761 21.7745 4.60457 22.5353 3.81753 23.6897C3.3453 23.2961 2.47955 22.5353 2.37461 22.2468C1.11534 19.9381 3.71259 15.347 5.54903 12.8284C9.95648 6.50584 16.9612 1.70485 20.1356 2.54437C20.7128 2.72801 22.4443 4.7481 22.4443 4.7481C22.4443 4.7481 19.1912 6.58454 16.2004 9.07685C12.1602 12.0676 9.09073 16.58 7.28053 21.4859ZM29.9212 31.2715L30.0262 31.1666C30.0262 31.0617 29.9212 31.0617 29.9212 31.0617C29.9212 31.0617 26.5632 31.5339 23.3887 30.3796C23.7823 29.2252 24.648 29.6187 26.0647 29.8024C28.557 29.986 30.8657 29.6187 32.4922 29.1203C33.9351 28.7268 35.8503 27.861 37.2932 26.7329C37.7654 27.7823 37.9753 29.0416 37.9753 29.0416C37.9753 29.0416 38.3688 28.9366 38.6574 29.1465C38.946 29.3302 39.1297 29.7237 39.0509 30.6944C38.7624 32.6095 37.8966 34.0524 36.6636 35.4954C35.9028 36.3611 34.8271 37.1219 33.699 37.6991C33.1219 37.9877 32.4398 38.2763 31.7839 38.4599C26.5894 40.0865 21.4211 38.355 19.7946 34.4197C19.6896 34.1311 19.506 33.8426 19.506 33.449C18.8239 30.8518 19.401 27.7823 21.3424 25.8672C21.4474 25.7622 21.5261 25.5786 21.5261 25.3949C21.5261 25.2113 21.4211 25.1064 21.3424 25.0014C20.6603 24.0307 18.3779 22.4042 18.8501 19.2297C19.1387 16.9211 21.1588 15.3994 22.969 15.4782H23.4412C24.202 15.4782 24.9891 15.6618 25.54 15.6618C26.5894 15.6618 27.6388 15.5569 28.7931 14.6124C29.1866 14.3238 29.4752 14.0352 30.0524 13.9303C30.1573 13.9303 30.236 13.8254 30.5246 13.9303C30.8132 13.9303 31.1018 14.0352 31.2854 14.2189C32.2561 14.901 32.3348 16.3177 32.4398 17.472C32.4398 18.1541 32.5447 19.6757 32.5447 20.0693C32.6496 21.0399 32.8333 21.2236 33.4104 21.4072C33.699 21.5122 33.9876 21.5909 34.3811 21.6958C35.6404 22.0893 36.4012 22.3779 36.8735 22.8502C37.162 23.1387 37.267 23.4273 37.3457 23.7159C37.5293 24.7653 36.4799 26.1033 33.8827 27.3626C30.9968 28.7005 27.6388 28.9891 25.2514 28.7005L24.3857 28.5956C22.4705 28.307 21.4211 30.7993 22.5492 32.4259C23.31 33.4753 25.3301 34.2623 27.2453 34.2623C31.8626 34.2623 35.4043 32.3472 36.6636 30.6157L36.7685 30.432C36.8735 30.3271 36.7685 30.2484 36.6636 30.3271C35.6142 31.0879 30.8132 33.9737 25.7236 33.108C25.7236 33.108 25.1465 33.003 24.5693 32.8194C24.0971 32.6358 23.2313 32.2422 23.0214 31.2715C27.324 32.5308 29.9212 31.2715 29.9212 31.2715ZM15.5183 12.8547C17.0661 11.0182 19.06 9.39167 20.7915 8.52591C20.8964 8.52591 20.8964 8.52592 20.8964 8.63086C20.7915 8.91944 20.5029 9.39167 20.4242 9.78519C20.4242 9.89013 20.5291 9.89013 20.5291 9.89013C21.5785 9.12932 23.4937 8.34227 25.1465 8.26357C25.2514 8.26357 25.2514 8.36851 25.2514 8.36851C24.9628 8.55216 24.7792 8.84074 24.4906 9.12932C24.4906 9.12932 24.4906 9.23426 24.5955 9.23426C25.7499 9.23426 27.3764 9.62778 28.4258 10.2837C28.5308 10.2837 28.4258 10.4673 28.3209 10.4673C26.6943 10.0738 24.0971 9.78519 21.3162 10.4673C18.8239 11.0445 16.9874 12.0152 15.6494 12.9596C15.5183 12.9334 15.4396 12.9334 15.5183 12.8547Z" fill="black"/>
<path d="M152.884 17.1571C150.497 17.1571 149.421 18.8886 148.949 19.938C148.66 20.6201 148.66 20.8037 148.477 20.8037C148.188 20.8037 148.372 20.2266 148.582 19.6494C148.87 18.3901 148.687 17.4457 148.687 17.4457H145.329V33.5801H149.946V28.4906C150.523 29.4613 151.494 30.4057 153.015 30.4057C156.373 30.4057 158 27.6248 158 23.7945C157.974 19.4658 155.954 17.1571 152.884 17.1571ZM151.651 27.3362C150.602 27.3362 149.815 25.9982 149.815 24.1618C149.815 22.3254 150.576 20.9874 151.651 20.9874C152.91 20.9874 153.488 22.1417 153.488 24.1618C153.461 26.2868 152.989 27.3362 151.651 27.3362Z" fill="black"/>
<path d="M61.613 17.1572C59.593 17.1572 58.6485 18.7837 58.15 19.7544C57.8615 20.3316 57.8615 20.8038 57.5729 20.8038C57.2843 20.8038 57.4679 20.4103 57.2843 19.5446C56.9957 18.3902 56.025 17.1572 54.0312 17.1572C51.9324 17.1572 50.9617 18.9936 50.5682 19.9381C50.2796 20.6202 50.2796 20.8038 50.0959 20.8038C49.8074 20.8038 49.991 20.2267 50.2009 19.6495C50.4895 18.3902 50.3058 17.4458 50.3058 17.4458H46.9478V30.1172H51.4601V23.7946C51.4601 22.5353 51.9324 21.0137 52.9031 21.0137C53.9525 21.0137 54.1623 21.7745 54.1623 23.2174V30.1172H58.7797V23.7946C58.7797 22.6403 59.2519 21.0137 60.2226 21.0137C61.272 21.0137 61.4819 22.168 61.4819 23.2174V30.0385H65.8893V22.5616C65.8369 19.2822 64.6825 17.1572 61.613 17.1572ZM139.557 17.1572C137.537 17.1572 136.592 18.7837 136.094 19.7544C135.805 20.3316 135.805 20.8038 135.517 20.8038C135.228 20.8038 135.412 20.3316 135.228 19.5446C134.835 18.3902 134.074 17.1572 131.975 17.1572C129.876 17.1572 128.905 18.9936 128.512 19.9381C128.223 20.6202 128.223 20.8038 128.04 20.8038C127.751 20.8038 127.935 20.2267 128.145 19.6495C128.433 18.3902 128.25 17.4458 128.25 17.4458H124.892V30.1172H129.509V23.7946C129.509 22.5353 129.981 21.0137 130.952 21.0137C132.001 21.0137 132.211 21.7745 132.211 23.2174V30.1172H136.828V23.7946C136.828 22.6403 137.301 21.0137 138.271 21.0137C139.321 21.0137 139.531 22.168 139.531 23.2174V30.0385H144.043V22.5616C143.781 19.2822 142.626 17.1572 139.557 17.1572ZM73.7073 17.1572C70.1656 17.1572 67.6471 18.4165 67.6471 18.4165V22.2467C67.6471 22.2467 70.428 20.6202 72.7366 20.6202C74.5731 20.6202 74.7567 21.5909 74.6518 22.4566C74.6518 22.4566 74.1795 22.3517 72.553 22.3517C68.8014 22.3517 66.8862 24.0832 66.8862 26.7591C66.8862 29.3564 68.985 30.4058 70.8215 30.4058C73.4187 30.4058 74.5731 28.6743 74.9404 27.8085C75.2289 27.2314 75.2289 26.8378 75.4126 26.8378C75.7012 26.8378 75.5962 27.1264 75.5962 27.7036C75.5962 28.6743 75.5962 29.4351 75.7799 30.091H79.2691V23.8471C79.1642 19.9381 77.8262 17.1572 73.7073 17.1572ZM72.553 27.1527C71.5036 27.4412 70.9264 27.0477 70.9264 26.3919C70.9264 25.4212 71.9758 24.9489 73.4187 24.9489C74.1008 24.9489 74.678 25.0539 74.678 25.0539C74.6518 25.4212 73.7073 26.8641 72.553 27.1527ZM86.746 13.6155H91.3634V30.1172H86.746C86.746 30.0385 86.746 13.6155 86.746 13.6155ZM96.4529 23.7946C96.4529 22.6403 97.5023 21.5909 99.4175 21.5909C101.516 21.5909 103.248 22.6403 103.641 22.8501V18.4165C103.641 18.4165 102.303 17.1572 99.024 17.1572C95.561 17.1572 92.7014 19.1773 92.7014 23.5847C92.7014 27.9922 95.2986 30.4058 99.024 30.4058C101.91 30.4058 103.72 28.7792 103.72 28.7792V24.5554C103.143 24.844 101.621 25.8934 99.4962 25.8934C97.2137 25.9983 96.4529 24.9489 96.4529 23.7946ZM112.955 17.1572C110.279 17.1572 109.308 19.6495 109.124 20.1217C108.941 20.5939 108.836 20.8038 108.652 20.8038C108.364 20.8038 108.547 20.2267 108.652 19.9381C108.836 19.256 109.334 17.6294 109.334 15.5306C109.334 14.0877 109.151 13.6155 109.151 13.6155H105.215V30.1172H109.833V23.7946C109.833 22.7452 110.226 21.0137 111.381 21.0137C112.351 21.0137 112.64 21.6958 112.64 23.1125V30.1172H117.257V23.4011C117.074 20.148 116.601 17.1572 112.955 17.1572ZM118.621 17.4458V30.1172H123.239V17.4458C123.239 17.4458 122.478 17.918 120.93 17.918C119.382 17.8393 118.621 17.4458 118.621 17.4458Z" fill="black"/>
<path d="M120.93 17.0784C122.466 17.0784 123.711 16.2562 123.711 15.242C123.711 14.2277 122.466 13.4055 120.93 13.4055C119.394 13.4055 118.149 14.2277 118.149 15.242C118.149 16.2562 119.394 17.0784 120.93 17.0784Z" fill="black"/>
<path d="M80.7122 17.4458V30.1172H85.3033V17.4458C85.3033 17.4458 84.5425 17.918 82.9946 17.918C82.9946 17.8393 80.7122 17.4458 80.7122 17.4458Z" fill="black"/>
<path d="M82.9945 17.0784C84.5304 17.0784 85.7754 16.2562 85.7754 15.242C85.7754 14.2277 84.5304 13.4055 82.9945 13.4055C81.4587 13.4055 80.2136 14.2277 80.2136 15.242C80.2136 16.2562 81.4587 17.0784 82.9945 17.0784Z" fill="black"/>
</svg>
