<svg width="80" height="84" viewBox="0 0 80 84" fill="none" xmlns="http://www.w3.org/2000/svg">
<path d="M62.4701 54.7682C62.7116 55.3455 63.2395 56.4858 63.5071 57.0607L62.4701 54.7682ZM69.1037 55.8776C68.9332 55.488 68.4644 54.4403 68.3484 54.1909C68.1022 53.3238 70.5052 49.8007 73.2727 52.1312C73.2727 52.1312 78.0667 60.7643 78.777 65.088C79.66 70.4261 78.0549 77.3511 71.5397 80.6058C67.0606 82.846 64.8636 82.4017 62.1766 81.366C59.4872 80.3278 45.2211 67.9364 43.5307 67.1643C41.8404 66.3899 43.1259 63.5795 45.5052 63.4417C47.8844 63.3039 53.2656 64.3824 54.8305 66.1C55.1027 66.397 47.5127 49.929 46.49 47.7315C45.008 44.4673 50.3631 41.828 51.9019 45.2133L57.8726 58.4861L56.277 54.9178C56.277 54.9178 57.9886 51.0978 61.8593 53.4212L62.4654 54.7563C62.4441 54.7064 62.4228 54.6589 62.4062 54.6161C62.0984 53.8488 65.2069 49.9717 67.8868 53.2478L69.1037 55.88V55.8776Z" fill="#FFAD00"/>
<path d="M31.2699 21.7228V31.6245H1V8.50943C3.89299 5.57788 5.51704 3.93155 8.4124 1H31.2722V21.7252L31.2699 21.7228ZM27.1198 27.4196V5.2049H10.1288L5.15009 10.2508V27.4196H27.1198Z" fill="#FFAD00"/>
<path d="M38.1781 73.7758C40.3798 73.7615 42.5318 73.5406 44.6199 73.1272" stroke="#222222" stroke-width="2" stroke-miterlimit="10"/>
<path d="M3.53555 34.7082C3.38403 36.0291 3.30591 37.3737 3.30591 38.7397C3.30591 44.9187 4.88735 50.7225 7.6667 55.766C13.5474 66.4493 24.7997 73.695 37.7282 73.7758" stroke="#222222" stroke-width="2" stroke-miterlimit="10"/>
<path d="M38.1781 3.70111C51.1161 3.78188 62.3708 11.0347 68.2515 21.7228C71.0237 26.7592 72.6028 32.5629 72.6028 38.7372C72.6028 41.8422 72.2027 44.8545 71.4523 47.7196" stroke="#222222" stroke-width="2" stroke-miterlimit="10"/>
<path d="M34.312 3.89116C35.4342 3.77001 36.5753 3.70586 37.7282 3.70111" stroke="#222222" stroke-width="2" stroke-miterlimit="10"/>
<path d="M38.1781 73.7758C38.1023 73.7782 38.0313 73.7782 37.9579 73.7782H37.9555C37.8798 73.7782 37.8064 73.7782 37.7306 73.7758C31.2841 73.6095 25.6852 66.3875 22.7496 55.766C21.3528 50.7248 20.5597 44.9164 20.5597 38.7397C20.5597 37.3784 20.5976 36.0314 20.6757 34.7082" stroke="#222222" stroke-width="2" stroke-miterlimit="10"/>
<path d="M37.7281 3.70117C37.8039 3.69879 37.8773 3.69879 37.9531 3.69879H37.9554C38.0312 3.69879 38.1022 3.69879 38.1756 3.70117C44.6245 3.86746 50.2258 11.0966 53.1638 21.7229C54.5558 26.7592 55.3489 32.563 55.3489 38.7373C55.3489 40.089 55.311 41.4194 55.2352 42.7307" stroke="#222222" stroke-width="2" stroke-miterlimit="10"/>
<path d="M54.3215 50.6281V50.625" stroke="#222222" stroke-width="2" stroke-miterlimit="10"/>
<path d="M3.30591 38.7397H20.5573H37.9555H55.3514H72.6028" stroke="#222222" stroke-width="2" stroke-miterlimit="10"/>
<path d="M37.9556 3.69879V21.7229V38.7397V55.7659V73.7805" stroke="#222222" stroke-width="2" stroke-miterlimit="10"/>
<path d="M68.2514 21.7228H53.1662H37.9555H37.9531H31.2699" stroke="#222222" stroke-width="2" stroke-miterlimit="10"/>
<path d="M7.65723 55.7659H7.6667H22.7496H37.9532H37.9555H46.3764" stroke="#222222" stroke-width="2" stroke-miterlimit="10"/>
<path d="M31.2699 6.37847V31.6245H1V8.50943C3.89299 5.57788 5.51704 3.93155 8.4124 1H31.2722V6.37847H31.2699Z" stroke="#222222" stroke-width="2" stroke-miterlimit="10"/>
<path d="M9.63171 19.4066H16.4523" stroke="#222222" stroke-width="2" stroke-miterlimit="10"/>
<path d="M18.0714 22.6827L16.6083 19.3354L12.9909 11.0634L9.39243 19.2997L7.91516 22.6827" stroke="#222222" stroke-width="2" stroke-miterlimit="10"/>
<path d="M23.0834 9.61176V23.2242" stroke="#222222" stroke-width="2" stroke-miterlimit="10"/>
<path d="M69.1037 55.8776C68.9332 55.488 68.4644 54.4403 68.3484 54.1909C68.1022 53.3238 70.5052 49.8007 73.2727 52.1312C73.2727 52.1312 78.0667 60.7643 78.777 65.088C79.66 70.4261 78.0549 77.3511 71.5397 80.6058C67.0606 82.846 64.8636 82.4017 62.1766 81.366C59.4872 80.3278 45.2211 67.9364 43.5307 67.1643C41.8404 66.3899 43.1259 63.5795 45.5052 63.4417C47.8844 63.3039 53.2656 64.3824 54.8305 66.1C55.1027 66.397 47.5127 49.929 46.49 47.7315C45.008 44.4673 50.3631 41.828 51.9019 45.2133L57.8726 58.4861L56.277 54.9178C56.277 54.9178 57.9886 51.0978 61.8593 53.4212L62.4654 54.7563" stroke="#222222" stroke-width="2" stroke-miterlimit="10"/>
<path d="M69.1727 56.028L69.156 55.9872C69.156 55.9872 69.1464 55.9704 69.1416 55.9584" stroke="#222222" stroke-width="2" stroke-miterlimit="10"/>
<path d="M62.4632 54.7539C62.4419 54.704 62.4205 54.6565 62.404 54.6137C62.0962 53.8464 65.2046 49.9693 67.8846 53.2453L69.1014 55.8775L69.1393 55.9583" stroke="#222222" stroke-width="2" stroke-miterlimit="10"/>
<path d="M63.5071 57.0606C63.2396 56.4857 62.7093 55.3454 62.4702 54.7681" stroke="#222222" stroke-width="2" stroke-miterlimit="10"/>
<path d="M62.4702 54.7681L63.5071 57.0606L63.6042 57.2721L63.6445 57.3623" stroke="#222222" stroke-width="2" stroke-miterlimit="10"/>
</svg>
