<svg width="156" height="38" viewBox="0 0 156 38" fill="none" xmlns="http://www.w3.org/2000/svg">
<path d="M116.912 5.24506H112.745V20.1195H116.912V5.24506Z" fill="#222222"/>
<path d="M125.018 0.0933304H120.851V20.1297H125.018V0.0933304Z" fill="#222222"/>
<path d="M133.113 0.0933304H128.946V20.1297H133.113V0.0933304Z" fill="#222222"/>
<path d="M116.912 0.0932007H112.745V3.35832H116.912V0.0932007Z" fill="#222222"/>
<path d="M100.079 12.1069L110.807 20.1297H105.209L95.1342 12.5837V20.1297H90.9777V0.0933304H95.1342V11.6197L105.209 4.07367H110.807L100.079 12.1069Z" fill="#222222"/>
<path d="M81.7004 20.1297H66.7431V16.6573H81.7004C82.5607 16.6573 83.2656 15.9524 83.2656 15.0921V12.7184C83.2656 11.8581 82.5607 11.1532 81.7004 11.1532H71.2106C68.4326 11.1532 66.173 8.90394 66.173 6.11564V5.12055C66.173 2.34261 68.4223 0.0829468 71.2106 0.0829468H77.3262V3.55537H71.2106C70.3502 3.55537 69.6454 4.26021 69.6454 5.12055V6.11564C69.6454 6.97597 70.3502 7.68081 71.2106 7.68081H81.7004C84.4783 7.68081 86.738 9.93011 86.738 12.7184V15.0921C86.738 17.87 84.4887 20.1297 81.7004 20.1297Z" fill="#222222"/>
<path d="M151.761 20.1298H135.456V16.6574H151.751C152.186 16.6574 152.549 16.2946 152.549 15.8592V14.4806C152.549 14.0453 152.186 13.6825 151.751 13.6825H139.716C137.374 13.6825 135.467 11.7752 135.467 9.43263V8.23024C135.467 5.88765 137.374 3.98041 139.716 3.98041H146.599V7.45283H139.716C139.281 7.45283 138.918 7.81563 138.918 8.25097V9.45336C138.918 9.88871 139.281 10.2515 139.716 10.2515H151.751C154.093 10.2515 156 12.1587 156 14.5013V15.8799C156.011 18.2225 154.104 20.1298 151.761 20.1298Z" fill="#222222"/>
<path d="M31.2829 0.0932999V20.1297H27.5928V5.66991L17.4036 20.1297H13.8897L3.70046 5.66991V20.1297H0V0.0932999H3.60718L3.70046 0.217688L15.6415 17.1652L27.5928 0.217688L27.6757 0.0932999H31.2829Z" fill="#FFAD00"/>
<path d="M27.6752 0.0932999L27.5928 0.216948V0.0932999H27.6752Z" fill="#FFAD00"/>
<path d="M39.5441 0.0932999H35.8436V20.1297H39.5441V0.0932999Z" fill="#FFAD00"/>
<path d="M62.8249 1.52588e-05V3.70048H54.6673V20.1297H50.9772V3.70048H42.7988V1.52588e-05H62.8249Z" fill="#FFAD00"/>
<path d="M14.2001 29.6349H15.0708V35.8749H14.2001V29.6349ZM14.708 35.0561H16.3872C16.8226 35.0561 17.1543 34.9628 17.3512 34.7969C17.5482 34.6311 17.6518 34.3927 17.6518 34.0921C17.6518 33.864 17.6207 33.6878 17.5482 33.5324C17.4756 33.3769 17.3512 33.2628 17.2061 33.1903C17.061 33.1177 16.8433 33.0659 16.6049 33.0659H14.6977V32.2678H16.6049C16.9159 32.2678 17.175 32.1952 17.3409 32.0397C17.5067 31.8842 17.5793 31.6666 17.5793 31.366C17.5793 31.055 17.486 30.827 17.3098 30.6715C17.1335 30.516 16.864 30.4434 16.4805 30.4434H14.6873V29.6349H16.6256C17.0299 29.6349 17.3616 29.7075 17.6311 29.8423C17.9006 29.977 18.1079 30.1739 18.2323 30.4331C18.367 30.6922 18.4292 30.9928 18.4292 31.3349C18.4292 31.5422 18.3878 31.7599 18.3048 31.9361C18.2116 32.1123 18.0975 32.2781 17.9317 32.4129C17.7658 32.5476 17.5585 32.6409 17.2994 32.6824C17.5585 32.7135 17.7658 32.8068 17.9421 32.9519C18.1183 33.0866 18.253 33.2628 18.367 33.4805C18.4603 33.6878 18.5122 33.9159 18.5122 34.175C18.5122 34.5171 18.4396 34.8177 18.2841 35.0768C18.1286 35.3359 17.9213 35.5225 17.6518 35.678C17.3823 35.8128 17.0506 35.8853 16.6878 35.8853H14.6769V35.0457H14.6873L14.708 35.0561Z" fill="#222222"/>
<path d="M20.6475 34.1336C20.6475 34.4445 20.7201 34.6933 20.8859 34.8591C21.0518 35.025 21.2591 35.1183 21.5597 35.1183C21.8603 35.1183 22.0676 35.0457 22.2231 34.8902C22.3786 34.7348 22.4615 34.5274 22.4615 34.2476L22.5237 35.1805C22.4304 35.4085 22.2853 35.5847 22.078 35.7402C21.8707 35.8853 21.6115 35.9682 21.3316 35.9682C20.8341 35.9682 20.461 35.8024 20.1914 35.5018C19.9219 35.1908 19.7872 34.7348 19.7872 34.1647V31.4593H20.6579V34.1543L20.6475 34.1336ZM22.4615 31.4282H23.3322V35.8749H22.4615V31.4282Z" fill="#222222"/>
<path d="M24.6592 29.6348H25.5299V30.5055H24.6592V29.6348ZM24.6592 31.428H25.5299V35.8748H24.6592V31.428Z" fill="#222222"/>
<path d="M27.7369 34.7138C27.7369 34.8175 27.768 34.9108 27.8095 34.973C27.8509 35.0352 27.9339 35.0663 28.0064 35.0663H28.4107V35.8955H27.9028C27.5711 35.8955 27.3119 35.7918 27.1357 35.5845C26.9595 35.3772 26.8662 35.087 26.8662 34.7138V29.6348H27.7369V34.7242V34.7138Z" fill="#222222"/>
<path d="M29.9764 35.7402C29.7483 35.6054 29.5721 35.3981 29.4477 35.1286C29.3233 34.8591 29.2715 34.5274 29.2715 34.1543V33.1799C29.2715 32.8068 29.3337 32.4751 29.4477 32.2056C29.5617 31.9361 29.7379 31.7288 29.9556 31.594C30.1837 31.4593 30.4532 31.3867 30.7641 31.3867C31.0233 31.3867 31.272 31.4593 31.4897 31.594C31.7177 31.7288 31.8836 31.9257 32.0183 32.1641L31.9251 33.0659C31.9251 32.869 31.894 32.7238 31.8214 32.5891C31.7488 32.4543 31.6556 32.3507 31.5208 32.2885C31.3861 32.2159 31.2306 32.1848 31.044 32.1848C30.7538 32.1848 30.5361 32.2781 30.3702 32.4543C30.2044 32.6306 30.1318 32.8897 30.1318 33.2007V34.1646C30.1318 34.4756 30.2044 34.7347 30.3702 34.911C30.5361 35.0872 30.7434 35.1805 31.044 35.1805C31.2202 35.1805 31.3861 35.1494 31.5208 35.0768C31.6556 35.0042 31.7488 34.9006 31.8214 34.7658C31.894 34.6311 31.9251 34.4652 31.9251 34.2683L31.9872 35.2012C31.894 35.4292 31.7488 35.6054 31.5519 35.7609C31.355 35.906 31.1062 35.989 30.816 35.989C30.4843 35.9786 30.2044 35.8957 29.9764 35.7609V35.7402ZM31.9251 29.6349H32.7958V35.8749H31.9251V29.6349Z" fill="#222222"/>
<path d="M34.1221 29.6348H34.9928V30.5055H34.1221V29.6348ZM34.1221 31.428H34.9928V35.8748H34.1221V31.428Z" fill="#222222"/>
<path d="M36.3408 31.4282H37.2114V35.8749H36.3408V31.4282ZM39.0461 33.1903C39.0461 32.8793 38.9736 32.6306 38.8077 32.4647C38.6419 32.2989 38.4138 32.2056 38.1132 32.2056C37.8126 32.2056 37.6053 32.2781 37.4499 32.4336C37.2944 32.5891 37.2114 32.7964 37.2114 33.0659L37.1182 32.2056C37.2529 31.9361 37.4291 31.7288 37.6572 31.594C37.8852 31.4489 38.1236 31.366 38.3931 31.366C38.8699 31.366 39.2534 31.5318 39.5229 31.8324C39.7924 32.1434 39.9168 32.5995 39.9168 33.1696V35.8749H39.0461V33.1799V33.1903Z" fill="#222222"/>
<path d="M41.824 35.7402C41.596 35.6055 41.4198 35.3981 41.2954 35.1286C41.171 34.8591 41.1192 34.5274 41.1192 34.1543V33.1799C41.1192 32.8068 41.1814 32.4751 41.2954 32.2056C41.4198 31.9361 41.5856 31.7288 41.8033 31.594C42.0313 31.4593 42.3008 31.3867 42.6118 31.3867C42.8709 31.3867 43.1197 31.4593 43.3374 31.594C43.5654 31.7288 43.7313 31.9257 43.866 32.1641L43.7727 33.0659C43.7727 32.869 43.7416 32.7238 43.6691 32.5891C43.5965 32.4543 43.5032 32.3507 43.3685 32.2885C43.2337 32.2159 43.0782 32.1848 42.8917 32.1848C42.6014 32.1848 42.3838 32.2781 42.2179 32.4544C42.0521 32.6306 41.9795 32.8897 41.9795 33.2007V34.1647C41.9795 34.4756 42.0521 34.7348 42.2179 34.911C42.3838 35.0872 42.5911 35.1805 42.8917 35.1805C43.0679 35.1805 43.2337 35.1494 43.3685 35.0768C43.5032 35.0043 43.5965 34.9006 43.6691 34.7658C43.7416 34.6311 43.7727 34.4653 43.7727 34.2683L43.8349 35.2012C43.7416 35.4292 43.5965 35.6054 43.3996 35.7609C43.2026 35.906 42.9539 35.989 42.6636 35.989C42.3216 35.9786 42.0521 35.8957 41.824 35.7609V35.7402ZM42.2283 37.6785C42.2283 37.6785 42.0935 37.6163 41.8344 37.5023C41.5649 37.3779 41.3679 37.2017 41.2228 36.9737L41.8137 36.4347C41.938 36.5798 42.0728 36.7249 42.2179 36.7975C42.3838 36.8908 42.5496 36.9322 42.7155 36.9322C43.0471 36.9322 43.3063 36.8389 43.4929 36.6627C43.6691 36.4865 43.7624 36.217 43.7624 35.8853V31.4385H44.6331V35.7506C44.6331 36.1548 44.5605 36.4969 44.405 36.7975C44.2599 37.0877 44.0422 37.3054 43.7624 37.4609C43.4721 37.606 43.1301 37.6889 42.7258 37.6889H42.2283V37.6785Z" fill="#222222"/>
<path d="M49.7536 35.9371C49.7536 35.9371 49.6189 35.906 49.3597 35.8438C49.1006 35.7817 48.8622 35.7091 48.6341 35.5847C48.4061 35.4603 48.1988 35.3256 48.0019 35.1494L48.5305 34.486C48.7585 34.6933 49.0073 34.8488 49.2768 34.9524C49.5463 35.0561 49.8469 35.0975 50.1682 35.0975C50.6036 35.0975 50.9353 35.0042 51.1737 34.8384C51.4121 34.6725 51.5365 34.4341 51.5365 34.1336C51.5365 33.9262 51.4743 33.7397 51.3706 33.6256C51.267 33.5013 51.1322 33.3976 50.9456 33.3354C50.7798 33.2732 50.5517 33.211 50.2822 33.1696H50.1579C49.7536 33.0763 49.4323 33.0037 49.1835 32.9104C48.9244 32.8171 48.7171 32.6513 48.5409 32.4129C48.3646 32.1745 48.2713 31.8428 48.2713 31.3867C48.2713 30.9928 48.3646 30.6611 48.5305 30.3916C48.6963 30.1221 48.9347 29.9148 49.2561 29.7801C49.567 29.6453 49.9609 29.5728 50.3963 29.5728C50.6036 29.5728 50.8212 29.6038 51.0286 29.6453C51.2359 29.6868 51.4328 29.7697 51.6401 29.8526C51.8371 29.9459 52.0444 30.0599 52.2309 30.2154L51.7852 30.9099C51.5572 30.7337 51.3395 30.6093 51.1115 30.516C50.8834 30.4227 50.6658 30.3813 50.4377 30.3813C50.0335 30.3813 49.7121 30.4745 49.4945 30.6404C49.2768 30.8062 49.1524 31.0447 49.1524 31.366C49.1524 31.5733 49.2146 31.7391 49.3286 31.8739C49.453 31.9983 49.5878 32.0812 49.764 32.1434C49.9402 32.2056 50.189 32.2678 50.4896 32.3196H50.5517C50.5517 32.3196 50.5828 32.3196 50.5932 32.33C50.6036 32.33 50.6243 32.33 50.6347 32.3403C50.9975 32.4129 51.2981 32.5062 51.5365 32.6098C51.7749 32.7135 51.9822 32.8793 52.1377 33.1177C52.3035 33.3561 52.3761 33.6775 52.3761 34.0817C52.3761 34.4756 52.2828 34.8073 52.1169 35.0768C51.9511 35.3463 51.6919 35.5536 51.3706 35.6884C51.0389 35.8231 50.645 35.8957 50.1786 35.8957C49.9091 35.8957 49.7536 35.8957 49.7536 35.8957V35.9371Z" fill="#222222"/>
<path d="M53.7236 29.6349H54.5943V35.8749H53.7236V29.6349ZM54.0967 34.1854L56.3771 31.4178H57.4033L54.0345 35.2219L54.0967 34.1854ZM55.1333 33.2939L55.693 32.7031L57.6313 35.8542H56.6881L55.1436 33.2836L55.1333 33.2939Z" fill="#222222"/>
<path d="M58.3673 29.6349H59.238V30.5056H58.3673V29.6349ZM58.3673 31.4282H59.238V35.8749H58.3673V31.4282Z" fill="#222222"/>
<path d="M61.4459 34.714C61.4459 34.8177 61.477 34.911 61.5185 34.9731C61.5599 35.0353 61.6428 35.0664 61.7154 35.0664H62.1196V35.8957H61.6117C61.28 35.8957 61.0209 35.792 60.8447 35.5847C60.6685 35.3774 60.5752 35.0872 60.5752 34.714V29.6349H61.4459V34.7244V34.714Z" fill="#222222"/>
<path d="M63.985 34.7138C63.985 34.8175 64.0161 34.9108 64.0575 34.973C64.099 35.0352 64.1819 35.0663 64.2545 35.0663H64.6587V35.8955H64.1508C63.8191 35.8955 63.56 35.7918 63.3838 35.5845C63.2075 35.3772 63.1143 35.087 63.1143 34.7138V29.6348H63.985V34.7242V34.7138Z" fill="#222222"/>
<path d="M73.3662 29.6349H74.2369V35.8749H73.3662V29.6349ZM73.8741 35.0561H75.5533C75.9886 35.0561 76.3203 34.9628 76.5173 34.7969C76.7142 34.6311 76.8179 34.3927 76.8179 34.0921C76.8179 33.864 76.7868 33.6878 76.7142 33.5324C76.6417 33.3769 76.5173 33.2628 76.3722 33.1903C76.227 33.1177 76.0094 33.0659 75.771 33.0659H73.8637V32.2678H75.771C76.0819 32.2678 76.3411 32.1952 76.5069 32.0397C76.6728 31.8842 76.7453 31.6666 76.7453 31.366C76.7453 31.055 76.652 30.827 76.4758 30.6715C76.2996 30.516 76.0301 30.4434 75.6466 30.4434H73.8534V29.6349H75.7917C76.196 29.6349 76.5276 29.7075 76.7971 29.8423C77.0666 29.977 77.274 30.1739 77.3983 30.4331C77.5331 30.6922 77.5953 30.9928 77.5953 31.3349C77.5953 31.5422 77.5538 31.7599 77.4709 31.9361C77.3776 32.1123 77.2636 32.2781 77.0977 32.4129C76.9319 32.5476 76.7246 32.6409 76.4654 32.6824C76.7246 32.7135 76.9319 32.8068 77.1081 32.9519C77.2843 33.0866 77.4191 33.2628 77.5331 33.4805C77.6264 33.6878 77.6782 33.9159 77.6782 34.175C77.6782 34.5171 77.6056 34.8177 77.4502 35.0768C77.3051 35.3359 77.0874 35.5225 76.8179 35.678C76.5484 35.8128 76.2167 35.8853 75.8539 35.8853H73.843V35.0457H73.8534L73.8741 35.0561Z" fill="#222222"/>
<path d="M79.8134 34.1336C79.8134 34.4445 79.8859 34.6933 80.0518 34.8591C80.2176 35.025 80.4249 35.1183 80.7255 35.1183C81.0261 35.1183 81.2334 35.0457 81.3889 34.8902C81.5444 34.7348 81.6273 34.5274 81.6273 34.2476L81.6895 35.1805C81.5962 35.4085 81.4511 35.5847 81.2438 35.7402C81.0365 35.8853 80.7773 35.9682 80.4975 35.9682C79.9999 35.9682 79.6268 35.8024 79.3573 35.5018C79.0878 35.1908 78.953 34.7348 78.953 34.1647V31.4593H79.8237V34.1543L79.8134 34.1336ZM81.6273 31.4282H82.498V35.8749H81.6273V31.4282Z" fill="#222222"/>
<path d="M83.8252 29.6348H84.6959V30.5055H83.8252V29.6348ZM83.8252 31.428H84.6959V35.8748H83.8252V31.428Z" fill="#222222"/>
<path d="M86.9029 34.7138C86.9029 34.8175 86.934 34.9108 86.9755 34.973C87.0169 35.0352 87.0999 35.0663 87.1724 35.0663H87.5767V35.8955H87.0688C86.7371 35.8955 86.4779 35.7918 86.3017 35.5845C86.1255 35.3772 86.0322 35.087 86.0322 34.7138V29.6348H86.9029V34.7242V34.7138Z" fill="#222222"/>
<path d="M89.1422 35.7402C88.9141 35.6054 88.7379 35.3981 88.6135 35.1286C88.4891 34.8591 88.4373 34.5274 88.4373 34.1543V33.1799C88.4373 32.8068 88.4995 32.4751 88.6135 32.2056C88.7276 31.9361 88.9038 31.7288 89.1214 31.594C89.3495 31.4593 89.619 31.3867 89.93 31.3867C90.1891 31.3867 90.4379 31.4593 90.6555 31.594C90.8836 31.7288 91.0494 31.9257 91.1842 32.1641L91.0909 33.0659C91.0909 32.869 91.0598 32.7238 90.9872 32.5891C90.9147 32.4543 90.8214 32.3507 90.6866 32.2885C90.5519 32.2159 90.3964 32.1848 90.2098 32.1848C89.9196 32.1848 89.7019 32.2781 89.5361 32.4543C89.3702 32.6306 89.2977 32.8897 89.2977 33.2007V34.1646C89.2977 34.4756 89.3702 34.7347 89.5361 34.911C89.7019 35.0872 89.9092 35.1805 90.2098 35.1805C90.386 35.1805 90.5519 35.1494 90.6866 35.0768C90.8214 35.0042 90.9147 34.9006 90.9872 34.7658C91.0598 34.6311 91.0909 34.4652 91.0909 34.2683L91.1531 35.2012C91.0598 35.4292 90.9147 35.6054 90.7177 35.7609C90.5208 35.906 90.272 35.989 89.9818 35.989C89.6501 35.9786 89.3702 35.8957 89.1422 35.7609V35.7402ZM91.0909 29.6349H91.9616V35.8749H91.0909V29.6349Z" fill="#222222"/>
<path d="M93.2881 29.6348H94.1588V30.5055H93.2881V29.6348ZM93.2881 31.428H94.1588V35.8748H93.2881V31.428Z" fill="#222222"/>
<path d="M95.4961 31.4284H96.3668V35.8752H95.4961V31.4284ZM98.2015 33.1905C98.2015 32.8796 98.1289 32.6308 97.9631 32.4649C97.7972 32.2991 97.5692 32.2058 97.2686 32.2058C96.968 32.2058 96.7607 32.2784 96.6052 32.4339C96.4601 32.579 96.3668 32.7966 96.3668 33.0661L96.2735 32.2058C96.4083 31.9363 96.5845 31.729 96.8125 31.5942C97.0405 31.4491 97.279 31.3662 97.5485 31.3662C98.0253 31.3662 98.4088 31.5321 98.6783 31.8327C98.9478 32.1436 99.0722 32.5997 99.0722 33.1698V35.8752H98.2015V33.1802V33.1905Z" fill="#222222"/>
<path d="M100.979 35.7402C100.751 35.6055 100.575 35.3981 100.451 35.1286C100.326 34.8591 100.274 34.5275 100.274 34.1543V33.1799C100.274 32.8068 100.337 32.4751 100.451 32.2056C100.565 31.9361 100.741 31.7288 100.959 31.594C101.187 31.4593 101.456 31.3867 101.767 31.3867C102.026 31.3867 102.275 31.4593 102.493 31.594C102.721 31.7288 102.887 31.9257 103.021 32.1641L102.928 33.0659C102.928 32.869 102.897 32.7239 102.824 32.5891C102.752 32.4544 102.658 32.3507 102.524 32.2885C102.389 32.216 102.233 32.1849 102.047 32.1849C101.757 32.1849 101.539 32.2781 101.373 32.4544C101.207 32.6306 101.135 32.8897 101.135 33.2007V34.1647C101.135 34.4756 101.207 34.7348 101.373 34.911C101.539 35.0872 101.746 35.1805 102.047 35.1805C102.223 35.1805 102.389 35.1494 102.524 35.0768C102.658 35.0043 102.752 34.9006 102.824 34.7659C102.897 34.6311 102.928 34.4653 102.928 34.2683L102.99 35.2012C102.897 35.4292 102.752 35.6054 102.555 35.7609C102.358 35.906 102.109 35.989 101.819 35.989C101.477 35.9786 101.207 35.8957 100.979 35.7609V35.7402ZM101.384 37.6785C101.384 37.6785 101.249 37.6164 100.99 37.5023C100.72 37.3779 100.523 37.2017 100.378 36.9737L100.969 36.4347C101.093 36.5798 101.228 36.7249 101.373 36.7975C101.539 36.8908 101.705 36.9322 101.871 36.9322C102.202 36.9322 102.462 36.8389 102.648 36.6627C102.824 36.4865 102.918 36.217 102.918 35.8853V31.4385H103.788V35.7506C103.788 36.1548 103.716 36.4969 103.56 36.7975C103.415 37.0877 103.197 37.3054 102.918 37.4609C102.627 37.606 102.285 37.6889 101.881 37.6889H101.384V37.6785Z" fill="#222222"/>
<path d="M108.961 35.9373C108.961 35.9373 108.795 35.844 108.463 35.6471C108.132 35.4501 107.872 35.1806 107.696 34.8385C107.52 34.4965 107.427 34.0922 107.427 33.6258V31.9155C107.427 31.4491 107.52 31.0448 107.696 30.7027C107.872 30.3607 108.132 30.0912 108.463 29.8942C108.795 29.6973 109.168 29.604 109.603 29.604C109.966 29.604 110.298 29.6766 110.599 29.832C110.899 29.9772 111.158 30.2052 111.345 30.4747C111.542 30.7649 111.677 31.0759 111.749 31.4491H110.847C110.785 31.2521 110.702 31.0863 110.578 30.9204C110.453 30.7753 110.308 30.6509 110.132 30.5576C109.966 30.4643 109.79 30.4332 109.603 30.4332C109.344 30.4332 109.127 30.4954 108.94 30.6095C108.743 30.7338 108.598 30.91 108.494 31.1174C108.391 31.3454 108.329 31.5942 108.329 31.8844V33.5947C108.329 33.8849 108.391 34.1337 108.494 34.3617C108.598 34.5898 108.754 34.7556 108.94 34.8696C109.137 34.994 109.365 35.0459 109.603 35.0459C109.78 35.0459 109.966 35.0044 110.143 34.9215C110.308 34.8489 110.453 34.7245 110.588 34.5794C110.713 34.4343 110.796 34.2477 110.858 34.0404H111.76C111.687 34.4136 111.552 34.7349 111.355 35.0148C111.148 35.305 110.91 35.5123 110.609 35.6574C110.308 35.8025 109.977 35.8855 109.635 35.8855C109.189 35.9166 108.961 35.9166 108.961 35.9166V35.9373Z" fill="#222222"/>
<path d="M113.107 35.5847C112.838 35.3567 112.703 35.0146 112.703 34.5482C112.703 34.1128 112.827 33.7811 113.076 33.5531C113.325 33.3251 113.709 33.2214 114.206 33.2214H115.471L115.533 33.9263H114.206C113.978 33.9263 113.802 33.9677 113.698 34.0714C113.574 34.175 113.532 34.3305 113.532 34.5378C113.532 34.7659 113.605 34.9317 113.76 35.0354C113.916 35.139 114.133 35.2012 114.434 35.2012C114.766 35.2012 115.025 35.1701 115.18 35.0975C115.336 35.025 115.419 34.9213 115.419 34.7659L115.512 35.3981C115.44 35.5225 115.346 35.6262 115.222 35.6987C115.097 35.7713 114.983 35.8335 114.828 35.8749C114.683 35.9164 114.517 35.9372 114.33 35.9372C113.771 35.9268 113.366 35.8128 113.097 35.5744L113.107 35.5847ZM115.419 33.0452C115.419 32.755 115.346 32.5373 115.18 32.3714C115.035 32.2056 114.807 32.133 114.517 32.133C114.341 32.133 114.175 32.1641 113.988 32.2056C113.823 32.2678 113.677 32.3403 113.543 32.4336L112.91 31.9983C113.076 31.8013 113.304 31.6355 113.574 31.5318C113.843 31.4074 114.165 31.366 114.486 31.366C114.859 31.366 115.18 31.4282 115.429 31.5629C115.678 31.6977 115.896 31.8739 116.03 32.133C116.165 32.3714 116.238 32.672 116.238 33.0245V35.8749H115.408V33.0452H115.419Z" fill="#222222"/>
<path d="M117.585 31.4282H118.456V35.8749H117.585V31.4282ZM119.731 32.2678C119.606 32.2263 119.472 32.1952 119.326 32.1952C119.057 32.1952 118.829 32.2678 118.684 32.4232C118.539 32.5787 118.456 32.786 118.456 33.0555L118.362 32.1952C118.497 31.9257 118.673 31.7288 118.891 31.5836C119.098 31.4385 119.337 31.3556 119.617 31.3556C119.814 31.3556 120.011 31.3867 120.176 31.4489C120.342 31.5111 120.477 31.594 120.612 31.708L120.042 32.4751C119.969 32.4025 119.865 32.33 119.741 32.2781L119.731 32.2678Z" fill="#222222"/>
<path d="M122.446 35.9372C122.446 35.9372 122.301 35.8646 122.011 35.7091C121.72 35.5536 121.503 35.3359 121.347 35.0354C121.202 34.7348 121.119 34.372 121.119 33.9574V33.4598C121.119 33.0245 121.192 32.6513 121.347 32.33C121.503 32.0086 121.71 31.791 121.99 31.6251C122.27 31.4593 122.601 31.3867 122.995 31.3867C123.389 31.3867 123.69 31.48 123.939 31.6769C124.198 31.8532 124.405 32.1227 124.54 32.4855C124.674 32.8275 124.747 33.2525 124.747 33.75V34.0403H121.741V33.3354H123.907C123.876 32.9726 123.783 32.6928 123.617 32.4958C123.451 32.2989 123.244 32.1952 122.975 32.1952C122.643 32.1952 122.384 32.2989 122.208 32.5269C122.031 32.7342 121.938 33.0556 121.938 33.4391V34.0092C121.938 34.3823 122.031 34.6518 122.228 34.8488C122.425 35.0457 122.695 35.1494 123.057 35.1494C123.234 35.1494 123.4 35.1183 123.586 35.0457C123.762 34.9732 123.918 34.8799 124.053 34.7451L124.623 35.3152C124.395 35.5225 124.156 35.6884 123.887 35.8128C123.617 35.9371 123.327 35.989 123.057 35.989C122.653 35.9475 122.446 35.9475 122.446 35.9475V35.9372Z" fill="#222222"/>
<path d="M127.163 35.9371C127.163 35.9371 127.018 35.8646 126.727 35.7091C126.437 35.5536 126.219 35.3359 126.064 35.0353C125.919 34.7347 125.836 34.372 125.836 33.9573V33.4598C125.836 33.0245 125.908 32.6513 126.064 32.33C126.219 32.0086 126.427 31.791 126.707 31.6251C126.986 31.4593 127.318 31.3867 127.712 31.3867C128.106 31.3867 128.407 31.48 128.655 31.6769C128.914 31.8532 129.122 32.1227 129.256 32.4854C129.391 32.8275 129.464 33.2525 129.464 33.75V34.0403H126.458V33.3354H128.624C128.593 32.9726 128.5 32.6928 128.334 32.4958C128.168 32.2989 127.961 32.1952 127.691 32.1952C127.36 32.1952 127.1 32.2989 126.924 32.5269C126.748 32.7342 126.655 33.0556 126.655 33.4391V34.0092C126.655 34.3823 126.748 34.6518 126.945 34.8488C127.142 35.0457 127.411 35.1494 127.774 35.1494C127.95 35.1494 128.116 35.1183 128.303 35.0457C128.479 34.9732 128.635 34.8799 128.769 34.7451L129.339 35.3152C129.111 35.5225 128.873 35.6884 128.603 35.8128C128.334 35.9371 128.044 35.989 127.774 35.989C127.349 35.9475 127.163 35.9475 127.163 35.9475V35.9371Z" fill="#222222"/>
<path d="M130.646 31.4282H131.516V35.8749H130.646V31.4282ZM132.812 32.2678C132.688 32.2263 132.553 32.1952 132.408 32.1952C132.138 32.1952 131.91 32.2678 131.765 32.4232C131.62 32.5787 131.537 32.786 131.537 33.0555L131.444 32.1952C131.579 31.9257 131.755 31.7288 131.972 31.5836C132.18 31.4385 132.418 31.3556 132.698 31.3556C132.895 31.3556 133.092 31.3867 133.258 31.4489C133.424 31.5111 133.558 31.594 133.693 31.708L133.123 32.4751C133.03 32.4025 132.947 32.33 132.822 32.2781L132.812 32.2678Z" fill="#222222"/>
<path d="M135.579 35.9371C135.579 35.9371 135.455 35.906 135.237 35.8646C135.009 35.8231 134.792 35.7298 134.595 35.6365C134.398 35.5329 134.201 35.4085 134.035 35.2426L134.564 34.6103C134.802 34.7866 135.04 34.9213 135.289 35.0146C135.538 35.1079 135.756 35.1494 135.994 35.1494C136.336 35.1494 136.595 35.0872 136.772 34.9835C136.937 34.8798 137.031 34.714 137.031 34.5067C137.031 34.3719 136.989 34.2476 136.896 34.1957C136.803 34.1232 136.689 34.0713 136.554 34.0506C136.419 34.0195 136.222 34.0092 135.963 33.9884H135.756C135.465 33.9573 135.227 33.9262 135.02 33.864C134.823 33.8019 134.657 33.6878 134.522 33.522C134.387 33.3561 134.325 33.1177 134.325 32.7964C134.325 32.4751 134.387 32.2263 134.522 32.019C134.657 31.8117 134.833 31.6562 135.092 31.5525C135.351 31.4489 135.662 31.4074 136.056 31.4074C136.284 31.4074 136.502 31.4178 136.72 31.4696C136.937 31.5215 137.124 31.5733 137.321 31.6666C137.518 31.7599 137.694 31.8635 137.881 31.9775L137.352 32.6098C137.124 32.4751 136.917 32.3507 136.689 32.2989C136.481 32.2263 136.264 32.1952 136.056 32.1952C135.756 32.1952 135.528 32.2367 135.393 32.3403C135.248 32.444 135.165 32.5995 135.165 32.786C135.165 32.9104 135.206 32.9933 135.289 33.0555C135.383 33.1177 135.486 33.1592 135.6 33.1799C135.735 33.1903 135.911 33.211 136.139 33.2214H136.315C136.626 33.2317 136.886 33.2836 137.114 33.3458C137.342 33.408 137.518 33.522 137.673 33.7189C137.818 33.8951 137.901 34.1646 137.901 34.5274C137.901 34.8384 137.829 35.1183 137.694 35.3256C137.559 35.5329 137.352 35.6884 137.082 35.8024C136.813 35.906 136.471 35.9682 136.046 35.9682C135.735 35.9371 135.6 35.9371 135.6 35.9371H135.579Z" fill="#222222"/>
<path d="M69.6968 36.8182V36.4139C69.873 36.3103 69.9974 36.1444 70.0596 35.9371C69.7279 35.9371 69.5517 35.7609 69.5517 35.3981C69.5517 35.0353 69.7279 34.8384 70.1114 34.8384C70.4949 34.8384 70.6712 35.0664 70.6712 35.5018C70.6712 36.1963 70.3602 36.6316 69.7072 36.8285L69.6968 36.8182Z" fill="#222222"/>
<path d="M66.6802 36.0512C66.6802 36.0512 66.5558 36.0201 66.3381 35.9786C66.1101 35.9372 65.8924 35.8439 65.6955 35.7506C65.4985 35.6469 65.3016 35.5225 65.1357 35.3567L65.6644 34.7244C65.9028 34.9006 66.1412 35.0354 66.39 35.1287C66.6387 35.2219 66.8564 35.2634 67.0948 35.2634C67.4369 35.2634 67.696 35.2012 67.8722 35.0976C68.0381 34.9939 68.1314 34.8281 68.1314 34.6208C68.1314 34.486 68.0899 34.3616 67.9966 34.3098C67.9033 34.2372 67.7893 34.1854 67.6545 34.1647C67.5198 34.1439 67.3228 34.1232 67.0637 34.1025H66.8564C66.5662 34.0714 66.3278 34.0403 66.1205 33.9781C65.9235 33.9159 65.7577 33.8019 65.6229 33.636C65.4882 33.4702 65.426 33.2318 65.426 32.9105C65.426 32.5891 65.4882 32.3404 65.6229 32.133C65.7577 31.9257 65.9339 31.7703 66.193 31.6666C66.4522 31.5629 66.7631 31.5215 67.157 31.5215C67.385 31.5215 67.6027 31.5319 67.8204 31.5837C68.0381 31.6355 68.2246 31.6873 68.4216 31.7806C68.6185 31.8739 68.7947 31.9776 68.9813 32.0916L68.4527 32.7239C68.2246 32.5891 68.0173 32.4647 67.7893 32.4129C67.582 32.3404 67.3643 32.3093 67.157 32.3093C66.8564 32.3093 66.6284 32.3507 66.4936 32.4544C66.3485 32.558 66.2656 32.7135 66.2656 32.9001C66.2656 33.0245 66.307 33.1074 66.39 33.1696C66.4833 33.2318 66.5869 33.2732 66.7009 33.294C66.8357 33.3043 67.0119 33.3251 67.2399 33.3354H67.4161C67.7271 33.3458 67.9862 33.3976 68.2143 33.4598C68.4423 33.522 68.6185 33.636 68.774 33.833C68.9191 34.0092 69.0021 34.2787 69.0021 34.6415C69.0021 34.9525 68.9295 35.2323 68.7947 35.4396C68.66 35.6469 68.4527 35.8024 68.1832 35.9164C67.9137 36.0201 67.5716 36.0823 67.1466 36.0823C66.8357 36.0512 66.7009 36.0512 66.7009 36.0512H66.6802Z" fill="#222222"/>
</svg>
