<svg width="163" height="37" viewBox="0 0 163 37" fill="none" xmlns="http://www.w3.org/2000/svg">
<path d="M59.4097 25.1608V25.0959C59.4097 22.1024 57.2173 19.6285 54.1046 19.6285C50.9269 19.6285 48.897 22.0752 48.897 25.0309V25.0959C48.897 28.0569 51.0894 30.5308 54.1697 30.5308C57.3797 30.5308 59.4097 28.0841 59.4097 25.1608ZM44.9345 25.1608V25.0959C44.9345 20.2402 48.8645 16.218 54.1696 16.218C59.4746 16.218 63.3722 20.1752 63.3722 25.0309V25.0959C63.3722 29.9191 59.4422 33.9412 54.1046 33.9412C48.832 33.9412 44.9345 29.9842 44.9345 25.1608ZM79.4173 25.1014V25.0364C79.4173 21.7558 77.1599 19.6014 74.4749 19.6014C71.7899 19.6014 69.4297 21.7883 69.4297 25.0364V25.1014C69.4297 28.3493 71.7899 30.5362 74.4748 30.5362C77.1924 30.5362 79.4173 28.4468 79.4173 25.1014ZM65.5645 11.8441C65.5645 10.7507 66.4145 9.91147 67.5296 9.91147C68.6448 9.91147 69.5271 10.7452 69.5271 11.8441V19.4065C70.8047 17.6363 72.6074 16.2235 75.4222 16.2235C79.4823 16.2235 83.4447 19.374 83.4447 25.0364V25.1014C83.4447 30.7312 79.5147 33.9141 75.4222 33.9141C72.5424 33.9141 70.7397 32.5013 69.5271 30.9206V31.7922C69.5271 32.8532 68.6448 33.7247 67.5296 33.7247C66.447 33.7247 65.5645 32.8586 65.5645 31.7921V11.8441ZM85.9349 18.3455C85.9349 17.252 86.7847 16.3858 87.8999 16.3858C89.0151 16.3858 89.8975 17.252 89.8975 18.3455V31.7922C89.8975 32.8857 89.015 33.7247 87.8999 33.7247C86.8172 33.7247 85.9349 32.8911 85.9349 31.7921V18.3455ZM85.6371 12.0065C85.6371 10.848 86.6169 10.1064 87.8945 10.1064C89.1721 10.1064 90.1519 10.848 90.1519 12.0065V12.2013C90.1519 13.3598 89.1721 14.134 87.8945 14.134C86.6169 14.134 85.6371 13.3598 85.6371 12.2013V12.0065ZM93.6921 12.8401C93.6921 11.7467 94.5746 10.8751 95.7222 10.8751C96.8374 10.8751 97.7197 11.7467 97.7197 12.8401V22.3621L108.59 11.6168C109.05 11.1349 109.537 10.8752 110.257 10.8752C111.372 10.8752 112.124 11.7467 112.124 12.7103C112.124 13.322 111.865 13.7712 111.404 14.1881L104.264 20.9439L111.995 30.3684C112.325 30.7853 112.552 31.175 112.552 31.7867C112.552 32.8802 111.67 33.7194 110.522 33.7194C109.737 33.7194 109.245 33.3349 108.817 32.7882L101.449 23.5531L97.7143 27.0934V31.7597C97.7143 32.8532 96.8318 33.7193 95.7167 33.7193C94.5691 33.7193 93.6867 32.8532 93.6867 31.7597V12.8456L93.6921 12.8401ZM117.272 32.1116L112.623 19.1792C112.525 18.9247 112.428 18.5025 112.428 18.1831C112.428 17.252 113.18 16.3805 114.36 16.3805C115.34 16.3805 115.995 17.0247 116.293 17.9232L119.633 28.2194L123.005 17.9232C123.298 17.0246 124.017 16.3805 125.035 16.3805H125.263C126.28 16.3805 127 17.0247 127.293 17.9232L130.697 28.2194L134.07 17.8907C134.33 17.0518 134.952 16.3804 136.003 16.3804C137.085 16.3804 137.87 17.2196 137.87 18.1831C137.87 18.47 137.773 18.8598 137.708 19.0492L132.993 32.1117C132.565 33.3025 131.748 33.8494 130.8 33.8494H130.67C129.691 33.8494 128.868 33.3025 128.51 32.1766L125.138 22.0753L121.733 32.1766C121.37 33.3025 120.553 33.8494 119.606 33.8494H119.476C118.496 33.8494 117.673 33.3025 117.283 32.1117L117.272 32.1116ZM139.998 18.3455C139.998 17.252 140.848 16.3858 141.963 16.3858C143.078 16.3858 143.96 17.252 143.96 18.3455V31.7922C143.96 32.8857 143.078 33.7247 141.963 33.7247C140.88 33.7247 139.998 32.8911 139.998 31.7921V18.3455ZM139.7 12.0065C139.7 10.848 140.68 10.1064 141.957 10.1064C143.235 10.1064 144.215 10.848 144.215 12.0065V12.2013C144.215 13.3598 143.235 14.134 141.957 14.134C140.68 14.134 139.7 13.3598 139.7 12.2013L139.7 12.0065ZM147.3 11.8441C147.3 10.7832 148.15 9.91147 149.265 9.91147C150.38 9.91147 151.263 10.7776 151.263 11.8441V24.3923L158.695 17.2196C159.22 16.7052 159.713 16.3858 160.4 16.3858C161.451 16.3858 162.138 17.2196 162.138 18.156C162.138 18.8002 161.808 19.282 161.256 19.7962L156.671 23.9482L161.911 30.6716C162.273 31.1534 162.436 31.5106 162.436 31.96C162.436 33.0209 161.586 33.7302 160.568 33.7302C159.783 33.7302 159.323 33.4756 158.831 32.864L153.888 26.3951L151.268 28.8419V31.8029C151.268 32.8965 150.386 33.7356 149.271 33.7356C148.188 33.7356 147.306 32.9018 147.306 31.8029V11.8549L147.3 11.8441ZM45.3947 16.8135C44.3986 16.8135 43.5866 16.0176 43.5866 15.0378C43.5866 14.058 44.3986 13.2569 45.3947 13.2569C46.396 13.2569 47.208 14.058 47.208 15.0378C47.208 16.0176 46.3961 16.8135 45.3947 16.8135ZM48.7347 14.0797C48.3882 10.9075 45.1239 12.1796 45.1239 12.1796C42.8071 13.062 42.2765 12.6884 42.2765 12.6884L42.7096 6.51183C42.466 3.62654 38.6063 4.62808 38.6063 4.62808C40.6959 5.57539 40.2682 6.68506 40.2682 6.68506C40.2682 6.68506 37.9946 29.421 37.7347 30.8771C37.4749 32.3334 35.4613 31.7379 35.4613 31.7379V34.228H38.0812C40.003 34.228 40.1762 31.6513 40.1762 31.6513L41.4591 19.5796C43.4837 19.2439 45.0698 18.7838 45.0698 18.7838C49.3679 17.3493 48.7347 14.0852 48.7347 14.0852V14.0797ZM46.4069 15.0378C46.4069 15.5847 45.9522 16.0285 45.3947 16.0285C44.8424 16.0285 44.3877 15.5791 44.3877 15.0378C44.3877 14.4965 44.8424 14.0418 45.3946 14.0418C45.9522 14.0418 46.4069 14.4857 46.4069 15.0378ZM21.6843 20.3051L28.0234 8.29844C28.0343 8.28213 28.045 8.26594 28.0559 8.25507C28.3537 7.50805 29.0466 6.96663 29.8748 6.8584C29.0573 6.88013 28.2671 7.3132 27.861 8.08185L21.6843 19.7962V20.3105V20.3051ZM3.04084 33.8926C1.92031 33.3133 1.48181 31.9328 2.07734 30.8394L17.3536 2.3492C17.6785 1.73747 18.2631 1.34222 18.9073 1.20693C18.9451 1.19617 18.9776 1.19074 19.0101 1.17987C19.0967 1.169 19.1995 1.15281 19.297 1.15281C19.3349 1.15281 19.3782 1.14194 19.4107 1.14194C19.4381 1.14251 19.4653 1.14616 19.4919 1.15281C19.5623 1.15281 19.6273 1.16368 19.6976 1.17443C19.7896 1.1853 19.8817 1.20161 19.9791 1.22855C20.017 1.23399 20.0549 1.25029 20.0927 1.26648C20.2064 1.29897 20.3146 1.34234 20.423 1.39646C20.4339 1.40178 20.4502 1.40178 20.4502 1.41265C20.4646 1.416 20.4778 1.42352 20.488 1.43427C20.6125 1.49383 20.7099 1.56425 20.8073 1.64543C20.829 1.66162 20.8506 1.6726 20.8669 1.68868L20.9915 1.81322C20.9535 1.7591 20.921 1.69411 20.8777 1.64543C20.8607 1.63317 20.8475 1.61627 20.8399 1.59674C20.7533 1.49937 20.6666 1.41265 20.5583 1.32615C20.5421 1.31517 20.5205 1.29354 20.4987 1.27735C20.3959 1.20693 20.2931 1.13118 20.1795 1.07163C20.1685 1.0662 20.1523 1.05 20.1415 1.03914C20.1252 1.0337 20.109 1.0337 20.0928 1.02827C19.9899 0.979582 19.8871 0.930898 19.7679 0.898404C19.7247 0.8821 19.6867 0.871231 19.638 0.855041C19.5514 0.833529 19.4541 0.82266 19.362 0.806356C19.2921 0.795584 19.2215 0.790172 19.1509 0.790166C19.1184 0.790166 19.0967 0.779297 19.0644 0.779297C19.0319 0.779297 18.9939 0.790166 18.9452 0.790166C18.8476 0.7965 18.7501 0.805523 18.6529 0.817225C18.6151 0.827981 18.5826 0.833416 18.5447 0.844285C17.8897 0.979582 17.2942 1.38015 16.9586 2.00818L1.37357 31.0829C0.767281 32.2035 1.20578 33.6109 2.35337 34.2009C3.14365 34.6124 4.06401 34.5203 4.76223 34.0602C4.20474 34.2227 3.57682 34.1847 3.02465 33.9033L3.04084 33.8926ZM19.4161 31.5973C18.1711 31.5973 17.1426 30.5904 17.1426 29.3669V12.4397L16.7636 13.1434V29.5782C16.7636 30.8287 17.8084 31.8573 19.0805 31.8573C19.7085 31.8573 20.2768 31.6082 20.699 31.2022C20.3255 31.4513 19.8871 31.5973 19.4107 31.5973H19.4161ZM30.167 30.3955C28.9165 30.3955 27.8933 29.3886 27.8933 28.1652V18.2481L27.5307 18.9572V28.5118C27.5307 29.7892 28.5917 30.8449 29.8963 30.8449C30.9193 30.8449 31.7963 30.1843 32.1211 29.2804C31.7314 29.9461 31.0006 30.4009 30.1669 30.4009L30.167 30.3955ZM36.7766 2.22466C36.7766 2.22466 29.5065 3.4318 21.6843 4.71481V20.3051L28.0234 8.29844C28.0343 8.28213 28.045 8.26594 28.0559 8.25507C28.3915 7.42687 29.2089 6.83677 30.1617 6.83677C31.4121 6.83677 32.4352 7.84363 32.4352 9.06708V28.1599C32.4352 29.3886 31.4121 30.3901 30.1617 30.3901C28.9112 30.3901 27.888 29.3832 27.888 28.1599V18.2426L21.8523 29.708C21.7663 29.8634 21.6608 30.0071 21.5382 30.1357C21.2135 30.9856 20.3851 31.5973 19.4107 31.5973C18.1656 31.5973 17.1372 30.5904 17.1372 29.3669V12.4397L6.14261 32.9398C5.55794 34.0332 4.15051 34.4663 3.0353 33.8871C1.91476 33.3078 1.47626 31.9275 2.0718 30.834L15.5402 5.7108C9.09288 6.76646 3.50097 7.67584 2.77557 7.76789C0.973001 7.99523 0.566996 9.53796 0.566996 9.53796C0.566996 9.53796 0.507442 33.8383 0.566996 35.0454C0.621115 36.2471 1.90944 36.4746 1.90944 36.4746C1.90944 36.4746 32.2944 36.7019 33.8642 36.4746C35.4395 36.2471 35.7264 34.4771 35.7264 34.4771L38.812 3.76195C38.6983 1.7591 36.7766 2.21368 36.7766 2.21368V2.22466Z" fill="#0072CF"/>
</svg>
