<svg width="192" height="56" viewBox="0 0 192 56" fill="none" xmlns="http://www.w3.org/2000/svg">
<rect width="192" height="56" fill="white"/>
<path d="M73.8692 34.3815V34.3166C73.8692 31.3231 71.6768 28.8492 68.564 28.8492C65.3864 28.8492 63.3565 31.2959 63.3565 34.2516V34.3166C63.3565 37.2777 65.5489 39.7515 68.6291 39.7515C71.8391 39.7515 73.8692 37.3048 73.8692 34.3815ZM59.3939 34.3815V34.3166C59.3939 29.4609 63.324 25.4387 68.629 25.4387C73.934 25.4387 77.8316 29.3959 77.8316 34.2516V34.3166C77.8316 39.1398 73.9017 43.1619 68.564 43.1619C63.2915 43.1619 59.3939 39.2049 59.3939 34.3815ZM93.8768 34.3221V34.2571C93.8768 30.9765 91.6194 28.8221 88.9344 28.8221C86.2494 28.8221 83.8892 31.009 83.8892 34.2571V34.3221C83.8892 37.57 86.2494 39.7569 88.9343 39.7569C91.6519 39.7569 93.8768 37.6675 93.8768 34.3221ZM80.024 21.0648C80.024 19.9714 80.874 19.1322 81.9891 19.1322C83.1043 19.1322 83.9866 19.9659 83.9866 21.0648V28.6272C85.2642 26.857 87.0668 25.4442 89.8817 25.4442C93.9417 25.4442 97.9042 28.5947 97.9042 34.2571V34.3221C97.9042 39.9519 93.9741 43.1348 89.8817 43.1348C87.0018 43.1348 85.1992 41.722 83.9866 40.1413V41.0129C83.9866 42.0739 83.1043 42.9454 81.9891 42.9454C80.9064 42.9454 80.024 42.0793 80.024 41.0128V21.0648ZM100.394 27.5662C100.394 26.4727 101.244 25.6065 102.359 25.6065C103.475 25.6065 104.357 26.4727 104.357 27.5662V41.0129C104.357 42.1064 103.475 42.9454 102.359 42.9454C101.277 42.9454 100.394 42.1118 100.394 41.0128V27.5662ZM100.097 21.2272C100.097 20.0687 101.076 19.3271 102.354 19.3271C103.632 19.3271 104.611 20.0687 104.611 21.2272V21.422C104.611 22.5805 103.632 23.3547 102.354 23.3547C101.076 23.3547 100.097 22.5805 100.097 21.422V21.2272ZM108.152 22.0608C108.152 20.9674 109.034 20.0958 110.182 20.0958C111.297 20.0958 112.179 20.9674 112.179 22.0608V31.5828L123.049 20.8375C123.509 20.3556 123.996 20.0959 124.716 20.0959C125.832 20.0959 126.584 20.9674 126.584 21.931C126.584 22.5427 126.324 22.9919 125.864 23.4088L118.724 30.1646L126.454 39.5891C126.784 40.006 127.012 40.3957 127.012 41.0074C127.012 42.1009 126.129 42.9401 124.982 42.9401C124.197 42.9401 123.704 42.5556 123.276 42.0089L115.909 32.7738L112.174 36.3142V40.9804C112.174 42.0739 111.291 42.94 110.176 42.94C109.029 42.94 108.146 42.0739 108.146 40.9804V22.0663L108.152 22.0608ZM131.732 41.3323L127.082 28.3999C126.985 28.1454 126.887 27.7232 126.887 27.4038C126.887 26.4727 127.64 25.6012 128.82 25.6012C129.799 25.6012 130.454 26.2454 130.752 27.1439L134.092 37.4401L137.465 27.1439C137.757 26.2453 138.477 25.6012 139.495 25.6012H139.722C140.74 25.6012 141.46 26.2454 141.752 27.1439L145.157 37.4401L148.53 27.1114C148.789 26.2725 149.412 25.6011 150.462 25.6011C151.545 25.6011 152.33 26.4403 152.33 27.4038C152.33 27.6907 152.232 28.0805 152.167 28.2699L147.452 41.3324C147.025 42.5232 146.207 43.0701 145.26 43.0701H145.13C144.15 43.0701 143.327 42.5232 142.97 41.3973L139.597 31.296L136.192 41.3973C135.83 42.5232 135.012 43.0701 134.065 43.0701H133.935C132.955 43.0701 132.133 42.5232 131.743 41.3324L131.732 41.3323ZM154.457 27.5662C154.457 26.4727 155.307 25.6065 156.422 25.6065C157.537 25.6065 158.42 26.4727 158.42 27.5662V41.0129C158.42 42.1064 157.537 42.9454 156.422 42.9454C155.339 42.9454 154.457 42.1118 154.457 41.0128V27.5662ZM154.159 21.2272C154.159 20.0687 155.139 19.3271 156.417 19.3271C157.694 19.3271 158.674 20.0687 158.674 21.2272V21.422C158.674 22.5805 157.694 23.3547 156.417 23.3547C155.139 23.3547 154.159 22.5805 154.159 21.422L154.159 21.2272ZM161.76 21.0648C161.76 20.0039 162.61 19.1322 163.725 19.1322C164.84 19.1322 165.722 19.9983 165.722 21.0648V33.613L173.155 26.4403C173.68 25.9259 174.172 25.6065 174.86 25.6065C175.91 25.6065 176.597 26.4403 176.597 27.3767C176.597 28.0209 176.267 28.5027 175.715 29.0169L171.13 33.1689L176.37 39.8923C176.733 40.3741 176.895 40.7313 176.895 41.1807C176.895 42.2416 176.045 42.9509 175.028 42.9509C174.243 42.9509 173.783 42.6963 173.29 42.0847L168.348 35.6158L165.728 38.0626V41.0236C165.728 42.1172 164.845 42.9563 163.73 42.9563C162.647 42.9563 161.765 42.1225 161.765 41.0236V21.0756L161.76 21.0648ZM59.8542 26.0342C58.8581 26.0342 58.0461 25.2383 58.0461 24.2585C58.0461 23.2787 58.8581 22.4776 59.8542 22.4776C60.8555 22.4776 61.6675 23.2787 61.6675 24.2585C61.6675 25.2383 60.8556 26.0342 59.8542 26.0342ZM63.1941 23.3004C62.8477 20.1282 59.5834 21.4003 59.5834 21.4003C57.2665 22.2827 56.736 21.9091 56.736 21.9091L57.1691 15.7325C56.9255 12.8472 53.0658 13.8488 53.0658 13.8488C55.1553 14.7961 54.7277 15.9058 54.7277 15.9058C54.7277 15.9058 52.454 38.6417 52.1942 40.0978C51.9343 41.5541 49.9207 40.9586 49.9207 40.9586V43.4487H52.5406C54.4624 43.4487 54.6357 40.872 54.6357 40.872L55.9185 28.8003C57.9431 28.4646 59.5292 28.0045 59.5292 28.0045C63.8274 26.57 63.1941 23.3059 63.1941 23.3059V23.3004ZM60.8664 24.2585C60.8664 24.8054 60.4117 25.2492 59.8542 25.2492C59.3019 25.2492 58.8472 24.7998 58.8472 24.2585C58.8472 23.7172 59.3019 23.2625 59.8541 23.2625C60.4117 23.2625 60.8664 23.7064 60.8664 24.2585ZM36.1437 29.5258L42.4829 17.5191C42.4938 17.5028 42.5045 17.4866 42.5154 17.4758C42.8132 16.7288 43.5061 16.1873 44.3343 16.0791C43.5168 16.1008 42.7265 16.5339 42.3204 17.3025L36.1437 29.0169V29.5312V29.5258ZM17.5003 43.1133C16.3798 42.534 15.9413 41.1535 16.5368 40.0601L31.8131 11.5699C32.138 10.9582 32.7226 10.5629 33.3668 10.4276C33.4046 10.4169 33.4371 10.4114 33.4696 10.4006C33.5562 10.3897 33.659 10.3735 33.7565 10.3735C33.7944 10.3735 33.8377 10.3626 33.8702 10.3626C33.8975 10.3632 33.9248 10.3669 33.9513 10.3735C34.0218 10.3735 34.0868 10.3844 34.1571 10.3951C34.2491 10.406 34.3412 10.4223 34.4385 10.4493C34.4765 10.4547 34.5144 10.471 34.5522 10.4872C34.6659 10.5197 34.7741 10.563 34.8825 10.6172C34.8933 10.6225 34.9096 10.6225 34.9096 10.6334C34.9241 10.6367 34.9372 10.6442 34.9475 10.655C35.072 10.7145 35.1694 10.785 35.2667 10.8661C35.2885 10.8823 35.3101 10.8933 35.3264 10.9094L35.4509 11.0339C35.413 10.9798 35.3805 10.9148 35.3372 10.8661C35.3201 10.8539 35.307 10.837 35.2993 10.8174C35.2127 10.7201 35.1261 10.6334 35.0178 10.5469C35.0016 10.5359 34.9799 10.5142 34.9582 10.4981C34.8554 10.4276 34.7526 10.3519 34.6389 10.2923C34.6279 10.2869 34.6118 10.2707 34.601 10.2598C34.5847 10.2544 34.5685 10.2544 34.5523 10.249C34.4494 10.2003 34.3466 10.1516 34.2274 10.1191C34.1841 10.1028 34.1462 10.0919 34.0975 10.0757C34.0109 10.0542 33.9135 10.0434 33.8215 10.0271C33.7516 10.0163 33.681 10.0109 33.6103 10.0109C33.5778 10.0109 33.5562 10 33.5238 10C33.4913 10 33.4534 10.0109 33.4047 10.0109C33.307 10.0172 33.2096 10.0262 33.1124 10.0379C33.0746 10.0487 33.0421 10.0541 33.0042 10.065C32.3492 10.2003 31.7536 10.6009 31.4181 11.2289L15.833 40.3036C15.2268 41.4242 15.6653 42.8316 16.8128 43.4216C17.6031 43.8331 18.5235 43.741 19.2217 43.2809C18.6642 43.4434 18.0363 43.4054 17.4841 43.124L17.5003 43.1133ZM33.8756 40.818C32.6305 40.818 31.602 39.8111 31.602 38.5876V21.6604L31.2231 22.3641V38.7989C31.2231 40.0494 32.2679 41.078 33.54 41.078C34.1679 41.078 34.7363 40.8289 35.1585 40.4229C34.785 40.672 34.3466 40.818 33.8702 40.818H33.8756ZM44.6265 39.6162C43.376 39.6162 42.3528 38.6093 42.3528 37.3859V27.4688L41.9902 28.1779V37.7325C41.9902 39.0099 43.0511 40.0656 44.3558 40.0656C45.3788 40.0656 46.2558 39.405 46.5805 38.5011C46.1908 39.1668 45.4601 39.6216 44.6264 39.6216L44.6265 39.6162ZM51.2361 11.4454C51.2361 11.4454 43.966 12.6525 36.1437 13.9355V29.5258L42.4829 17.5191C42.4938 17.5028 42.5045 17.4866 42.5154 17.4758C42.851 16.6476 43.6684 16.0575 44.6212 16.0575C45.8716 16.0575 46.8947 17.0643 46.8947 18.2878V37.3806C46.8947 38.6093 45.8716 39.6108 44.6212 39.6108C43.3706 39.6108 42.3475 38.6039 42.3475 37.3806V27.4633L36.3117 38.9287C36.2258 39.0841 36.1202 39.2278 35.9977 39.3564C35.673 40.2063 34.8445 40.818 33.8702 40.818C32.6251 40.818 31.5967 39.8111 31.5967 38.5876V21.6604L20.6021 42.1605C20.0174 43.2539 18.61 43.687 17.4948 43.1078C16.3742 42.5285 15.9357 41.1482 16.5313 40.0547L29.9996 14.9315C23.5524 15.9872 17.9604 16.8965 17.235 16.9886C15.4325 17.2159 15.0265 18.7587 15.0265 18.7587C15.0265 18.7587 14.9669 43.059 15.0265 44.2661C15.0806 45.4678 16.3689 45.6953 16.3689 45.6953C16.3689 45.6953 46.7539 45.9226 48.3237 45.6953C49.899 45.4678 50.1859 43.6978 50.1859 43.6978L53.2715 12.9827C53.1578 10.9798 51.2361 11.4344 51.2361 11.4344V11.4454Z" fill="#0072CF"/>
</svg>
