<svg width="192" height="56" viewBox="0 0 192 56" fill="none" xmlns="http://www.w3.org/2000/svg">
<rect width="192" height="56" fill="white"/>
<g clip-path="url(#clip0_911_598)">
<path d="M71.1273 17.1992C70.8433 17.1992 70.6021 17.4021 70.5577 17.6784L67.2701 38.1933C67.2582 38.2683 67.2629 38.3449 67.2839 38.4179C67.3049 38.4908 67.3417 38.5585 67.3918 38.6161C67.4419 38.6738 67.5041 38.7201 67.5741 38.7518C67.6441 38.7835 67.7203 38.8 67.7974 38.8H71.6962C71.9798 38.8 72.2214 38.5967 72.2658 38.3208L73.2316 32.2965C73.2756 32.0206 73.5172 31.8173 73.8012 31.8173H77.3459C81.4875 31.8173 85.0033 28.8438 85.6454 24.8146C86.2929 20.7513 83.0669 17.208 78.4946 17.1992H71.1273ZM74.9173 21.779H77.7534C80.0882 21.779 80.8486 23.1346 80.6082 24.6338C80.3678 26.1362 79.1869 27.2428 76.9282 27.2428H74.0416L74.9173 21.779ZM93.575 23.1735C92.5905 23.1771 91.4577 23.3756 90.186 23.8968C87.2688 25.0933 85.8679 27.566 85.273 29.3687C85.273 29.3687 83.3794 34.8686 87.6576 37.8902C87.6576 37.8902 91.6252 40.7992 96.0916 37.711L96.0146 38.1933C96.0026 38.2682 96.0073 38.3447 96.0283 38.4177C96.0492 38.4906 96.086 38.5582 96.136 38.6158C96.186 38.6735 96.2481 38.7198 96.318 38.7516C96.3879 38.7833 96.464 38.7999 96.541 38.8H100.242C100.526 38.8 100.767 38.5967 100.812 38.3208L103.063 24.2721C103.075 24.1972 103.071 24.1206 103.05 24.0475C103.029 23.9745 102.992 23.9068 102.942 23.8491C102.892 23.7914 102.83 23.745 102.76 23.7131C102.69 23.6813 102.614 23.6648 102.537 23.6647H98.8356C98.5515 23.6647 98.3099 23.8679 98.2659 24.1438L98.1449 24.9C98.1449 24.9 96.5288 23.1627 93.575 23.1735ZM93.696 27.6109C94.121 27.6109 94.5098 27.6686 94.8586 27.7789C96.4555 28.2833 97.3609 29.7929 97.0989 31.4292C96.7757 33.444 95.0965 34.9275 92.943 34.9275C92.5184 34.9275 92.1297 34.8702 91.7804 34.7599C90.1839 34.2555 89.2728 32.7459 89.5348 31.1096C89.858 29.0948 91.5425 27.6109 93.696 27.6109Z" fill="#003087"/>
<path d="M124.426 17.1992C124.142 17.1992 123.9 17.4021 123.856 17.6784L120.568 38.1933C120.557 38.2683 120.561 38.3449 120.582 38.4179C120.603 38.4908 120.64 38.5585 120.69 38.6161C120.74 38.6738 120.802 38.7201 120.872 38.7518C120.942 38.7835 121.019 38.8 121.096 38.8H124.995C125.278 38.8 125.52 38.5967 125.564 38.3208L126.53 32.2965C126.574 32.0206 126.816 31.8173 127.1 31.8173H130.644C134.786 31.8173 138.301 28.8438 138.943 24.8146C139.591 20.7513 136.365 17.208 131.793 17.1992H124.426ZM128.216 21.779H131.052C133.387 21.779 134.147 23.1346 133.907 24.6338C133.666 26.1362 132.486 27.2428 130.227 27.2428H127.34L128.216 21.779ZM146.873 23.1735C145.888 23.1771 144.756 23.3756 143.484 23.8968C140.567 25.0933 139.166 27.566 138.571 29.3687C138.571 29.3687 136.678 34.8686 140.956 37.8902C140.956 37.8902 144.923 40.7992 149.39 37.711L149.313 38.1933C149.301 38.2683 149.306 38.3449 149.327 38.4179C149.348 38.4908 149.384 38.5585 149.435 38.6161C149.485 38.6738 149.547 38.7201 149.617 38.7518C149.687 38.7835 149.763 38.8 149.84 38.8H153.541C153.825 38.8 154.066 38.5967 154.111 38.3208L156.363 24.2721C156.375 24.1971 156.37 24.1204 156.349 24.0473C156.328 23.9743 156.292 23.9065 156.241 23.8488C156.191 23.791 156.129 23.7447 156.059 23.7129C155.989 23.6811 155.913 23.6646 155.835 23.6647H152.134C151.85 23.6647 151.609 23.8679 151.565 24.1438L151.444 24.9C151.444 24.9 149.827 23.1627 146.873 23.1735ZM146.994 27.6109C147.419 27.6109 147.808 27.6686 148.156 27.7789C149.753 28.2833 150.659 29.7929 150.397 31.4292C150.074 33.444 148.394 34.9275 146.241 34.9275C145.816 34.9275 145.428 34.8702 145.078 34.7599C143.482 34.2555 142.571 32.7459 142.833 31.1096C143.156 29.0948 144.84 27.6109 146.994 27.6109Z" fill="#0070E0"/>
<path d="M104.82 23.6645C104.527 23.6645 104.318 23.9463 104.408 24.221L108.465 36.611L104.796 42.4497C104.618 42.7332 104.825 43.0993 105.164 43.0993H109.5C109.624 43.0992 109.746 43.0676 109.854 43.0076C109.962 42.9476 110.053 42.8613 110.117 42.7568L121.449 24.31C121.623 24.0265 121.416 23.6641 121.079 23.6641H116.743C116.618 23.6642 116.495 23.6963 116.386 23.7574C116.277 23.8185 116.187 23.9064 116.123 24.0125L111.662 31.423L109.398 24.0674C109.324 23.8281 109.099 23.6641 108.846 23.6641L104.82 23.6645Z" fill="#003087"/>
<path d="M160.569 17.1992C160.285 17.1992 160.043 17.4025 159.999 17.6784L156.711 38.1925C156.699 38.2675 156.703 38.3442 156.724 38.4173C156.745 38.4904 156.782 38.5581 156.832 38.6159C156.882 38.6736 156.944 38.72 157.014 38.7518C157.085 38.7835 157.161 38.8 157.238 38.8H161.137C161.42 38.8 161.662 38.5967 161.706 38.3208L164.994 17.8059C165.006 17.731 165.001 17.6545 164.98 17.5815C164.959 17.5086 164.923 17.441 164.873 17.3834C164.822 17.3257 164.76 17.2794 164.69 17.2477C164.621 17.2159 164.544 17.1993 164.467 17.1992H160.569Z" fill="#0070E0"/>
<path d="M38.6246 17.1992C38.3735 17.1994 38.1306 17.2878 37.9397 17.4483C37.7488 17.6089 37.6224 17.8312 37.5831 18.0753L35.8525 28.8755C35.9332 28.3711 36.3749 27.9994 36.894 27.9994H41.9651C47.0688 27.9994 51.3995 24.3359 52.1908 19.3712C52.2497 19.0006 52.2831 18.6264 52.2907 18.2513C50.9937 17.5821 49.4701 17.1992 47.8006 17.1992H38.6246Z" fill="#001C64"/>
<path d="M52.2911 18.252C52.2835 18.627 52.2501 19.0012 52.1912 19.3718C51.3999 24.3365 47.0688 28 41.9655 28H36.8944C36.3757 28 35.9336 28.3713 35.8529 28.8761L34.2617 38.8006L33.265 45.0267C33.2456 45.147 33.2529 45.27 33.2864 45.3872C33.32 45.5045 33.379 45.6131 33.4594 45.7058C33.5398 45.7984 33.6396 45.8728 33.752 45.9237C33.8644 45.9747 33.9868 46.0011 34.1106 46.001H39.6148C39.8659 46.0008 40.1088 45.9125 40.2997 45.7519C40.4906 45.5913 40.617 45.369 40.6563 45.1249L42.1061 36.0765C42.1454 35.8323 42.272 35.6099 42.463 35.4493C42.6541 35.2887 42.8972 35.2004 43.1485 35.2004H46.3891C51.4928 35.2004 55.8235 31.5369 56.6148 26.5722C57.1768 23.0486 55.3733 19.8421 52.2911 18.252Z" fill="#0070E0"/>
<path d="M32.3714 10C31.8527 10 31.4106 10.3713 31.3299 10.8753L27.0106 37.826C26.9287 38.3377 27.3305 38.8004 27.857 38.8004H34.2622L35.8526 28.8759L37.5831 18.0757C37.6224 17.8316 37.7488 17.6093 37.9397 17.4487C38.1306 17.2881 38.3735 17.1998 38.6246 17.1996H47.8007C49.4705 17.1996 50.9937 17.5829 52.2907 18.2517C52.3795 13.7317 48.5891 10 43.3779 10H32.3714Z" fill="#003087"/>
</g>
<defs>
<clipPath id="clip0_911_598">
<rect width="138" height="36" fill="white" transform="translate(27 10)"/>
</clipPath>
</defs>
</svg>
