<svg width="138" height="36" viewBox="0 0 138 36" fill="none" xmlns="http://www.w3.org/2000/svg">
<g clip-path="url(#clip0_303_1077)">
<path d="M44.1273 7.19922C43.8433 7.19922 43.6021 7.4021 43.5577 7.67836L40.2701 28.1933C40.2582 28.2683 40.2629 28.3449 40.2839 28.4179C40.3049 28.4908 40.3417 28.5585 40.3918 28.6161C40.4419 28.6738 40.5041 28.7201 40.5741 28.7518C40.6441 28.7835 40.7203 28.8 40.7974 28.8H44.6962C44.9798 28.8 45.2214 28.5967 45.2658 28.3208L46.2316 22.2965C46.2756 22.0206 46.5172 21.8173 46.8012 21.8173H50.3459C54.4875 21.8173 58.0033 18.8438 58.6454 14.8146C59.2929 10.7513 56.0669 7.20804 51.4946 7.19922H44.1273ZM47.9173 11.779H50.7534C53.0882 11.779 53.8486 13.1346 53.6082 14.6338C53.3678 16.1362 52.1869 17.2428 49.9282 17.2428H47.0416L47.9173 11.779ZM66.575 13.1735C65.5905 13.1771 64.4577 13.3756 63.186 13.8968C60.2688 15.0933 58.8679 17.566 58.273 19.3687C58.273 19.3687 56.3794 24.8686 60.6576 27.8902C60.6576 27.8902 64.6252 30.7992 69.0916 27.711L69.0146 28.1933C69.0026 28.2682 69.0073 28.3447 69.0283 28.4177C69.0492 28.4906 69.086 28.5582 69.136 28.6158C69.186 28.6735 69.2481 28.7198 69.318 28.7516C69.3879 28.7833 69.464 28.7999 69.541 28.8H73.2422C73.5262 28.8 73.7674 28.5967 73.8118 28.3208L76.0632 14.2721C76.0752 14.1972 76.0707 14.1206 76.0498 14.0475C76.0289 13.9745 75.9921 13.9068 75.9421 13.8491C75.8921 13.7914 75.8299 13.745 75.7599 13.7131C75.69 13.6813 75.6138 13.6648 75.5367 13.6647H71.8356C71.5515 13.6647 71.3099 13.8679 71.2659 14.1438L71.1449 14.9C71.1449 14.9 69.5288 13.1627 66.575 13.1735ZM66.696 17.6109C67.121 17.6109 67.5098 17.6686 67.8586 17.7789C69.4555 18.2833 70.3609 19.7929 70.0989 21.4292C69.7757 23.444 68.0965 24.9275 65.943 24.9275C65.5184 24.9275 65.1297 24.8702 64.7804 24.7599C63.1839 24.2555 62.2728 22.7459 62.5348 21.1096C62.858 19.0948 64.5425 17.6109 66.696 17.6109Z" fill="#003087"/>
<path d="M97.4257 7.19922C97.1417 7.19922 96.9004 7.4021 96.856 7.67836L93.5685 28.1933C93.5565 28.2683 93.5612 28.3449 93.5822 28.4179C93.6032 28.4908 93.64 28.5585 93.6902 28.6161C93.7403 28.6738 93.8025 28.7201 93.8725 28.7518C93.9425 28.7835 94.0187 28.8 94.0957 28.8H97.9945C98.2781 28.8 98.5198 28.5967 98.5642 28.3208L99.5299 22.2965C99.5739 22.0206 99.8155 21.8173 100.1 21.8173H103.644C107.786 21.8173 111.301 18.8438 111.943 14.8146C112.591 10.7513 109.365 7.20804 104.793 7.19922H97.4257ZM101.216 11.779H104.052C106.387 11.779 107.147 13.1346 106.907 14.6338C106.666 16.1362 105.486 17.2428 103.227 17.2428H100.34L101.216 11.779ZM119.873 13.1735C118.888 13.1771 117.756 13.3756 116.484 13.8968C113.567 15.0933 112.166 17.566 111.571 19.3687C111.571 19.3687 109.678 24.8686 113.956 27.8902C113.956 27.8902 117.923 30.7992 122.39 27.711L122.313 28.1933C122.301 28.2683 122.306 28.3449 122.327 28.4179C122.348 28.4908 122.384 28.5585 122.435 28.6161C122.485 28.6738 122.547 28.7201 122.617 28.7518C122.687 28.7835 122.763 28.8 122.84 28.8H126.541C126.825 28.8 127.066 28.5967 127.111 28.3208L129.363 14.2721C129.375 14.1971 129.37 14.1204 129.349 14.0473C129.328 13.9743 129.292 13.9065 129.241 13.8488C129.191 13.791 129.129 13.7447 129.059 13.7129C128.989 13.6811 128.913 13.6646 128.835 13.6647H125.134C124.85 13.6647 124.609 13.8679 124.565 14.1438L124.444 14.9C124.444 14.9 122.827 13.1627 119.873 13.1735ZM119.994 17.6109C120.419 17.6109 120.808 17.6686 121.156 17.7789C122.753 18.2833 123.659 19.7929 123.397 21.4292C123.074 23.444 121.394 24.9275 119.241 24.9275C118.816 24.9275 118.428 24.8702 118.078 24.7599C116.482 24.2555 115.571 22.7459 115.833 21.1096C116.156 19.0948 117.84 17.6109 119.994 17.6109Z" fill="#0070E0"/>
<path d="M77.8201 13.6645C77.5267 13.6645 77.3181 13.9463 77.4077 14.221L81.4654 26.611L77.7964 32.4497C77.6184 32.7332 77.8254 33.0993 78.164 33.0993H82.5004C82.6244 33.0992 82.7463 33.0676 82.8543 33.0076C82.9623 32.9476 83.0527 32.8613 83.1169 32.7568L94.4494 14.31C94.6233 14.0265 94.4155 13.6641 94.079 13.6641H89.743C89.6177 13.6642 89.4947 13.6963 89.3859 13.7574C89.2772 13.8185 89.1865 13.9064 89.1228 14.0125L84.6621 21.423L82.3977 14.0674C82.324 13.8281 82.0994 13.6641 81.8456 13.6641L77.8201 13.6645Z" fill="#003087"/>
<path d="M133.569 7.19922C133.285 7.19922 133.043 7.4025 132.999 7.67836L129.711 28.1925C129.699 28.2675 129.703 28.3442 129.724 28.4173C129.745 28.4904 129.782 28.5581 129.832 28.6159C129.882 28.6736 129.944 28.72 130.014 28.7518C130.085 28.7835 130.161 28.8 130.238 28.8H134.137C134.42 28.8 134.662 28.5967 134.706 28.3208L137.994 7.80587C138.006 7.731 138.001 7.65447 137.98 7.58154C137.959 7.50861 137.923 7.44101 137.873 7.38338C137.822 7.32575 137.76 7.27945 137.69 7.24766C137.621 7.21587 137.544 7.19934 137.467 7.19922H133.569Z" fill="#0070E0"/>
<path d="M11.6246 7.19922C11.3735 7.19942 11.1306 7.28775 10.9397 7.44833C10.7488 7.60891 10.6224 7.83122 10.5831 8.07531L8.85254 18.8755C8.93322 18.3711 9.37492 17.9994 9.89405 17.9994H14.9651C20.0688 17.9994 24.3995 14.3359 25.1908 9.3712C25.2497 9.00055 25.2831 8.62641 25.2907 8.25133C23.9937 7.58213 22.4701 7.19922 20.8006 7.19922H11.6246Z" fill="#001C64"/>
<path d="M25.2911 8.25195C25.2835 8.62703 25.2501 9.00118 25.1912 9.37183C24.3999 14.3365 20.0688 18 14.9655 18H9.89445C9.37572 18 8.93362 18.3713 8.85294 18.8761L7.26172 28.8006L6.26503 35.0267C6.24558 35.147 6.25287 35.27 6.28642 35.3872C6.31997 35.5045 6.37899 35.6131 6.45937 35.7058C6.53975 35.7984 6.6396 35.8728 6.75202 35.9237C6.86445 35.9747 6.98677 36.0011 7.11056 36.001H12.6148C12.8659 36.0008 13.1088 35.9125 13.2997 35.7519C13.4906 35.5913 13.617 35.369 13.6563 35.1249L15.1061 26.0765C15.1454 25.8323 15.272 25.6099 15.463 25.4493C15.6541 25.2887 15.8972 25.2004 16.1485 25.2004H19.3891C24.4928 25.2004 28.8235 21.5369 29.6148 16.5722C30.1768 13.0486 28.3733 9.84215 25.2911 8.25195Z" fill="#0070E0"/>
<path d="M5.37144 0C4.85272 0 4.41061 0.371287 4.32993 0.87529L0.0106304 27.826C-0.071273 28.3377 0.330513 28.8004 0.856977 28.8004H7.26215L8.85255 18.8759L10.5831 8.07568C10.6224 7.83159 10.7488 7.60928 10.9397 7.4487C11.1306 7.28812 11.3735 7.19979 11.6246 7.19959H20.8007C22.4705 7.19959 23.9937 7.5829 25.2907 8.2517C25.3795 3.73171 21.5891 0 16.3779 0H5.37144Z" fill="#003087"/>
</g>
<defs>
<clipPath id="clip0_303_1077">
<rect width="138" height="36" fill="white"/>
</clipPath>
</defs>
</svg>
