<svg width="192" height="56" viewBox="0 0 192 56" fill="none" xmlns="http://www.w3.org/2000/svg">
<rect width="192" height="56" fill="white"/>
<g clip-path="url(#clip0_911_597)">
<path d="M152.62 21.027C151.581 18.2113 148.76 16.19 145.458 16.19H145.383C143.231 16.19 141.292 17.0462 139.91 18.4143C138.527 17.0462 136.588 16.19 134.436 16.19H134.371C132.479 16.19 130.744 16.852 129.417 17.9377V17.3904C129.371 16.8344 128.897 16.4019 128.304 16.4019H123.22C122.598 16.4019 122.097 16.8785 122.097 17.4699V43.7201C122.097 44.3115 122.598 44.7882 123.22 44.7882H128.304C128.87 44.7882 129.343 44.3821 129.408 43.8702V25.0254C129.408 24.9548 129.408 24.9019 129.417 24.8401C129.5 24.0016 130.15 23.3043 131.17 23.2248H132.107C132.534 23.2601 132.896 23.4014 133.174 23.622C133.62 23.9574 133.861 24.4694 133.861 25.0343L133.879 43.7819C133.879 44.3733 134.38 44.8588 135.002 44.8588H140.086C140.689 44.8588 141.171 44.4086 141.199 43.8437V25.0166C141.199 24.3988 141.496 23.8339 142.025 23.5073C142.285 23.3484 142.6 23.2425 142.962 23.2072H143.899C145.003 23.2954 145.662 24.0898 145.662 25.0166L145.68 43.7466C145.68 44.338 146.181 44.8146 146.803 44.8146H151.887C152.48 44.8146 152.972 44.3733 153.009 43.8172V23.2778C152.981 22.1215 152.824 21.5831 152.62 21.027ZM118.219 16.4725H115.315V11.9886C115.315 11.9798 115.315 11.9798 115.315 11.9709C115.315 11.4413 114.861 11 114.286 11C114.221 11 114.156 11.0088 114.091 11.0177C110.872 11.8562 111.512 16.1018 105.63 16.4637H105.064C104.98 16.4637 104.897 16.4725 104.813 16.4901C104.322 16.6049 103.941 17.0286 103.941 17.5405V22.3775C103.941 22.9688 104.442 23.4455 105.064 23.4455H108.125L108.116 43.9408C108.116 44.5234 108.617 45 109.229 45H114.258C114.87 45 115.371 44.5234 115.371 43.9408V23.4455H118.219C118.832 23.4455 119.342 22.96 119.342 22.3775V17.5405C119.342 16.9491 118.841 16.4725 118.219 16.4725Z" fill="#00BAF2"/>
<path d="M99.9429 16.4717H94.8589C94.2466 16.4717 93.7363 16.9484 93.7363 17.5397V27.5403C93.7271 28.1581 93.1982 28.6524 92.5488 28.6524H90.4243C89.7656 28.6524 89.2275 28.1493 89.2275 27.5226L89.209 17.5397C89.209 16.9484 88.708 16.4717 88.0864 16.4717H83.0024C82.3809 16.4717 81.8799 16.9484 81.8799 17.5397V28.4935C81.8799 32.6508 84.9971 35.6254 89.376 35.6254C89.376 35.6254 92.6602 35.6254 92.7622 35.6431C93.356 35.7048 93.8106 36.1815 93.8106 36.764C93.8106 37.3378 93.3652 37.8144 92.7715 37.885C92.7437 37.885 92.7158 37.8938 92.688 37.9027L85.2568 37.9291C84.6353 37.9291 84.1343 38.4058 84.1343 38.9972V43.8253C84.1343 44.4167 84.6353 44.8933 85.2568 44.8933H93.5601C97.939 44.8933 101.056 41.9276 101.056 37.7703V17.5397C101.065 16.9484 100.564 16.4717 99.9429 16.4717ZM71.0347 16.4982H63.9839C63.3623 16.4982 62.8521 16.9484 62.8521 17.4956V19.3757C62.8521 19.3845 62.8521 19.4021 62.8521 19.411C62.8521 19.4286 62.8521 19.4374 62.8521 19.4551V22.0325C62.8521 22.615 63.3901 23.1005 64.0488 23.1005H70.7656C71.2944 23.1799 71.7119 23.5506 71.7769 24.1244V24.7511C71.7212 25.2983 71.3037 25.6955 70.7935 25.7396H67.4722C63.0469 25.7396 59.9019 28.5377 59.9019 32.4567V38.0792C59.9019 41.9805 62.6108 44.7521 66.999 44.7521H76.2114C77.8628 44.7521 79.208 43.5605 79.208 42.0953V23.7536C79.208 19.3051 76.7959 16.4982 71.0347 16.4982ZM71.8418 36.6758V37.4349C71.8418 37.4966 71.8325 37.5584 71.8232 37.6114C71.814 37.6643 71.7954 37.7173 71.7769 37.7703C71.6191 38.1939 71.1738 38.5029 70.645 38.5029H68.5298C67.8711 38.5029 67.333 38.0262 67.333 37.4349V36.5257C67.333 36.5169 67.333 36.4992 67.333 36.4904V34.0631V33.304V33.2952C67.333 32.7126 67.8711 32.236 68.5298 32.236H70.645C71.3037 32.236 71.8418 32.7126 71.8418 33.304V36.6758ZM51.209 16.4629H40.104C39.4917 16.4629 39 16.9395 39 17.5133V22.2531C39 22.262 39 22.2708 39 22.2796C39 22.3061 39 22.3237 39 22.3414V43.7812C39 44.3637 39.4546 44.8404 40.0298 44.8492H45.2065C45.8281 44.8492 46.3291 44.3725 46.3291 43.7812L46.3477 36.4374H51.209C55.2725 36.4374 58.1113 33.7542 58.1113 29.8616V23.0475C58.1113 19.1638 55.2725 16.4629 51.209 16.4629ZM50.7637 25.3248V28.3082C50.7637 28.9349 50.2349 29.4468 49.5762 29.4468H46.3569V23.4712H49.5762C50.2349 23.4712 50.7637 23.9743 50.7637 24.601V25.3248Z" fill="#20336B"/>
</g>
<defs>
<clipPath id="clip0_911_597">
<rect width="114" height="34" fill="white" transform="translate(39 11)"/>
</clipPath>
</defs>
</svg>
