<svg width="114" height="34" viewBox="0 0 114 34" fill="none" xmlns="http://www.w3.org/2000/svg">
<g clip-path="url(#clip0_303_1120)">
<path d="M113.62 10.027C112.581 7.21132 109.76 5.19003 106.458 5.19003H106.383C104.231 5.19003 102.292 6.04621 100.91 7.41433C99.5273 6.04621 97.5884 5.19003 95.436 5.19003H95.3711C93.4785 5.19003 91.7437 5.85203 90.417 6.9377V6.39045C90.3706 5.83437 89.8975 5.40187 89.3037 5.40187H84.2197C83.5981 5.40187 83.0972 5.8785 83.0972 6.46989V32.7201C83.0972 33.3115 83.5981 33.7882 84.2197 33.7882H89.3037C89.8696 33.7882 90.3428 33.3821 90.4077 32.8702V14.0254C90.4077 13.9548 90.4077 13.9019 90.417 13.8401C90.5005 13.0016 91.1499 12.3043 92.1704 12.2248H93.1074C93.5342 12.2601 93.896 12.4014 94.1743 12.622C94.6196 12.9574 94.8608 13.4694 94.8608 14.0343L94.8794 32.7819C94.8794 33.3733 95.3804 33.8588 96.002 33.8588H101.086C101.689 33.8588 102.171 33.4086 102.199 32.8437V14.0166C102.199 13.3988 102.496 12.8339 103.025 12.5073C103.285 12.3484 103.6 12.2425 103.962 12.2072H104.899C106.003 12.2954 106.662 13.0898 106.662 14.0166L106.68 32.7466C106.68 33.338 107.181 33.8146 107.803 33.8146H112.887C113.48 33.8146 113.972 33.3733 114.009 32.8172V12.2778C113.981 11.1215 113.824 10.5831 113.62 10.027ZM79.2192 5.47248H76.3154V0.988577C76.3154 0.979751 76.3154 0.979751 76.3154 0.970924C76.3154 0.441329 75.8608 0 75.2856 0C75.2207 0 75.1558 0.00882658 75.0908 0.0176532C71.8716 0.856179 72.5117 5.10177 66.6299 5.46366H66.064C65.9805 5.46366 65.897 5.47248 65.8135 5.49013C65.3218 5.60488 64.9414 6.02856 64.9414 6.5405V11.3775C64.9414 11.9688 65.4424 12.4455 66.064 12.4455H69.1255L69.1162 32.9408C69.1162 33.5234 69.6172 34 70.2295 34H75.2578C75.8701 34 76.3711 33.5234 76.3711 32.9408V12.4455H79.2192C79.8315 12.4455 80.3418 11.96 80.3418 11.3775V6.5405C80.3418 5.94912 79.8408 5.47248 79.2192 5.47248Z" fill="#00BAF2"/>
<path d="M60.9429 5.47172H55.8589C55.2466 5.47172 54.7363 5.94835 54.7363 6.53973V16.5403C54.7271 17.1581 54.1982 17.6524 53.5488 17.6524H51.4243C50.7656 17.6524 50.2275 17.1493 50.2275 16.5226L50.209 6.53973C50.209 5.94835 49.708 5.47172 49.0864 5.47172H44.0024C43.3809 5.47172 42.8799 5.94835 42.8799 6.53973V17.4935C42.8799 21.6508 45.9971 24.6254 50.376 24.6254C50.376 24.6254 53.6602 24.6254 53.7622 24.6431C54.356 24.7048 54.8106 25.1815 54.8106 25.764C54.8106 26.3378 54.3652 26.8144 53.7715 26.885C53.7437 26.885 53.7158 26.8938 53.688 26.9027L46.2568 26.9291C45.6353 26.9291 45.1343 27.4058 45.1343 27.9972V32.8253C45.1343 33.4167 45.6353 33.8933 46.2568 33.8933H54.5601C58.939 33.8933 62.0562 30.9276 62.0562 26.7703V6.53973C62.0654 5.94835 61.5645 5.47172 60.9429 5.47172ZM32.0347 5.4982H24.9839C24.3623 5.4982 23.8521 5.94835 23.8521 6.4956V8.37566C23.8521 8.38449 23.8521 8.40214 23.8521 8.41097C23.8521 8.42862 23.8521 8.43745 23.8521 8.4551V11.0325C23.8521 11.615 24.3901 12.1005 25.0488 12.1005H31.7656C32.2944 12.1799 32.7119 12.5506 32.7769 13.1244V13.7511C32.7212 14.2983 32.3037 14.6955 31.7935 14.7396H28.4722C24.0469 14.7396 20.9019 17.5377 20.9019 21.4567V27.0792C20.9019 30.9805 23.6108 33.7521 27.999 33.7521H37.2114C38.8628 33.7521 40.208 32.5605 40.208 31.0953V12.7536C40.208 8.30505 37.7959 5.4982 32.0347 5.4982ZM32.8418 25.6758V26.4349C32.8418 26.4966 32.8325 26.5584 32.8232 26.6114C32.814 26.6643 32.7954 26.7173 32.7769 26.7703C32.6191 27.1939 32.1738 27.5029 31.645 27.5029H29.5298C28.8711 27.5029 28.333 27.0262 28.333 26.4349V25.5257C28.333 25.5169 28.333 25.4992 28.333 25.4904V23.0631V22.304V22.2952C28.333 21.7126 28.8711 21.236 29.5298 21.236H31.645C32.3037 21.236 32.8418 21.7126 32.8418 22.304V25.6758ZM12.209 5.46289H1.104C0.491699 5.46289 0 5.93953 0 6.51325V11.2531C0 11.262 0 11.2708 0 11.2796C0 11.3061 0 11.3237 0 11.3414V32.7812C0 33.3637 0.45459 33.8404 1.02979 33.8492H6.20654C6.82813 33.8492 7.3291 33.3725 7.3291 32.7812L7.34766 25.4374H12.209C16.2725 25.4374 19.1113 22.7542 19.1113 18.8616V12.0475C19.1113 8.16382 16.2725 5.46289 12.209 5.46289ZM11.7637 14.3248V17.3082C11.7637 17.9349 11.2349 18.4468 10.5762 18.4468H7.35693V12.4712H10.5762C11.2349 12.4712 11.7637 12.9743 11.7637 13.601V14.3248Z" fill="#20336B"/>
</g>
<defs>
<clipPath id="clip0_303_1120">
<rect width="114" height="34" fill="white"/>
</clipPath>
</defs>
</svg>
