<svg width="82" height="80" viewBox="0 0 82 80" fill="none" xmlns="http://www.w3.org/2000/svg">
<path d="M42.3144 48.4923C39.895 42.0446 28.9899 42.8074 28.9065 49.5292C28.8707 52.5326 32.3866 53.9151 35.3304 54.3799C46.0566 56.0722 43.089 66.1669 35.3304 65.7736C29.4428 65.4875 27.7385 61.495 27.5598 60.5415" stroke="#222222" stroke-width="1.6" stroke-linecap="round" stroke-linejoin="round"/>
<path d="M35.4623 38.6357V44.0466" stroke="#222222" stroke-width="1.6" stroke-linecap="round" stroke-linejoin="round"/>
<path d="M35.4623 65.7852V71.1841" stroke="#222222" stroke-width="1.6" stroke-linecap="round" stroke-linejoin="round"/>
<path d="M27.0227 29.5416L2.76933 66.9168C-0.651163 72.1846 3.62743 78.7872 10.4684 78.7872H59.416C66.257 78.7872 70.5356 72.1965 67.1151 66.9168L42.8618 29.5416" stroke="#222222" stroke-width="1.6" stroke-linecap="round" stroke-linejoin="round"/>
<path d="M42.8265 18.8639L48.2492 10.5093H21.6361L27.0588 18.8639" stroke="#222222" stroke-width="1.6" stroke-linecap="round" stroke-linejoin="round"/>
<path d="M42.863 24.2029H27.0238" stroke="#222222" stroke-width="1.6" stroke-linecap="round" stroke-linejoin="round"/>
<path d="M60.9888 38.683V24.2025H51.8715L66.4354 1.76074L80.9993 24.2025H72.025V55.6663L60.9888 38.683Z" fill="#FFAD00"/>
<path d="M60.9888 38.683V24.2025H51.8715L66.4354 1.76074L80.9993 24.2025H72.025V55.6663" stroke="#222222" stroke-width="1.6" stroke-linecap="round" stroke-linejoin="round"/>
</svg>
