<svg width="192" height="56" viewBox="0 0 192 56" fill="none" xmlns="http://www.w3.org/2000/svg">
<rect width="192" height="56" fill="white"/>
<path d="M60.752 33.1604C63.5952 21.0963 56.139 9.00705 44.0981 6.15837C32.0572 3.30969 19.9913 10.7803 17.1481 22.8444C14.3049 34.9086 21.7611 46.9978 33.802 49.8465C45.8429 52.6952 57.9088 45.2246 60.752 33.1604Z" fill="#5F259F"/>
<path d="M129.844 40.8295V32.6789C129.844 30.6726 129.093 29.6694 127.215 29.6694C126.464 29.6694 125.588 29.7948 125.088 29.9202V41.8327C125.088 42.2089 124.712 42.5851 124.337 42.5851H121.458C121.083 42.5851 120.707 42.2089 120.707 41.8327V27.9139C120.707 27.4123 121.083 27.0362 121.458 26.9108C123.336 26.2838 125.213 25.9076 127.215 25.9076C131.721 25.9076 134.224 28.2901 134.224 32.6789V41.9581C134.224 42.3343 133.848 42.7105 133.473 42.7105H131.721C130.594 42.7105 129.844 41.8327 129.844 40.8295ZM141.107 35.9392L140.982 37.0677C140.982 38.5724 141.983 39.4502 143.61 39.4502C144.862 39.4502 145.988 39.074 147.24 38.447C147.365 38.447 147.49 38.3216 147.615 38.3216C147.866 38.3216 147.991 38.447 148.116 38.5724C148.241 38.6978 148.491 39.074 148.491 39.074C148.742 39.4502 148.992 39.9518 148.992 40.328C148.992 40.9549 148.616 41.5819 148.116 41.8327C146.739 42.5851 145.112 42.9612 143.36 42.9612C141.358 42.9612 139.731 42.4597 138.479 41.4565C137.228 40.328 136.477 38.8232 136.477 36.9423V32.0519C136.477 28.1647 138.98 25.7822 143.235 25.7822C147.365 25.7822 149.743 28.0393 149.743 32.0519V35.0614C149.743 35.4376 149.367 35.8138 148.992 35.8138H141.107V35.9392ZM140.982 33.1805H145.738V31.9265C145.738 30.4218 144.862 29.4186 143.36 29.4186C141.858 29.4186 140.982 30.2964 140.982 31.9265V33.1805ZM172.896 35.9392L172.771 37.0677C172.771 38.5724 173.772 39.4502 175.399 39.4502C176.651 39.4502 177.777 39.074 179.029 38.447C179.154 38.447 179.279 38.3216 179.404 38.3216C179.654 38.3216 179.779 38.447 179.905 38.5724C180.03 38.6978 180.28 39.074 180.28 39.074C180.53 39.4502 180.781 39.9518 180.781 40.328C180.781 40.9549 180.405 41.5819 179.905 41.8327C178.528 42.5851 176.901 42.9612 175.149 42.9612C173.146 42.9612 171.519 42.4597 170.268 41.4565C169.016 40.328 168.265 38.8232 168.265 36.9423V32.0519C168.265 28.1647 170.768 25.7822 175.024 25.7822C179.154 25.7822 181.532 28.0393 181.532 32.0519V35.0614C181.532 35.4376 181.156 35.8138 180.781 35.8138H172.896V35.9392ZM172.771 33.1805H177.527V31.9265C177.527 30.4218 176.651 29.4186 175.149 29.4186C173.647 29.4186 172.771 30.2964 172.771 31.9265V33.1805ZM99.1811 42.7105H100.933C101.309 42.7105 101.684 42.3343 101.684 41.9581V32.6789C101.684 28.4155 99.4314 25.9076 95.6768 25.9076C94.5504 25.9076 93.2989 26.1584 92.548 26.4092V21.7696C92.548 20.7664 91.6719 19.8887 90.6707 19.8887H88.9185C88.5431 19.8887 88.1676 20.2649 88.1676 20.641V41.9581C88.1676 42.3343 88.5431 42.7105 88.9185 42.7105H91.7971C92.1725 42.7105 92.548 42.3343 92.548 41.9581V30.171C93.1737 29.9202 94.0498 29.7948 94.6756 29.7948C96.5529 29.7948 97.3038 30.6726 97.3038 32.8043V40.9549C97.4289 41.8327 98.1798 42.7105 99.1811 42.7105ZM118.079 32.1773V36.8169C118.079 40.7041 115.451 43.0866 111.071 43.0866C106.815 43.0866 104.062 40.7041 104.062 36.8169V32.1773C104.062 28.2901 106.69 25.9076 111.071 25.9076C115.451 25.9076 118.079 28.2901 118.079 32.1773ZM113.699 32.1773C113.699 30.6726 112.823 29.6694 111.196 29.6694C109.569 29.6694 108.693 30.5472 108.693 32.1773V36.8169C108.693 38.3216 109.569 39.1994 111.196 39.1994C112.823 39.1994 113.699 38.3216 113.699 36.8169V32.1773ZM85.7897 30.0456C85.7897 34.0582 82.7861 36.8169 78.7812 36.8169C77.7799 36.8169 76.9039 36.6915 76.0278 36.3153V41.9581C76.0278 42.3343 75.6524 42.7105 75.2769 42.7105H72.3984C72.0229 42.7105 71.6475 42.3343 71.6475 41.9581V22.0204C71.6475 21.5188 72.0229 21.1426 72.3984 21.0172C74.2757 20.3902 76.153 20.0141 78.1554 20.0141C82.6609 20.0141 85.7897 22.7727 85.7897 27.0362V30.0456ZM81.2842 26.7854C81.2842 24.7791 79.9075 23.7759 78.0303 23.7759C76.9039 23.7759 76.153 24.1521 76.153 24.1521V32.4281C76.9039 32.8043 77.2793 32.9297 78.1554 32.9297C80.0327 32.9297 81.4094 31.8011 81.4094 29.9202V26.7854H81.2842ZM166.638 30.0456C166.638 34.0582 163.635 36.8169 159.63 36.8169C158.629 36.8169 157.753 36.6915 156.877 36.3153V41.9581C156.877 42.3343 156.501 42.7105 156.126 42.7105H153.247C152.872 42.7105 152.496 42.3343 152.496 41.9581V22.0204C152.496 21.5188 152.872 21.1426 153.247 21.0172C155.124 20.3902 157.002 20.0141 159.004 20.0141C163.51 20.0141 166.638 22.7727 166.638 27.0362V30.0456ZM162.133 26.7854C162.133 24.7791 160.756 23.7759 158.879 23.7759C157.753 23.7759 157.002 24.1521 157.002 24.1521V32.4281C157.753 32.8043 158.128 32.9297 159.004 32.9297C160.881 32.9297 162.258 31.8011 162.258 29.9202V26.7854H162.133Z" fill="#5F259F"/>
<path d="M49.276 22.3764C49.276 21.4986 48.5251 20.7463 47.649 20.7463H44.6453L37.7619 12.8464C37.1362 12.094 36.1349 11.8433 35.1337 12.094L32.7558 12.8464C32.3803 12.9718 32.2552 13.4734 32.5055 13.7242L40.0147 20.8717H28.6258C28.2503 20.8717 28 21.1224 28 21.4986V22.7526C28 23.6303 28.7509 24.3827 29.627 24.3827H31.3791V30.4016C31.3791 34.9158 33.757 37.5491 37.7619 37.5491C39.0134 37.5491 40.0147 37.4237 41.2662 36.9221V40.9348C41.2662 42.0633 42.1423 42.9411 43.2686 42.9411H45.0208C45.3962 42.9411 45.7717 42.5649 45.7717 42.1887V24.2573H48.6502C49.0257 24.2573 49.276 24.0065 49.276 23.6303V22.3764ZM41.2662 33.1603C40.5153 33.5365 39.5141 33.6619 38.7631 33.6619C36.7607 33.6619 35.7595 32.6587 35.7595 30.4016V24.3827H41.2662V33.1603Z" fill="white"/>
</svg>
