<svg width="171" height="55" viewBox="0 0 171 55" fill="none" xmlns="http://www.w3.org/2000/svg">
<path d="M49.6558 32.2591C52.499 20.1949 45.0428 8.10569 33.0019 5.257C20.961 2.40832 8.89506 9.87892 6.05187 21.9431C3.20867 34.0072 10.6649 46.0964 22.7058 48.9451C34.7467 51.7938 46.8126 44.3232 49.6558 32.2591Z" fill="#5F259F"/>
<path d="M118.747 39.9282V31.7775C118.747 29.7712 117.996 28.7681 116.119 28.7681C115.368 28.7681 114.492 28.8935 113.992 29.0189V40.9313C113.992 41.3075 113.616 41.6837 113.241 41.6837H110.362C109.987 41.6837 109.611 41.3075 109.611 40.9313V27.0125C109.611 26.511 109.987 26.1348 110.362 26.0094C112.239 25.3824 114.117 25.0062 116.119 25.0062C120.625 25.0062 123.128 27.3887 123.128 31.7775V41.0567C123.128 41.4329 122.752 41.8091 122.377 41.8091H120.625C119.498 41.8091 118.747 40.9313 118.747 39.9282ZM130.011 35.0378L129.886 36.1663C129.886 37.6711 130.887 38.5488 132.514 38.5488C133.766 38.5488 134.892 38.1726 136.144 37.5457C136.269 37.5457 136.394 37.4203 136.519 37.4203C136.769 37.4203 136.894 37.5457 137.02 37.6711C137.145 37.7965 137.395 38.1726 137.395 38.1726C137.645 38.5488 137.896 39.0504 137.896 39.4266C137.896 40.0536 137.52 40.6805 137.02 40.9313C135.643 41.6837 134.016 42.0599 132.264 42.0599C130.261 42.0599 128.634 41.5583 127.383 40.5551C126.131 39.4266 125.38 37.9219 125.38 36.0409V31.1506C125.38 27.2633 127.883 24.8808 132.139 24.8808C136.269 24.8808 138.647 27.1379 138.647 31.1506V34.16C138.647 34.5362 138.271 34.9124 137.896 34.9124H130.011V35.0378ZM129.886 32.2791H134.642V31.0252C134.642 29.5204 133.766 28.5173 132.264 28.5173C130.762 28.5173 129.886 29.395 129.886 31.0252V32.2791ZM161.8 35.0378L161.675 36.1663C161.675 37.6711 162.676 38.5488 164.303 38.5488C165.554 38.5488 166.681 38.1726 167.932 37.5457C168.058 37.5457 168.183 37.4203 168.308 37.4203C168.558 37.4203 168.683 37.5457 168.808 37.6711C168.934 37.7965 169.184 38.1726 169.184 38.1726C169.434 38.5488 169.684 39.0504 169.684 39.4266C169.684 40.0536 169.309 40.6805 168.808 40.9313C167.432 41.6837 165.805 42.0599 164.053 42.0599C162.05 42.0599 160.423 41.5583 159.172 40.5551C157.92 39.4266 157.169 37.9219 157.169 36.0409V31.1506C157.169 27.2633 159.672 24.8808 163.927 24.8808C168.058 24.8808 170.435 27.1379 170.435 31.1506V34.16C170.435 34.5362 170.06 34.9124 169.684 34.9124H161.8V35.0378ZM161.675 32.2791H166.431V31.0252C166.431 29.5204 165.554 28.5173 164.053 28.5173C162.551 28.5173 161.675 29.395 161.675 31.0252V32.2791ZM88.0849 41.8091H89.837C90.2125 41.8091 90.5879 41.4329 90.5879 41.0567V31.7775C90.5879 27.5141 88.3352 25.0062 84.5806 25.0062C83.4542 25.0062 82.2027 25.257 81.4518 25.5078V20.8682C81.4518 19.8651 80.5757 18.9873 79.5745 18.9873H77.8224C77.4469 18.9873 77.0714 19.3635 77.0714 19.7397V41.0567C77.0714 41.4329 77.4469 41.8091 77.8224 41.8091H80.7009C81.0763 41.8091 81.4518 41.4329 81.4518 41.0567V29.2696C82.0775 29.0189 82.9536 28.8935 83.5794 28.8935C85.4567 28.8935 86.2076 29.7712 86.2076 31.9029V40.0536C86.3327 40.9313 87.0837 41.8091 88.0849 41.8091ZM106.983 31.276V35.9155C106.983 39.8028 104.355 42.1853 99.9744 42.1853C95.7192 42.1853 92.9658 39.8028 92.9658 35.9155V31.276C92.9658 27.3887 95.594 25.0062 99.9744 25.0062C104.355 25.0062 106.983 27.3887 106.983 31.276ZM102.603 31.276C102.603 29.7712 101.727 28.7681 100.1 28.7681C98.4726 28.7681 97.5965 29.6458 97.5965 31.276V35.9155C97.5965 37.4203 98.4726 38.298 100.1 38.298C101.727 38.298 102.603 37.4203 102.603 35.9155V31.276ZM74.6935 29.1443C74.6935 33.1569 71.6899 35.9155 67.685 35.9155C66.6838 35.9155 65.8077 35.7902 64.9316 35.414V41.0567C64.9316 41.4329 64.5562 41.8091 64.1807 41.8091H61.3022C60.9267 41.8091 60.5513 41.4329 60.5513 41.0567V21.119C60.5513 20.6174 60.9267 20.2412 61.3022 20.1159C63.1795 19.4889 65.0568 19.1127 67.0592 19.1127C71.5647 19.1127 74.6935 21.8714 74.6935 26.1348V29.1443ZM70.188 25.884C70.188 23.8777 68.8114 22.8745 66.9341 22.8745C65.8077 22.8745 65.0568 23.2507 65.0568 23.2507V31.5267C65.8077 31.9029 66.1831 32.0283 67.0592 32.0283C68.9365 32.0283 70.3132 30.8998 70.3132 29.0189V25.884H70.188ZM155.542 29.1443C155.542 33.1569 152.539 35.9155 148.534 35.9155C147.532 35.9155 146.656 35.7902 145.78 35.414V41.0567C145.78 41.4329 145.405 41.8091 145.029 41.8091H142.151C141.775 41.8091 141.4 41.4329 141.4 41.0567V21.119C141.4 20.6174 141.775 20.2412 142.151 20.1159C144.028 19.4889 145.905 19.1127 147.908 19.1127C152.413 19.1127 155.542 21.8714 155.542 26.1348V29.1443ZM151.037 25.884C151.037 23.8777 149.66 22.8745 147.783 22.8745C146.656 22.8745 145.905 23.2507 145.905 23.2507V31.5267C146.656 31.9029 147.032 32.0283 147.908 32.0283C149.785 32.0283 151.162 30.8998 151.162 29.0189V25.884H151.037Z" fill="#5F259F"/>
<path d="M38.0235 21.2426C38.0235 20.3648 37.2726 19.6125 36.3965 19.6125H33.3929L26.5095 11.7126C25.8837 10.9603 24.8825 10.7095 23.8813 10.9603L21.5034 11.7126C21.1279 11.838 21.0028 12.3396 21.2531 12.5904L28.7622 19.7379H17.3733C16.9979 19.7379 16.7476 19.9887 16.7476 20.3648V21.6188C16.7476 22.4965 17.4985 23.2489 18.3745 23.2489H20.1267V29.2678C20.1267 33.782 22.5046 36.4153 26.5095 36.4153C27.761 36.4153 28.7622 36.2899 30.0138 35.7883V39.801C30.0138 40.9295 30.8898 41.8073 32.0162 41.8073H33.7683C34.1438 41.8073 34.5193 41.4311 34.5193 41.0549V23.1235H37.3978C37.7732 23.1235 38.0235 22.8727 38.0235 22.4965V21.2426ZM30.0138 32.0265C29.2628 32.4027 28.2616 32.5281 27.5107 32.5281C25.5083 32.5281 24.507 31.5249 24.507 29.2678V23.2489H30.0138V32.0265Z" fill="white"/>
</svg>
