<svg width="223" height="68" viewBox="0 0 223 68" fill="none" xmlns="http://www.w3.org/2000/svg">
<g clip-path="url(#clip0_580_2377)">
<path fill-rule="evenodd" clip-rule="evenodd" d="M23.5818 51.17C23.58 46.8131 27.0976 43.2797 31.4394 43.277H31.4519V35.3877H0V43.277C4.3418 43.277 7.86209 46.8095 7.86209 51.1664V51.1709C7.86209 55.5277 4.34359 59.0593 0.00268178 59.0602H0.000893927V66.9496H31.4528V59.0593C27.111 59.0647 23.5881 55.5376 23.5827 51.1807C23.5827 51.1807 23.5827 51.1807 23.5827 51.1798V51.1718L23.5818 51.17Z" fill="#05BFE0"/>
<path fill-rule="evenodd" clip-rule="evenodd" d="M50.3226 17.4983C50.3209 8.78458 43.2803 1.72229 34.5967 1.72229V33.2833C43.2803 33.2833 50.3209 26.221 50.3226 17.5073C50.3244 26.221 57.365 33.2833 66.0486 33.2833V1.72229C57.365 1.72229 50.3244 8.78458 50.3226 17.4983Z" fill="#FF610F"/>
<path fill-rule="evenodd" clip-rule="evenodd" d="M20.6256 17.5028H5.91333V7.65343H20.6274C23.3369 7.65343 25.5332 9.85922 25.5323 12.5781C25.5323 15.297 23.3369 17.5019 20.6274 17.5028H20.6265H20.6256ZM21.6071 1.77163C21.2808 1.73933 20.9537 1.72319 20.6256 1.72229H0V33.2833H5.89009V23.4339H20.6265C20.9563 23.4339 21.2817 23.4339 21.608 23.3846C27.549 22.8553 31.9364 17.5898 31.409 11.6264C30.9478 6.39759 26.8187 2.25154 21.608 1.78598V1.77252L21.6071 1.77163Z" fill="#231F20"/>
<path fill-rule="evenodd" clip-rule="evenodd" d="M33.5483 66.9478V57.4797L42.9837 66.9478H33.5483ZM52.0222 66.9478L34.5969 49.4594V40.6479L60.8069 66.9487H52.0222V66.9478ZM66.0489 35.3868V44.855L56.6135 35.3868H66.0489ZM65.0003 61.6877L38.7903 35.3868H47.6018L64.9994 52.843V61.6877H65.0003Z" fill="#4F17A8"/>
<path fill-rule="evenodd" clip-rule="evenodd" d="M68.8957 64.8442H69.3463L70.099 66.5432L70.8391 64.8442H71.2897V66.9487H70.9607V65.3035L70.2393 66.9487H69.9273L69.2104 65.3035V66.9487H68.8788L68.8957 64.8442ZM67.7238 65.1412H67.0972V64.8442H68.6803V65.1412H68.0572V66.9388H67.7238V65.1412ZM88.5854 8.80697C89.1244 8.81505 89.6599 8.70202 90.1551 8.47597C90.5949 8.27055 90.9722 7.94942 91.2457 7.54665C91.5058 7.16362 91.6417 6.70524 91.6364 6.2352C91.6444 5.75798 91.5112 5.28794 91.2547 4.89504C90.9856 4.49855 90.6128 4.1837 90.1766 3.98635C89.6769 3.75851 89.1334 3.64458 88.5854 3.65355H85.5067V8.78814L88.5854 8.80697ZM81.7781 0.670044H89.2111C90.2347 0.670044 91.2475 0.890713 92.1852 1.31949C93.1167 1.73481 93.9203 2.39234 94.5139 3.22388C95.1218 4.10207 95.4338 5.16774 95.4007 6.25404C95.4141 7.2605 95.137 8.24902 94.6033 9.1012C94.0616 9.95606 93.2937 10.6423 92.3864 11.0854C91.3843 11.5788 90.2794 11.8273 89.1629 11.8093H85.504V17.5036H81.7746L81.779 0.670941L81.7781 0.670044ZM97.4996 5.22963H100.244L100.772 7.02817C101.045 6.37603 101.517 5.81808 102.127 5.42877C102.74 5.0565 103.446 4.86544 104.163 4.8771C104.817 4.86364 105.463 5.03139 106.029 5.3606C106.583 5.69967 107.038 6.16613 107.352 6.71959C107.708 7.34213 107.923 8.02925 107.984 8.73611L105.076 9.50217C105.064 8.94242 104.845 8.4078 104.462 8.00055C103.822 7.29817 102.756 7.1986 101.998 7.77001C101.648 8.0445 101.384 8.40331 101.229 8.80966C101.043 9.28778 100.951 9.79729 100.958 10.3113V16.4487H97.5041L97.4996 5.22784V5.22963ZM116.886 13.3334C117.334 13.0786 117.701 12.7037 117.946 12.2498C118.203 11.7582 118.333 11.2155 118.322 10.6665C118.332 10.1139 118.203 9.56765 117.946 9.07788C117.7 8.62488 117.332 8.24902 116.886 7.99158C116.42 7.72785 115.894 7.5915 115.359 7.59688C114.824 7.58971 114.297 7.72606 113.832 7.99158C113.389 8.24813 113.027 8.62398 112.784 9.07518C112.525 9.56317 112.394 10.1095 112.404 10.6629C112.393 11.2128 112.524 11.7573 112.784 12.2462C113.02 12.6956 113.384 13.0705 113.833 13.3298C114.294 13.5971 114.828 13.7334 115.367 13.7245C115.901 13.7308 116.427 13.5962 116.885 13.3343L116.886 13.3334ZM112.088 15.7266C111.17 15.2754 110.4 14.5722 109.866 13.6985C109.31 12.7862 109.021 11.7358 109.033 10.6665C109.01 9.60084 109.285 8.55042 109.828 7.63456C110.372 6.75368 111.156 6.04862 112.089 5.6019C114.163 4.63759 116.556 4.63759 118.631 5.6019C119.535 6.05938 120.291 6.76355 120.813 7.63456C121.358 8.55042 121.634 9.60084 121.612 10.6665C121.634 11.7322 121.358 12.7826 120.813 13.6985C120.281 14.5731 119.511 15.2772 118.593 15.7266C116.517 16.6918 114.124 16.6918 112.048 15.7266H112.089H112.088Z" fill="black"/>
<path fill-rule="evenodd" clip-rule="evenodd" d="M123.127 3.40599C122.739 3.03372 122.529 2.51255 122.548 1.97434C122.523 1.43881 122.73 0.917638 123.114 0.545372C123.963 -0.182116 125.211 -0.182116 126.059 0.545372C126.441 0.915844 126.647 1.42715 126.629 1.9555C126.651 2.49282 126.443 3.01399 126.059 3.38805C125.211 4.11554 123.961 4.11554 123.112 3.38805L123.126 3.40599H123.127ZM119.364 22.0875C118.721 21.8067 118.164 21.3582 117.752 20.7886L119.275 18.8097C119.459 19.1748 119.742 19.4834 120.092 19.6987C120.419 19.9032 120.796 20.0117 121.183 20.0144C121.823 20.0306 122.409 19.6565 122.665 19.0672C122.804 18.7469 122.873 18.4016 122.867 18.0526V5.49158H126.279V18.5595C126.306 20.0602 125.443 21.4344 124.083 22.0597C123.34 22.4095 122.528 22.5835 121.707 22.5674C120.9 22.579 120.101 22.4149 119.363 22.0866L119.364 22.0875ZM132.895 7.57268C132.507 7.76733 132.182 8.05797 131.959 8.4123C131.708 8.79802 131.539 9.2259 131.459 9.67082H136.751C136.7 9.2259 136.555 8.79712 136.326 8.4123C135.89 7.6866 135.063 7.24168 134.17 7.25513C133.726 7.25693 133.289 7.36547 132.896 7.57268M137.399 5.63869C138.282 6.08989 139.011 6.79137 139.498 7.6561C140.009 8.58632 140.263 9.6188 140.242 10.6638V11.1635C140.237 11.3034 140.226 11.4433 140.206 11.5824H131.459C131.525 12.074 131.737 12.5377 132.071 12.9216C132.417 13.3101 132.862 13.6133 133.364 13.8025C133.909 14.0115 134.495 14.1156 135.083 14.1084C135.775 14.1084 136.456 13.9658 137.079 13.6886C137.624 13.4742 138.091 13.1208 138.431 12.6696L140.484 14.0286C139.954 14.8368 139.178 15.4522 138.272 15.7823C137.158 16.2398 135.963 16.4667 134.759 16.4497C133.547 16.4694 132.346 16.2128 131.246 15.6988C130.259 15.2333 129.416 14.5094 128.806 13.6025C128.204 12.71 127.89 11.6542 127.904 10.5768C127.882 9.53089 128.162 8.5011 128.711 7.61125C129.263 6.74652 130.042 6.05132 130.962 5.60191C131.973 5.10765 133.086 4.86007 134.21 4.87891C135.318 4.86635 136.413 5.12738 137.397 5.63869M144.655 15.7258C143.713 15.2656 142.918 14.5498 142.361 13.6581C141.807 12.762 141.519 11.725 141.532 10.6701C141.516 9.617 141.787 8.57914 142.316 7.66956C142.828 6.79585 143.574 6.08361 144.47 5.61537C145.437 5.11034 146.515 4.85738 147.606 4.87981C148.487 4.87442 149.357 5.03768 150.168 5.35882C150.93 5.65214 151.619 6.10694 152.189 6.6918C152.724 7.24347 153.093 7.91983 153.255 8.65001L150.12 9.39364C149.989 8.85094 149.672 8.37103 149.223 8.04093C148.776 7.70006 148.23 7.51706 147.669 7.51975C147.179 7.51168 146.697 7.64893 146.285 7.91445C145.865 8.18894 145.531 8.57645 145.321 9.03304C145.078 9.54434 144.957 10.105 144.967 10.671C144.959 11.2388 145.095 11.8022 145.366 12.3099C145.608 12.7683 145.98 13.1558 146.441 13.4285C147.333 13.9191 148.428 13.9505 149.349 13.5128C149.763 13.3119 150.125 13.0248 150.401 12.6714C150.683 12.3144 150.866 11.8981 150.934 11.4586L154.111 11.8784C153.993 12.7503 153.628 13.5702 153.059 14.2403C152.457 14.9471 151.7 15.5042 150.847 15.8666C148.858 16.6972 146.611 16.6434 144.663 15.7195L144.655 15.7267V15.7258ZM158.593 16.9942C157.926 16.6802 157.367 16.1716 156.992 15.5338C156.615 14.8458 156.427 14.0689 156.451 13.2832V8.19791H154.112V5.63331H156.45V2.46411L160.025 1.72227L159.996 5.63241H164.928V8.19701H159.996L160.02 12.7584C159.993 13.2948 160.18 13.8214 160.544 14.2313C160.898 14.5973 161.391 14.7946 161.899 14.7731C162.42 14.7803 162.929 14.6233 163.345 14.33C163.786 14.0079 164.142 13.5935 164.383 13.1181L165.643 15.1203C165.203 15.8603 164.577 16.473 163.828 16.8946C163.013 17.3153 162.093 17.5261 161.165 17.4983C160.28 17.5288 159.401 17.3557 158.592 16.9924M81.7719 25.9178H84.6012L90.6826 39.6611L96.7639 25.9178H99.5932V41.6983H97.6391V28.6044L91.7159 41.6983H89.6447L83.7251 28.6268V41.6983H81.771V25.9178H81.7719ZM108.319 39.7544C108.89 39.4709 109.374 39.0368 109.719 38.4995C110.065 37.9523 110.245 37.3235 110.239 36.683V35.9133L106.846 36.3314C105.596 36.4874 104.698 36.7503 104.17 37.1154C103.697 37.3854 103.394 37.8796 103.367 38.425C103.377 38.9758 103.692 39.4745 104.183 39.7194C104.833 40.072 105.566 40.2406 106.305 40.2083C107.003 40.22 107.693 40.0648 108.32 39.7562M103.771 41.2838C103.168 41.0479 102.641 40.6514 102.246 40.1374C101.881 39.6566 101.686 39.0682 101.692 38.4636C101.687 37.8895 101.866 37.3279 102.204 36.8642C102.624 36.3296 103.172 35.9106 103.797 35.646C104.701 35.263 105.659 35.0253 106.636 34.9419L109.333 34.6243C109.579 34.6118 109.813 34.5194 109.999 34.3615C110.161 34.2206 110.252 34.0152 110.248 33.7999C110.256 33.3739 110.102 32.9612 109.818 32.6446C109.495 32.2956 109.093 32.0301 108.646 31.8704C108.133 31.6821 107.59 31.5879 107.044 31.5942C106.426 31.5852 105.812 31.7126 105.248 31.9673C104.761 32.1826 104.33 32.51 103.99 32.9218C103.697 33.2581 103.518 33.6779 103.479 34.1175L101.976 33.503C102.068 32.8877 102.344 32.3118 102.77 31.8489C103.271 31.291 103.897 30.8604 104.596 30.5931C105.393 30.2773 106.248 30.1194 107.108 30.1293C107.96 30.1141 108.807 30.2791 109.591 30.6146C110.273 30.907 110.86 31.3843 111.288 31.9924C111.699 32.6024 111.912 33.32 111.899 34.0511V39.4925C111.886 39.6835 111.944 39.8737 112.062 40.0244C112.166 40.1509 112.324 40.2218 112.492 40.2173C112.659 40.2092 112.819 40.1491 112.951 40.0459C113.123 39.9186 113.269 39.7607 113.381 39.5813L114.274 40.5985C114.028 40.9492 113.693 41.2273 113.303 41.4022C112.915 41.5933 112.488 41.6956 112.054 41.6992C111.087 41.7413 110.269 41.0093 110.227 40.0666C110.225 40.011 110.225 39.9553 110.227 39.9006V39.4808C109.965 39.9329 109.622 40.3312 109.215 40.6568C108.785 41.0022 108.293 41.2623 107.766 41.4247C107.19 41.6041 106.588 41.6929 105.984 41.6875C105.228 41.7019 104.475 41.5646 103.771 41.2847M115.322 30.5698H116.904L117.061 32.2005C117.466 31.5466 118.046 31.0192 118.734 30.6783C119.442 30.315 120.226 30.1266 121.021 30.1302C121.901 30.1123 122.772 30.3347 123.528 30.7698C124.245 31.1887 124.827 31.7915 125.209 32.5109C125.616 33.294 125.821 34.1597 125.806 35.0334V41.6929H124.042V35.0441C124.052 34.4404 123.919 33.8439 123.654 33.3021C123.405 32.8007 123.015 32.3835 122.532 32.1019C122.009 31.805 121.417 31.6543 120.816 31.6659C118.752 31.6552 117.071 33.2599 117.061 35.2468V41.701H115.321V30.5698H115.322ZM134.523 39.7553C135.096 39.4709 135.581 39.0368 135.929 38.4995C136.267 37.9523 136.438 37.3253 136.427 36.6875V35.9133L133.034 36.3314C131.79 36.4847 130.898 36.7458 130.36 37.1145C129.881 37.3907 129.579 37.8832 129.555 38.4241C129.56 38.9704 129.875 39.4674 130.373 39.7185C131.023 40.0702 131.755 40.2397 132.492 40.2074C133.196 40.2218 133.892 40.0666 134.523 39.7553ZM129.981 41.2829C129.377 41.0488 128.849 40.6523 128.456 40.1365C128.092 39.6566 127.897 39.0673 127.903 38.4636C127.897 37.8895 128.076 37.3288 128.413 36.8642C128.833 36.3278 129.389 35.9089 130.023 35.646C130.926 35.263 131.885 35.0262 132.862 34.9437L135.559 34.6261C135.804 34.6135 136.037 34.5212 136.22 34.3624C136.379 34.2278 136.471 34.0314 136.474 33.8224C136.483 33.3963 136.329 32.9828 136.044 32.667C135.72 32.3181 135.316 32.0516 134.868 31.8929C134.356 31.7045 133.815 31.6112 133.27 31.6175C132.652 31.6076 132.04 31.735 131.476 31.9897C130.987 32.1988 130.552 32.5181 130.204 32.9218C129.914 33.2626 129.736 33.6788 129.694 34.1193L128.194 33.5039C128.285 32.8886 128.561 32.3127 128.989 31.8525C129.49 31.2945 130.115 30.864 130.814 30.5967C131.613 30.2791 132.467 30.1212 133.326 30.132C134.172 30.1212 135.012 30.2899 135.786 30.6227C136.479 30.916 137.076 31.3923 137.504 31.9996C137.913 32.6069 138.125 33.3254 138.113 34.0583V39.497C138.1 39.6871 138.156 39.8755 138.272 40.0289C138.376 40.1545 138.534 40.2244 138.702 40.2218C138.869 40.2128 139.029 40.1536 139.161 40.0504C139.332 39.923 139.478 39.7652 139.591 39.5858L140.483 40.603C140.239 40.9501 139.903 41.2264 139.513 41.4067C139.125 41.5978 138.698 41.6992 138.264 41.7036C137.292 41.7413 136.473 41.0049 136.433 40.0585C136.43 40.0074 136.43 39.9562 136.433 39.9051V39.4862C136.174 39.9383 135.832 40.3375 135.425 40.6613C134.995 41.0049 134.504 41.265 133.978 41.4274C133.402 41.6077 132.801 41.6956 132.196 41.6911C131.438 41.7036 130.685 41.5664 129.981 41.2847M149.392 40.3644C150.029 39.9688 150.545 39.4037 150.881 38.7318C151.243 38.0052 151.422 37.2006 151.406 36.3879C151.418 35.55 151.233 34.7221 150.867 33.9695C150.536 33.2815 150.021 32.7011 149.379 32.2911C148.748 31.8911 148.015 31.6821 147.267 31.6883C145.734 31.6623 144.323 32.5513 143.641 33.9731C143.276 34.7248 143.094 35.5518 143.106 36.3879C143.094 37.2033 143.282 38.0079 143.654 38.7273C143.998 39.401 144.514 39.9652 145.142 40.3581C146.446 41.1439 148.074 41.1439 149.378 40.3581L149.391 40.3644H149.392ZM144.091 47.5541C143.279 47.2688 142.529 46.8284 141.883 46.2561C141.283 45.7259 140.806 45.0711 140.482 44.3373L141.914 43.3165C142.096 43.9247 142.427 44.4781 142.876 44.9258C143.358 45.4093 143.933 45.7833 144.564 46.0228C145.252 46.2919 145.985 46.4265 146.724 46.4193C147.569 46.4364 148.402 46.2282 149.14 45.8165C149.827 45.4299 150.392 44.854 150.765 44.1579C151.157 43.4206 151.355 42.5944 151.34 41.7584V40.1913C150.881 40.917 150.249 41.5171 149.502 41.9378C148.746 42.3558 147.899 42.5675 147.041 42.5531C146.019 42.5666 145.015 42.2894 144.143 41.7539C143.285 41.2184 142.589 40.4586 142.13 39.5553C141.636 38.5739 141.388 37.4876 141.406 36.3888C141.391 35.28 141.64 34.183 142.129 33.1882C143.068 31.282 144.974 30.0952 147.042 30.1356C148.776 30.0907 150.41 30.977 151.361 32.4804L151.538 30.5375H153.063V41.7637C153.079 42.8949 152.797 44.0099 152.245 44.9957C151.723 45.9331 150.948 46.7037 150.01 47.2177C149.015 47.7622 147.897 48.0375 146.764 48.0169C145.853 48.0196 144.949 47.8626 144.092 47.555H144.091V47.5541ZM158.963 32.0463C158.41 32.3234 157.939 32.7397 157.596 33.2537C157.236 33.7901 157.001 34.401 156.908 35.0396H164.546C164.47 34.4036 164.258 33.791 163.925 33.2447C163.611 32.7352 163.165 32.3207 162.635 32.0454C162.081 31.7574 161.463 31.613 160.839 31.6256C160.189 31.6121 159.545 31.7565 158.963 32.0454M163.732 30.8541C164.55 31.3349 165.215 32.0391 165.65 32.8841C166.122 33.7964 166.362 34.801 166.361 35.8192V36.1295C166.36 36.239 166.352 36.3475 166.338 36.456H156.903C156.963 37.1647 157.207 37.8464 157.614 38.4412C158.01 39.009 158.554 39.4701 159.191 39.7786C160.631 40.4487 162.299 40.4137 163.709 39.6826C164.352 39.3579 164.881 38.8457 165.23 38.2142L166.693 38.7883C166.263 39.6907 165.551 40.4281 164.665 40.8865C162.631 41.9539 160.211 41.9781 158.157 40.9492C157.246 40.4684 156.487 39.7418 155.966 38.8511C154.918 37.0104 154.892 34.7571 155.895 32.8913C156.375 32.0373 157.083 31.3349 157.938 30.8613C158.844 30.367 159.861 30.1159 160.892 30.132C161.886 30.1132 162.866 30.3625 163.732 30.8541ZM167.742 30.5868H169.248L169.434 31.9727C169.778 31.4049 170.275 30.9384 170.872 30.6218C171.486 30.3015 172.169 30.1392 172.861 30.1481C173.735 30.1302 174.597 30.3455 175.361 30.7734C176.063 31.1672 176.62 31.7646 176.948 32.4822C177.317 31.7771 177.874 31.1896 178.558 30.7877C180.675 29.5211 183.456 30.1464 184.771 32.1862C184.843 32.2965 184.907 32.4104 184.968 32.5262C185.374 33.3075 185.579 34.1722 185.563 35.0468V41.6956H183.804V35.0352C183.814 34.4324 183.681 33.8367 183.416 33.2958C183.172 32.8025 182.796 32.3871 182.329 32.0965C181.852 31.8041 181.301 31.6534 180.741 31.6623C180.154 31.6578 179.576 31.8076 179.064 32.0965C178.565 32.3808 178.165 32.7989 177.909 33.3003C177.63 33.8367 177.488 34.4341 177.498 35.0396V41.7054H175.762V35.0343C175.772 34.4332 175.642 33.8376 175.384 33.2949C175.148 32.806 174.774 32.397 174.31 32.1162C173.823 31.8256 173.265 31.6758 172.699 31.683C172.107 31.6758 171.523 31.8256 171.007 32.1171C170.526 32.3934 170.135 32.8025 169.879 33.2958C169.607 33.834 169.469 34.4306 169.479 35.0334V41.7045H167.742V30.5877V30.5868ZM191.494 32.0355C190.936 32.3109 190.457 32.7271 190.109 33.2447C189.749 33.782 189.514 34.3929 189.42 35.0334H197.063C196.987 34.3965 196.774 33.7829 196.44 33.2366C196.126 32.7262 195.681 32.3118 195.151 32.0355C194.596 31.7475 193.979 31.6031 193.354 31.6157C192.706 31.604 192.066 31.7484 191.485 32.0364H191.495L191.494 32.0355ZM196.246 30.8424C197.065 31.3242 197.731 32.0283 198.167 32.8751C198.634 33.7901 198.877 34.7947 198.878 35.8138V36.1241C198.877 36.2345 198.87 36.343 198.856 36.4516H189.407C189.463 37.1593 189.705 37.8437 190.11 38.4385C190.505 39.0072 191.049 39.4692 191.687 39.7768C193.128 40.4478 194.796 40.4119 196.208 39.6809C196.851 39.3561 197.381 38.8439 197.729 38.2115L199.194 38.7874C198.763 39.6916 198.049 40.429 197.16 40.8865C195.127 41.9557 192.706 41.979 190.652 40.9492C189.742 40.4658 188.983 39.7392 188.459 38.8493C187.924 37.9272 187.649 36.8759 187.663 35.8093C187.649 34.7912 187.901 33.7865 188.395 32.8975C188.875 32.0427 189.583 31.3394 190.439 30.8649C191.345 30.3697 192.362 30.1176 193.394 30.1338C194.395 30.1105 195.385 30.3554 196.247 30.8442L196.246 30.8424ZM202.339 30.5724H203.914L204.076 32.2041C204.48 31.5502 205.059 31.0219 205.746 30.681C206.452 30.3177 207.235 30.1302 208.029 30.1338C208.911 30.1132 209.781 30.3338 210.548 30.7725C211.257 31.1851 211.838 31.7879 212.225 32.5136C212.632 33.2967 212.836 34.1623 212.822 35.0378V41.6947H211.061V35.0459C211.07 34.4431 210.937 33.8466 210.673 33.3048C210.422 32.8033 210.032 32.3871 209.549 32.1046C209.03 31.8068 208.439 31.6561 207.84 31.6686C207.188 31.6641 206.546 31.8283 205.976 32.1431C205.414 32.4589 204.949 32.9083 204.622 33.4483C204.276 34.0125 204.098 34.6557 204.108 35.3105V41.7036H202.37L202.339 30.5724ZM216.683 42.066C216.113 41.7709 215.638 41.3206 215.31 40.7672C214.982 40.1868 214.817 39.5284 214.831 38.861V31.6049H212.132V30.1141H214.831V26.5636L216.68 26.1384V30.115H222.169V31.6049H216.675V38.6555C216.649 39.2655 216.861 39.862 217.272 40.324C217.673 40.7636 218.257 41.004 218.86 40.978C219.493 40.978 220.103 40.7447 220.565 40.324C221.084 39.8665 221.414 39.2404 221.493 38.5632L223 39.1794C222.856 40.159 222.324 41.0381 221.526 41.6193C220.711 42.2374 219.714 42.5657 218.692 42.5531C217.993 42.5594 217.304 42.3926 216.684 42.0669M81.7746 66.9523H83.8717V51.1718H81.7746V66.9523ZM85.968 55.8219H87.5458L87.7085 57.4545C88.1116 56.8015 88.69 56.2749 89.3765 55.9341C90.0845 55.5672 90.8712 55.377 91.6686 55.3806C92.55 55.3636 93.4198 55.586 94.1769 56.0211C94.8939 56.44 95.4767 57.0437 95.8584 57.7631C96.2651 58.5462 96.4672 59.4118 96.4511 60.2856V66.9514H94.6927V60.2856C94.7026 59.6836 94.5667 59.0862 94.2994 58.5435C94.0518 58.0403 93.6611 57.6223 93.1775 57.3397C92.6546 57.0419 92.061 56.8912 91.4603 56.9038C90.8095 56.8993 90.1685 57.0607 89.5973 57.3738C89.0368 57.6905 88.5702 58.1417 88.2421 58.6817C87.8971 59.2414 87.7183 59.8882 87.7263 60.5466V66.946H85.968V55.8202V55.8219ZM101.423 66.4499C100.679 66.171 100.009 65.726 99.4618 65.1483C98.9728 64.6272 98.6537 63.9678 98.5491 63.2601L100.283 62.9416C100.327 63.4216 100.53 63.8772 100.863 64.2468C101.227 64.6505 101.699 64.9609 102.233 65.1474C102.824 65.3654 103.458 65.474 104.095 65.465C104.655 65.4722 105.212 65.3905 105.746 65.2228C106.179 65.09 106.574 64.8577 106.901 64.5446C107.172 64.2836 107.325 63.9382 107.33 63.5776C107.336 63.2197 107.165 62.8833 106.873 62.6779C106.527 62.4259 106.135 62.2456 105.719 62.1469C105.131 62.0007 104.538 61.8778 103.94 61.7791C103.106 61.6481 102.28 61.4705 101.466 61.2481C100.867 61.0812 100.316 60.7726 99.8596 60.3483C99.4055 59.8918 99.1668 59.2629 99.2026 58.6189C99.199 58.0197 99.3992 57.4366 99.7684 56.9666C100.176 56.4508 100.709 56.0489 101.316 55.7986C102.016 55.5107 102.768 55.3689 103.524 55.3806C104.277 55.3699 105.023 55.5008 105.719 55.7618C106.349 55.9951 106.913 56.3539 107.371 56.8114C107.801 57.2366 108.101 57.7595 108.238 58.3264L106.554 58.7454C106.471 58.1722 106.119 57.6618 105.591 57.3469C104.963 56.9612 104.236 56.7692 103.501 56.7943C103.055 56.7898 102.611 56.8733 102.196 57.0419C101.835 57.1792 101.513 57.4052 101.261 57.6994C101.037 57.9524 100.914 58.2798 100.914 58.6189C100.902 58.9696 101.075 59.3015 101.37 59.4899C101.614 59.6711 101.891 59.8128 102.188 59.9088C102.42 59.9626 103.146 60.0918 104.359 60.2882C105.173 60.4282 105.973 60.6228 106.755 60.8713C107.37 61.0714 107.928 61.397 108.385 61.8248C108.826 62.2671 109.058 62.8502 109.033 63.4494C109.035 64.1042 108.805 64.7384 108.385 65.2398C107.91 65.8023 107.302 66.2346 106.614 66.4957C105.809 66.8105 104.951 66.9657 104.086 66.9514C103.175 66.9567 102.272 66.7863 101.425 66.4499M113.43 67.5389C112.876 67.2546 112.415 66.8168 112.101 66.2768C111.786 65.7179 111.626 65.0855 111.638 64.4442V57.4805H109.035V56.0489H111.638V52.6402L113.422 52.2258V56.0489H118.703V57.4805H113.417V64.2639C113.394 64.8532 113.599 65.4282 113.992 65.8669C114.382 66.2876 114.946 66.5172 115.529 66.4921C116.137 66.4939 116.724 66.2714 117.169 65.8669C117.668 65.4246 117.987 64.8209 118.063 64.1688L119.518 64.7617C119.378 65.7036 118.865 66.5495 118.096 67.1065C117.31 67.7031 116.348 68.0188 115.363 68.0054C114.69 68.0143 114.026 67.8538 113.431 67.538M121.042 54.9967H123.16V66.9532H121.063L121.042 54.9967ZM121.004 52.3845C120.708 52.128 120.55 51.7799 120.568 51.4211C120.555 51.0722 120.713 50.734 121.004 50.4873C121.324 50.2326 121.724 50.1034 122.132 50.1222C122.552 50.1142 122.96 50.246 123.265 50.4918C123.562 50.7367 123.724 51.0758 123.712 51.4274C123.729 51.7871 123.567 52.1361 123.265 52.3899C122.938 52.642 122.533 52.7712 122.121 52.755C121.716 52.7712 121.319 52.6393 121.004 52.3854V52.3845ZM128.109 67.5551C127.554 67.2707 127.092 66.8321 126.779 66.2911C126.465 65.7323 126.306 65.0981 126.317 64.4567V57.485H123.713V56.0507H126.317V52.6375L128.1 52.2231V56.0507H133.41V57.485H128.095V64.2755C128.072 64.8649 128.278 65.4408 128.67 65.8812C129.061 66.3019 129.625 66.5315 130.208 66.5064C130.815 66.5082 131.403 66.2858 131.847 65.8812C132.343 65.4444 132.661 64.8389 132.741 64.1813L134.196 64.7572C134.056 65.6991 133.545 66.545 132.778 67.1057C131.99 67.7013 131.026 68.0179 130.04 68.0045C129.369 68.0188 128.705 67.8645 128.109 67.5551ZM137.529 67.3783C136.812 66.972 136.225 66.3683 135.838 65.6381C135.432 64.8523 135.228 63.9768 135.246 63.0924V56.4337H136.989V63.0924C136.977 63.6943 137.115 64.2917 137.388 64.8335C137.644 65.326 138.037 65.7413 138.524 66.0337C139.047 66.3351 139.642 66.4858 140.245 66.4697C140.889 66.4732 141.525 66.31 142.088 65.9951C142.646 65.6857 143.114 65.2362 143.447 64.6908C143.793 64.1329 143.972 63.4852 143.962 62.8277V56.4346H145.729V67.5658H144.147L143.962 65.935C143.566 66.5934 142.989 67.1227 142.3 67.4573C141.598 67.8161 140.822 68.0036 140.035 68.0054C139.158 68.0233 138.293 67.8062 137.528 67.3783M151.169 67.556C150.617 67.2698 150.157 66.8312 149.844 66.292C149.53 65.7332 149.37 65.099 149.381 64.4576V57.4859H146.777V56.0516H149.381V52.6384L151.164 52.224V56.0516H156.465V57.4859H151.16V64.2764C151.137 64.8658 151.343 65.4417 151.735 65.8821C152.126 66.3028 152.69 66.5324 153.273 66.5073C153.881 66.5073 154.468 66.284 154.912 65.8821C155.411 65.4381 155.73 64.8344 155.806 64.1822L157.261 64.7581C157.122 65.7009 156.609 66.5477 155.839 67.1065C155.053 67.7031 154.092 68.0188 153.106 68.0054C152.434 68.0188 151.768 67.8645 151.17 67.556M162.108 57.3029C161.552 57.5873 161.083 58.0053 160.745 58.5157C160.385 59.0512 160.15 59.6612 160.056 60.2999H167.694C167.622 59.6621 167.409 59.0486 167.072 58.5032C166.758 57.9954 166.314 57.581 165.787 57.3029C165.23 57.015 164.611 56.8706 163.985 56.8822C163.339 56.8724 162.701 57.0159 162.122 57.3029H162.108ZM166.861 56.1099C167.683 56.588 168.35 57.294 168.782 58.1426C169.252 59.0566 169.497 60.0622 169.497 61.0812V61.3916C169.497 61.5019 169.489 61.6114 169.471 61.7199H160.049C160.111 62.4268 160.356 63.1058 160.758 63.6889C161.16 64.2657 161.704 64.7267 162.337 65.0281C163.776 65.6982 165.444 65.6632 166.853 64.9313C167.503 64.6012 168.032 64.0898 168.374 63.4655L169.843 64.0369C169.411 64.9402 168.696 65.6776 167.809 66.136C165.776 67.2043 163.357 67.2294 161.303 66.2041C160.393 65.7206 159.634 64.994 159.111 64.1042C158.575 63.1803 158.299 62.128 158.314 61.0597C158.297 60.0407 158.55 59.0351 159.046 58.1452C159.525 57.2913 160.233 56.5889 161.089 56.118C161.994 55.6192 163.013 55.3663 164.044 55.3833C165.032 55.368 166.006 55.6192 166.864 56.109L166.861 56.1099ZM173.959 67.5586C174.24 67.399 174.473 67.164 174.633 66.8832C174.96 66.2768 174.96 65.5466 174.633 64.9402C174.474 64.6541 174.242 64.4164 173.959 64.2522C173.666 64.0881 173.335 64.0028 172.999 64.0064C172.657 63.9992 172.321 64.0845 172.024 64.2522C171.737 64.4101 171.5 64.6469 171.343 64.9348C171.177 65.2336 171.092 65.5717 171.098 65.9144C171.093 66.2544 171.178 66.5881 171.343 66.8823C171.503 67.1675 171.739 67.4017 172.023 67.5595C172.322 67.7228 172.659 67.8053 172.999 67.799C173.334 67.8044 173.666 67.721 173.959 67.5577M171.908 67.7363C171.595 67.5595 171.337 67.2994 171.161 66.9854C170.977 66.6571 170.884 66.284 170.893 65.9072C170.888 65.5278 170.981 65.1546 171.166 64.8236C171.346 64.5123 171.604 64.2531 171.915 64.0746C172.244 63.888 172.616 63.7929 172.994 63.7983C173.37 63.792 173.74 63.8844 174.067 64.0683C174.381 64.2486 174.638 64.5105 174.817 64.8245C174.998 65.1555 175.09 65.5296 175.085 65.9081C175.091 66.2849 174.997 66.6553 174.817 66.9854C174.64 67.3003 174.382 67.5586 174.067 67.7363C173.74 67.9202 173.37 68.0125 172.994 68.0054C172.615 68.0125 172.24 67.9202 171.908 67.7363Z" fill="black"/>
<path fill-rule="evenodd" clip-rule="evenodd" d="M172.355 65.7798V65.0882H172.967C173.124 65.0828 173.281 65.1151 173.411 65.1833C173.522 65.2416 173.587 65.3367 173.582 65.4354C173.588 65.5341 173.526 65.6291 173.416 65.6857C173.283 65.7538 173.134 65.7861 172.985 65.7807H172.355V65.7798ZM174.032 66.9119L173.337 66.0211C173.415 66.0095 173.49 65.9897 173.562 65.9628C173.845 65.866 174.023 65.6569 174.013 65.4282C174.013 65.3188 173.974 65.2129 173.903 65.1295C173.819 65.0326 173.709 64.96 173.587 64.9187C173.439 64.8658 173.281 64.8398 173.124 64.8433H171.935V66.9253H172.354V66.0561H172.886L173.562 66.9469L174.031 66.911L174.032 66.9119Z" fill="black"/>
</g>
<defs>
<clipPath id="clip0_580_2377">
<rect width="223" height="68" fill="white"/>
</clipPath>
</defs>
</svg>
