<svg width="192" height="56" viewBox="0 0 192 56" fill="none" xmlns="http://www.w3.org/2000/svg">
<rect width="192" height="56" fill="white"/>
<path d="M169.374 51.4891H7.57861L11.4848 36.9014H173.28L169.374 51.4891Z" fill="#253858"/>
<path d="M17.9796 40.3516H19.6283L18.9319 43.3191H21.9736L22.67 40.3516H24.3203L22.5595 47.849H20.9092L21.6163 44.8391H18.5746L17.8675 47.849H16.2188L17.9796 40.3516Z" fill="white"/>
<path d="M28.393 40.2988H29.9146L31.3544 47.8508H29.6284L29.3377 46.1687H26.1674L25.0863 47.8508H23.4058L28.393 40.2988ZM29.0909 44.7122L28.667 42.2807L27.1 44.7122H29.0909Z" fill="white"/>
<path d="M33.9616 40.3516H37.3893C38.3386 40.3516 39.0078 40.6044 39.3954 41.1116C39.7224 41.5401 39.8027 42.1109 39.6346 42.8255L39.6301 42.8467C39.4878 43.4538 39.2228 43.9489 38.8367 44.3304C38.4507 44.712 37.9964 44.9921 37.4771 45.1707L38.6793 47.849H36.7504L35.7072 45.4493H35.686H34.4112L33.848 47.849H32.1992L33.9616 40.3516ZM36.4264 43.9943C36.8337 43.9943 37.1683 43.8974 37.4317 43.7051C37.6951 43.5129 37.8647 43.2555 37.9389 42.9345L37.9435 42.9133C38.0267 42.556 37.9752 42.288 37.789 42.1094C37.6028 41.9307 37.306 41.8414 36.8988 41.8414H35.2606L34.7549 43.9943H36.4264Z" fill="white"/>
<path d="M44.9082 40.3516H50.6176L50.2679 41.8414H46.2088L45.8288 43.4584H49.4064L49.0567 44.9482H45.479L44.7977 47.8506H43.1489L44.9082 40.3516Z" fill="white"/>
<path d="M53.5971 40.2988H55.1187L56.5585 47.8508H54.834L54.5433 46.1687H51.373L50.292 47.8508H48.6099L53.5971 40.2988ZM54.2951 44.7122L53.8711 42.2807L52.3041 44.7122H54.2951Z" fill="white"/>
<path d="M59.1656 40.3516H60.9431L62.1694 43.5219L64.8856 40.3516H66.6631L64.9023 47.849H63.2747L64.4253 42.9542L61.5623 46.1579H61.5199L60.1755 42.9875L59.0324 47.8506H57.4048L59.1656 40.3516Z" fill="white"/>
<path d="M68.2276 40.3516H69.8779L68.1171 47.849H66.4668L68.2276 40.3516Z" fill="white"/>
<path d="M71.4401 40.3516H73.0889L71.6763 46.3607H75.4144L75.0647 47.849H69.6763L71.4401 40.3516Z" fill="white"/>
<path d="M77.2752 44.8937L75.4614 40.3516H77.3903L78.4713 43.3615L80.9998 40.3516H82.8741L78.9331 44.8603L78.2306 47.849H76.5818L77.2752 44.8937Z" fill="white"/>
<path d="M87.1046 40.3516H88.7533L88.0569 43.3191H91.0986L91.795 40.3516H93.4453L91.6845 47.849H90.0342L90.7413 44.8391H87.6996L86.9925 47.849H85.3438L87.1046 40.3516Z" fill="white"/>
<path d="M96.7856 47.979C96.2073 47.979 95.6986 47.8776 95.261 47.6732C94.8234 47.4703 94.4676 47.1948 94.1966 46.8481C93.9241 46.5013 93.7454 46.0941 93.6591 45.6262C93.5728 45.1584 93.5925 44.6573 93.7182 44.1213L93.7227 44.1001C93.8484 43.5641 94.0664 43.063 94.3768 42.5951C94.6857 42.1273 95.0596 41.717 95.4957 41.3642C95.9317 41.01 96.4192 40.7314 96.9567 40.5285C97.4927 40.3256 98.0514 40.2227 98.6297 40.2227C99.2081 40.2227 99.7168 40.3241 100.154 40.5285C100.592 40.7314 100.946 41.0069 101.219 41.3536C101.491 41.7004 101.67 42.1076 101.756 42.5739C101.842 43.0418 101.823 43.5429 101.697 44.0789L101.693 44.1001C101.567 44.6361 101.349 45.1372 101.039 45.605C100.728 46.0729 100.356 46.4832 99.9182 46.8375C99.4821 47.1917 98.9946 47.4688 98.4586 47.6732C97.9211 47.8761 97.364 47.979 96.7856 47.979ZM97.1641 46.4574C97.4927 46.4574 97.8106 46.3969 98.118 46.2758C98.4253 46.1546 98.7024 45.9866 98.9477 45.7731C99.1944 45.5581 99.4064 45.3113 99.5836 45.0282C99.7607 44.7466 99.8864 44.4438 99.9621 44.1228L99.9666 44.1016C100.042 43.7806 100.057 43.4763 100.015 43.1917C99.9711 42.9055 99.8727 42.6557 99.7198 42.4422C99.5669 42.2287 99.3655 42.0592 99.1157 41.9335C98.8674 41.8094 98.5782 41.7458 98.2497 41.7458C97.9136 41.7458 97.5941 41.8063 97.2913 41.9275C96.9885 42.0486 96.7129 42.2166 96.4662 42.4301C96.2194 42.6436 96.0074 42.8934 95.8303 43.175C95.6531 43.4566 95.5275 43.7594 95.4518 44.0804L95.4472 44.1016C95.3715 44.4226 95.3549 44.7269 95.3988 45.0115C95.4427 45.2962 95.5411 45.5475 95.694 45.761C95.8469 45.9745 96.0468 46.1455 96.2921 46.2697C96.5373 46.3954 96.828 46.4574 97.1641 46.4574Z" fill="white"/>
<path d="M105.547 47.979C104.961 47.979 104.451 47.8821 104.013 47.6899C103.577 47.4976 103.226 47.2296 102.959 46.8859C102.693 46.5422 102.519 46.1365 102.437 45.6641C102.355 45.1932 102.379 44.6785 102.51 44.1213L102.514 44.1001C102.64 43.5641 102.856 43.063 103.162 42.5951C103.468 42.1273 103.837 41.717 104.27 41.3642C104.703 41.01 105.183 40.7314 105.709 40.5285C106.234 40.3256 106.784 40.2227 107.355 40.2227C107.691 40.2227 107.99 40.2454 108.254 40.2923C108.517 40.3392 108.758 40.4043 108.973 40.4906C109.188 40.5769 109.385 40.6829 109.562 40.8116C109.739 40.9403 109.904 41.0872 110.059 41.2507L108.725 42.5043C108.61 42.3832 108.493 42.2757 108.372 42.1833C108.251 42.091 108.121 42.0122 107.983 41.9471C107.845 41.8835 107.691 41.8336 107.52 41.7972C107.35 41.7624 107.158 41.7443 106.943 41.7443C106.643 41.7443 106.348 41.8063 106.057 41.932C105.766 42.0577 105.498 42.2257 105.253 42.4362C105.008 42.6466 104.796 42.8934 104.619 43.1765C104.442 43.4597 104.316 43.7625 104.24 44.0834L104.236 44.1046C104.155 44.4483 104.136 44.7647 104.178 45.0554C104.22 45.3446 104.319 45.5975 104.472 45.8125C104.625 46.0274 104.825 46.194 105.073 46.3121C105.32 46.4302 105.612 46.4892 105.946 46.4892C106.561 46.4892 107.114 46.3378 107.606 46.0365L107.859 44.9585H106.198L106.532 43.5338H109.789L109.024 46.7905C108.561 47.1191 108.037 47.3992 107.45 47.6308C106.869 47.8625 106.233 47.979 105.547 47.979Z" fill="white"/>
<path d="M111.89 40.3516H113.541L111.78 47.849H110.129L111.89 40.3516Z" fill="white"/>
<path d="M118.725 40.3516H120.375L118.614 47.849H116.964L118.725 40.3516Z" fill="white"/>
<path d="M121.938 40.3516H123.459L125.888 44.9678L126.972 40.3516H128.599L126.839 47.849H125.435L122.923 43.0829L121.803 47.849H120.175L121.938 40.3516Z" fill="white"/>
<path d="M130.981 47.9562C130.41 47.9562 129.873 47.8578 129.368 47.6609C128.864 47.4641 128.436 47.1628 128.082 46.7555L129.331 45.5882C129.608 45.8668 129.907 46.0879 130.23 46.2529C130.552 46.4179 130.928 46.4997 131.356 46.4997C131.699 46.4997 131.98 46.4376 132.198 46.3119C132.416 46.1863 132.552 46.0137 132.604 45.7926L132.608 45.7714C132.634 45.6639 132.636 45.5701 132.616 45.4868C132.596 45.405 132.539 45.3278 132.445 45.2567C132.351 45.1855 132.213 45.1143 132.033 45.0417C131.853 44.9705 131.615 44.8948 131.319 44.8161C130.961 44.7237 130.642 44.6192 130.36 44.5057C130.079 44.3921 129.851 44.2498 129.676 44.0818C129.5 43.9137 129.384 43.7048 129.323 43.455C129.264 43.2051 129.278 42.8948 129.365 42.5238L129.37 42.5026C129.45 42.1589 129.586 41.8516 129.779 41.576C129.971 41.3005 130.206 41.0643 130.483 40.8629C130.76 40.6631 131.072 40.5102 131.417 40.4027C131.762 40.2952 132.129 40.2422 132.513 40.2422C133.063 40.2422 133.549 40.3239 133.971 40.489C134.394 40.654 134.761 40.8887 135.075 41.196L133.926 42.439C133.644 42.2104 133.358 42.0303 133.067 41.8985C132.777 41.7668 132.471 41.7002 132.15 41.7002C131.829 41.7002 131.573 41.7623 131.382 41.8879C131.191 42.0121 131.075 42.168 131.031 42.3543L131.026 42.3755C130.998 42.4966 130.996 42.6026 131.022 42.6919C131.048 42.7812 131.113 42.8615 131.217 42.9326C131.322 43.0038 131.473 43.0719 131.668 43.1355C131.864 43.1991 132.113 43.2748 132.415 43.3611C132.77 43.461 133.082 43.5746 133.35 43.6987C133.618 43.8244 133.833 43.9743 133.997 44.1484C134.159 44.324 134.265 44.5284 134.313 44.7646C134.362 45.0008 134.348 45.2824 134.271 45.6109L134.266 45.6321C134.179 46.0031 134.035 46.3331 133.832 46.6238C133.629 46.913 133.384 47.1553 133.096 47.3521C132.808 47.5489 132.486 47.6988 132.127 47.8017C131.771 47.9047 131.388 47.9562 130.981 47.9562Z" fill="white"/>
<path d="M137.973 47.9681C136.966 47.9681 136.239 47.6895 135.791 47.1324C135.343 46.5752 135.249 45.744 135.509 44.6372L136.516 40.3525H138.166L137.17 44.5949C137.026 45.2095 137.06 45.6713 137.273 45.9817C137.487 46.2921 137.845 46.448 138.353 46.448C138.86 46.448 139.291 46.2981 139.647 45.9984C140.003 45.6986 140.251 45.2489 140.392 44.6478L141.402 40.3525H143.052L142.059 44.5843C141.924 45.155 141.73 45.6516 141.479 46.0725C141.226 46.4934 140.923 46.8462 140.572 47.1278C140.219 47.4094 139.824 47.6199 139.385 47.7592C138.942 47.897 138.472 47.9681 137.973 47.9681Z" fill="white"/>
<path d="M144.421 40.3516H147.849C148.798 40.3516 149.467 40.6044 149.855 41.1116C150.182 41.5401 150.262 42.1109 150.094 42.8255L150.09 42.8467C149.947 43.4538 149.682 43.9489 149.296 44.3304C148.91 44.712 148.456 44.9921 147.937 45.1707L149.139 47.849H147.21L146.167 45.4493H146.145H144.871L144.307 47.849H142.659L144.421 40.3516ZM146.886 43.9943C147.293 43.9943 147.628 43.8974 147.891 43.7051C148.155 43.5129 148.324 43.2555 148.398 42.9345L148.403 42.9133C148.486 42.556 148.435 42.288 148.248 42.1094C148.062 41.9307 147.766 41.8414 147.358 41.8414H145.72L145.214 43.9943H146.886Z" fill="white"/>
<path d="M151.855 40.3516H157.499L157.154 41.8187H153.137L152.78 43.3403H156.315L155.97 44.8074H152.435L152.065 46.3819H156.135L155.79 47.849H150.091L151.855 40.3516Z" fill="white"/>
<path d="M158.721 40.3516H161.645C162.231 40.3516 162.746 40.4469 163.191 40.6347C163.636 40.8239 163.995 41.0859 164.27 41.422C164.546 41.7581 164.726 42.1517 164.812 42.606C164.899 43.0602 164.879 43.5507 164.755 44.0791L164.75 44.1003C164.626 44.6287 164.414 45.1223 164.114 45.578C163.814 46.0337 163.448 46.4319 163.015 46.7665C162.582 47.1026 162.099 47.3661 161.565 47.5599C161.03 47.7521 160.47 47.849 159.884 47.849H156.96L158.721 40.3516ZM160.234 46.3607C160.57 46.3607 160.889 46.3078 161.192 46.2003C161.496 46.0928 161.769 45.9399 162.013 45.74C162.255 45.5401 162.465 45.304 162.64 45.0329C162.814 44.7619 162.941 44.4591 163.02 44.123L163.024 44.1018C163.101 43.7733 163.116 43.469 163.071 43.1919C163.026 42.9133 162.929 42.6741 162.779 42.4742C162.629 42.2744 162.429 42.12 162.176 42.0079C161.923 41.8974 161.63 41.8429 161.294 41.8429H160.019L158.957 46.3638H160.234V46.3607Z" fill="white"/>
<path d="M7 14.5486C7.43301 14.5531 7.86603 14.5622 8.29904 14.5622C9.31041 14.5637 10.3218 14.5668 11.3332 14.5592C11.5133 14.5577 11.5678 14.6107 11.5648 14.7908C11.5557 15.4161 11.5618 16.0429 11.5618 16.6697C11.5618 16.756 11.5618 16.8423 11.5618 16.9286C11.5815 16.9377 11.6011 16.9468 11.6223 16.9544C11.6693 16.8923 11.7207 16.8317 11.7631 16.7666C12.4505 15.7432 13.312 14.915 14.505 14.5244C16.7049 13.8052 19.0638 14.541 20.0918 17.289C20.593 18.6304 20.705 20.0233 20.6066 21.4329C20.5112 22.8092 20.2205 24.1521 19.515 25.3573C18.4854 27.1135 16.9396 27.9523 14.8987 27.7706C13.7435 27.6677 12.7518 27.1559 11.9145 26.355C11.8176 26.2627 11.7419 26.1491 11.6572 26.0461C11.6314 26.0613 11.6042 26.0749 11.5784 26.0901C11.5784 28.134 11.5784 30.1795 11.5784 32.24C10.7926 32.24 10.0417 32.24 9.27256 32.24C9.2665 32.1765 9.25742 32.1159 9.25742 32.0553C9.26196 27.1998 9.26953 22.3428 9.26802 17.4873C9.26802 17.1209 9.24228 16.7485 9.18172 16.3866C9.07876 15.7689 8.77747 15.4752 8.16429 15.3631C7.86603 15.3086 7.56171 15.2783 7.25739 15.2602C7.09841 15.2511 7.04996 15.1936 7.04845 15.0437C7.04693 14.8953 7.01817 14.7469 7.00151 14.5985C7 14.5819 7 14.5652 7 14.5486ZM11.5603 21.4374C11.5603 22.6017 11.5557 23.7645 11.5678 24.9273C11.5693 25.0408 11.642 25.1937 11.7313 25.2604C12.5974 25.9038 13.5406 26.3898 14.6247 26.5337C15.4649 26.6457 16.2386 26.4882 16.8745 25.8796C17.3772 25.3981 17.6618 24.7925 17.8435 24.1354C18.2962 22.4927 18.3219 20.8303 18.0161 19.1603C17.8586 18.3034 17.5891 17.4858 17.0819 16.7621C16.3976 15.7886 15.4665 15.4313 14.337 15.7507C13.1984 16.0732 12.3188 16.7727 11.6299 17.722C11.5754 17.7977 11.5648 17.9173 11.5648 18.0157C11.5587 19.1588 11.5603 20.2974 11.5603 21.4374Z" fill="#0065FF"/>
<path d="M74.583 9.34397C74.583 9.10324 74.583 8.87462 74.583 8.63086C76.1016 8.63086 77.6065 8.63086 79.1418 8.63086C79.1418 11.3879 79.1418 14.1434 79.1418 16.9247C79.4612 16.5417 79.7322 16.1677 80.0532 15.8392C81.4809 14.3781 83.2009 13.9133 85.16 14.4629C86.403 14.8111 87.204 15.7135 87.7778 16.8293C88.2577 17.7635 88.4697 18.7734 88.5363 19.812C88.6362 21.3639 88.5121 22.89 87.9231 24.348C87.4432 25.5366 86.7195 26.5434 85.59 27.1974C83.755 28.2588 81.3068 27.9953 79.6868 26.5828C79.5293 26.445 79.387 26.2936 79.2296 26.1558C79.1811 26.1134 79.1069 26.0786 79.0449 26.0786C79.0176 26.0786 78.9813 26.177 78.9692 26.236C78.8859 26.66 78.8102 27.0869 78.7209 27.5093C78.7072 27.5744 78.6315 27.6774 78.5816 27.6789C77.9896 27.691 77.3976 27.6865 76.7738 27.6865C76.7738 27.5775 76.7738 27.4927 76.7738 27.4064C76.7738 22.1482 76.7768 16.8899 76.7693 11.6317C76.7678 11.129 76.7072 10.6264 76.6557 10.1267C76.6254 9.83451 76.4422 9.6392 76.1531 9.58318C75.7216 9.49991 75.287 9.43784 74.8525 9.36971C74.7662 9.35608 74.6784 9.35305 74.583 9.34397ZM79.1478 21.4593C79.1478 22.6236 79.1448 23.7863 79.1524 24.9506C79.1524 25.04 79.1917 25.1641 79.2583 25.2126C80.1107 25.8333 81.0298 26.3193 82.0835 26.4813C83.7898 26.7463 85.0207 26.0892 85.6142 24.4389C85.9155 23.6001 86.0155 22.725 86.0427 21.8423C86.079 20.6372 86.0321 19.438 85.7142 18.2646C85.5249 17.5667 85.2433 16.9126 84.6922 16.419C83.9337 15.7377 83.0283 15.6484 82.0744 15.8301C80.9313 16.0466 80.0653 16.7082 79.3234 17.5682C79.1947 17.7181 79.1433 17.868 79.1448 18.0648C79.1524 19.1958 79.1478 20.3283 79.1478 21.4593Z" fill="#253858"/>
<path d="M100.974 26.6957C100.982 26.7835 100.988 26.8698 100.996 26.9561C101.044 27.5768 101.049 27.595 100.432 27.7176C100.066 27.7903 99.6844 27.8433 99.3135 27.8221C98.343 27.7661 97.7889 27.168 97.4739 26.3005C97.4134 26.1355 97.371 25.9644 97.3119 25.7706C97.0561 25.9947 96.8184 26.2142 96.5686 26.4186C95.7631 27.0757 94.8834 27.5829 93.8448 27.7767C92.1642 28.0901 90.4655 27.3391 89.7055 25.9447C88.8879 24.4443 89.0983 22.0642 91.1756 20.853C92.0446 20.3458 93 20.1051 93.9856 20.0021C94.8123 19.9173 95.6465 19.9007 96.4792 19.8552C96.5731 19.8507 96.667 19.8552 96.7911 19.8552C96.7578 18.7591 96.8941 17.6811 96.5564 16.6349C96.243 15.6629 95.4951 15.1178 94.4716 15.1648C94.0704 15.1829 93.6586 15.2465 93.2755 15.3677C92.3898 15.6493 91.9538 16.3033 91.8796 17.2148C91.8675 17.3722 91.8584 17.5312 91.8463 17.7038C91.3134 17.7038 90.7971 17.7038 90.2414 17.7038C90.2414 17.6039 90.2414 17.5024 90.2414 17.4025C90.2414 16.7772 90.2369 16.1504 90.2475 15.5251C90.249 15.4434 90.3065 15.3147 90.3716 15.2874C92.0174 14.5758 93.7222 14.1398 95.533 14.27C96.2415 14.32 96.9289 14.4729 97.5512 14.8377C98.4565 15.3707 98.9047 16.2004 99.0516 17.2072C99.1106 17.6099 99.1333 18.0202 99.1348 18.429C99.1424 20.2913 99.1257 22.1536 99.1454 24.0143C99.1515 24.6275 99.2045 25.2467 99.3105 25.8508C99.4119 26.4383 99.751 26.7305 100.27 26.7683C100.494 26.785 100.726 26.7229 100.974 26.6957ZM96.7851 20.5775C95.6616 20.5714 94.5791 20.6093 93.5647 21.0862C92.3005 21.6812 91.7176 22.6441 91.7706 24.0416C91.8266 25.5238 93.2044 26.6578 94.6669 26.4247C95.3861 26.3111 96.0129 25.9765 96.6231 25.5995C96.7502 25.5208 96.7881 25.4315 96.7866 25.2891C96.782 23.8614 96.7835 22.4337 96.7835 21.0044C96.7851 20.8772 96.7851 20.7486 96.7851 20.5775Z" fill="#253858"/>
<path d="M131.387 17.712C130.845 17.712 130.335 17.712 129.808 17.712C129.8 17.6438 129.789 17.5833 129.789 17.5227C129.788 16.8565 129.785 16.1904 129.794 15.5242C129.796 15.4424 129.852 15.3138 129.918 15.2865C131.564 14.5734 133.269 14.1313 135.08 14.2766C135.561 14.316 136.052 14.4174 136.509 14.5749C137.764 15.0109 138.41 15.9587 138.598 17.2411C138.645 17.556 138.654 17.88 138.656 18.1995C138.66 20.1738 138.647 22.1496 138.666 24.1239C138.672 24.681 138.725 25.2473 138.836 25.7939C139.002 26.616 139.479 26.89 140.297 26.7204C140.359 26.7068 140.421 26.6962 140.51 26.6796C140.535 26.943 140.562 27.1943 140.574 27.4457C140.577 27.4896 140.521 27.5638 140.479 27.5789C139.84 27.7863 139.19 27.9286 138.516 27.7787C137.785 27.6167 137.343 27.1232 137.072 26.4555C136.986 26.2405 136.925 26.0164 136.843 25.7696C136.6 25.9831 136.368 26.1981 136.124 26.398C135.314 27.0641 134.435 27.6077 133.381 27.7666C131.753 28.0134 130.374 27.5698 129.393 26.1845C128.406 24.7885 128.453 22.1057 130.79 20.8036C131.638 20.3312 132.563 20.0966 133.517 19.9997C134.36 19.9149 135.211 19.8982 136.059 19.8528C136.13 19.8483 136.2 19.8528 136.259 19.8528C136.28 19.821 136.297 19.8089 136.297 19.7953C136.28 18.9626 136.307 18.1253 136.232 17.2971C136.157 16.4902 135.853 15.7573 135.06 15.3743C134.375 15.0442 133.653 15.0639 132.952 15.3092C131.746 15.7316 131.476 16.3282 131.388 17.5439C131.385 17.5924 131.387 17.6393 131.387 17.712ZM136.294 20.5765C135.273 20.5689 134.276 20.5992 133.329 20.9868C132.047 21.5122 131.319 22.4161 131.302 23.862C131.284 25.4199 132.686 26.6765 134.221 26.4222C134.924 26.3056 135.537 25.9801 136.135 25.6182C136.27 25.5365 136.31 25.4411 136.309 25.2867C136.303 23.8029 136.306 22.3192 136.304 20.8339C136.304 20.7582 136.298 20.681 136.294 20.5765Z" fill="#253858"/>
<path d="M122.955 19.8419C122.908 18.7518 123.078 17.6647 122.719 16.6109C122.389 15.642 121.665 15.1499 120.643 15.1514C120.092 15.1529 119.583 15.2665 119.096 15.5178C118.484 15.8327 118.181 16.3475 118.084 17.0046C118.051 17.2332 118.036 17.4633 118.01 17.7056C117.495 17.7056 116.985 17.7056 116.458 17.7056C116.451 17.6556 116.436 17.6026 116.436 17.5496C116.434 16.8668 116.429 16.1855 116.442 15.5027C116.443 15.4239 116.513 15.3043 116.582 15.2756C117.841 14.7305 119.143 14.3414 120.52 14.2657C121.274 14.2233 122.025 14.2475 122.764 14.4459C124.236 14.841 125.131 15.8948 125.259 17.4149C125.29 17.7737 125.303 18.1356 125.305 18.4944C125.312 20.5656 125.308 22.6368 125.326 24.708C125.329 25.0729 125.388 25.4438 125.465 25.8011C125.635 26.5763 126.087 26.8655 126.87 26.7353C126.949 26.7216 127.026 26.7035 127.15 26.6777C127.176 26.9684 127.2 27.25 127.224 27.5438C126.434 27.8011 125.648 28.001 124.844 27.677C124.003 27.3394 123.706 26.5869 123.492 25.7799C123.123 26.0873 122.778 26.3961 122.41 26.6747C121.57 27.3091 120.646 27.7512 119.577 27.8284C117.445 27.9828 115.795 26.6217 115.503 24.8685C115.209 23.1061 115.95 21.4831 117.768 20.6307C118.651 20.2174 119.595 20.0311 120.557 19.9509C121.282 19.8903 122.013 19.8843 122.741 19.854C122.804 19.8525 122.866 19.8479 122.955 19.8419ZM122.95 20.5762C121.863 20.5762 120.81 20.6034 119.819 21.0501C118.593 21.6042 117.93 22.5232 117.939 23.9086C117.947 25.462 119.323 26.6656 120.855 26.4219C121.551 26.3113 122.157 25.9904 122.749 25.63C122.896 25.5407 122.955 25.4453 122.953 25.2682C122.946 23.7905 122.949 22.3143 122.949 20.8366C122.95 20.7594 122.95 20.6807 122.95 20.5762Z" fill="#253858"/>
<path d="M27.9421 27.7809C24.8792 27.8081 22.5431 25.9005 21.8996 22.8482C21.4575 20.7497 21.6922 18.7421 22.8671 16.9131C23.8694 15.3522 25.338 14.5104 27.1806 14.3181C28.5644 14.1743 29.8877 14.3741 31.0974 15.0902C32.5872 15.9714 33.4638 17.3159 33.8847 18.9647C34.4146 21.0465 34.2178 23.0586 33.1292 24.9315C32.1784 26.5651 30.7325 27.4962 28.8536 27.7445C28.7658 27.7567 28.6795 27.7779 28.5916 27.7794C28.3751 27.7839 28.1586 27.7809 27.9421 27.7809ZM31.7348 20.78C31.7 20.453 31.6651 19.867 31.5728 19.2917C31.3926 18.1562 31.0307 17.0857 30.3131 16.1637C29.2442 14.789 27.4955 14.5255 26.1631 15.552C25.5318 16.0395 25.1124 16.6951 24.8187 17.4249C24.0677 19.2856 23.9663 21.2054 24.3554 23.1585C24.5689 24.232 24.9595 25.2313 25.6862 26.0761C26.6613 27.2101 28.2449 27.4705 29.4652 26.6878C30.083 26.2911 30.5145 25.7263 30.8445 25.0829C31.4956 23.8141 31.703 22.4454 31.7348 20.78Z" fill="#0065FF"/>
<path d="M105.887 26.6575C108.75 26.6575 111.564 26.6575 114.392 26.6575C114.392 26.9512 114.392 27.2358 114.392 27.5356C110.616 27.5356 106.849 27.5356 103.062 27.5356C103.055 27.1495 103.035 26.8059 103.294 26.4501C105.943 22.7891 108.572 19.1131 111.205 15.4401C111.235 15.3977 111.264 15.3537 111.318 15.272C111.193 15.272 111.109 15.272 111.025 15.272C109.395 15.2735 107.766 15.269 106.137 15.2781C105.81 15.2796 105.483 15.3265 105.156 15.3507C104.911 15.3689 104.773 15.5173 104.738 15.7444C104.702 15.9805 104.688 16.2213 104.681 16.462C104.672 16.7573 104.678 17.0525 104.678 17.3598C104.216 17.3598 103.812 17.3598 103.403 17.3598C103.403 16.4166 103.403 15.49 103.403 14.5498C106.959 14.5498 110.502 14.5498 114.057 14.5498C114.1 14.9556 114.062 15.2962 113.803 15.6535C111.199 19.2478 108.617 22.8588 106.03 26.4652C105.996 26.5136 105.959 26.5636 105.887 26.6575Z" fill="#253858"/>
<path d="M141.411 15.2109C141.411 15.0111 141.411 14.7885 141.411 14.5508C142.931 14.5508 144.442 14.5508 145.976 14.5508C145.976 15.3412 145.976 16.1224 145.976 16.9036C147.173 15.0732 148.706 13.9588 151.022 14.3343C151.022 15.5546 151.022 16.7235 151.022 17.9074C150.591 17.9074 150.17 17.9074 149.734 17.9074C149.687 17.5516 149.653 17.1868 149.59 16.8279C149.488 16.2511 149.398 16.1769 148.81 16.1875C147.746 16.2072 146.971 16.7492 146.333 17.5532C146.077 17.8756 145.967 18.2072 145.973 18.6281C145.996 20.554 145.977 22.4798 145.986 24.4057C145.989 24.8841 146.035 25.3641 146.074 25.8425C146.111 26.2876 146.347 26.5753 146.796 26.6434C147.214 26.7055 147.637 26.7434 148.059 26.7873C148.2 26.8024 148.342 26.8039 148.492 26.813C148.492 27.0674 148.492 27.296 148.492 27.5352C146.132 27.5352 143.784 27.5352 141.403 27.5352C141.403 27.3247 141.39 27.1188 141.413 26.9159C141.419 26.866 141.54 26.8039 141.615 26.7933C142.011 26.7343 142.41 26.6979 142.805 26.6374C143.246 26.5692 143.511 26.3179 143.546 25.8592C143.579 25.411 143.629 24.9644 143.631 24.5162C143.64 22.1967 143.641 19.8772 143.629 17.5577C143.626 17.0626 143.566 16.5675 143.516 16.0739C143.484 15.7636 143.299 15.5531 142.992 15.491C142.474 15.3911 141.955 15.3078 141.411 15.2109Z" fill="#253858"/>
<path d="M33.998 9.29231C33.998 9.08338 33.998 8.87898 33.998 8.65491C34.0889 8.65037 34.1676 8.64279 34.2463 8.64279C35.5696 8.64279 36.8944 8.64885 38.2176 8.63674C38.4523 8.63522 38.4932 8.7185 38.4932 8.92743C38.4962 11.8238 38.5053 14.7201 38.5144 17.618C38.5235 20.7959 38.5326 23.9724 38.5417 27.1503C38.5432 27.5061 38.5417 27.5061 38.1889 27.5061C37.4833 27.5061 36.7793 27.5061 36.048 27.5061C36.042 27.4122 36.0344 27.335 36.0344 27.2578C36.045 25.5091 36.0511 23.7589 36.0677 22.0102C36.0783 20.7581 36.1041 19.5075 36.1192 18.2554C36.1449 15.9132 36.1722 13.571 36.1873 11.2288C36.1888 10.935 36.148 10.6353 36.0874 10.3476C35.992 9.89187 35.7028 9.58755 35.2471 9.48914C34.8398 9.40284 34.4265 9.35893 33.998 9.29231Z" fill="#0065FF"/>
<path d="M72.5411 14.5639C72.2792 15.0635 72.0097 15.5253 71.7871 16.0113C70.4941 18.8364 69.2117 21.6662 67.9278 24.4944C66.9937 26.5505 66.0686 28.6126 65.1269 30.6641C64.7832 31.4135 64.2957 32.0282 63.4039 32.1463C63.0633 32.1917 62.715 32.2023 62.3713 32.2008C61.69 32.1978 61.0072 32.1766 60.3259 32.1584C60.1821 32.1554 60.0397 32.1357 59.902 32.1236C59.8126 31.7481 59.8399 31.7042 60.1881 31.7148C60.6363 31.7284 61.0844 31.7527 61.5326 31.783C62.2654 31.8314 62.9679 31.736 63.6371 31.412C64.0504 31.2122 64.3835 30.9245 64.5652 30.5081C64.8301 29.8995 65.0512 29.2727 65.2919 28.655C65.4115 28.3491 65.5175 28.0372 65.6598 27.742C65.7355 27.5861 65.7279 27.4664 65.6659 27.315C64.3154 24.0871 62.9679 20.8592 61.6204 17.6298C61.4448 17.2089 61.2873 16.7789 61.0905 16.3671C60.7937 15.7448 60.335 15.3194 59.6098 15.2467C59.5598 15.2421 59.5174 15.1513 59.475 15.0983C59.4674 15.0877 59.4735 15.0665 59.4735 15.0514C59.4826 14.4549 59.4008 14.5684 59.9474 14.5654C61.0466 14.5578 62.1473 14.5639 63.2464 14.5639C63.3327 14.5639 63.419 14.5639 63.5447 14.5639C63.5447 14.8576 63.5614 15.1286 63.5417 15.3966C63.5038 15.9235 63.6371 16.4095 63.8384 16.8894C64.8952 19.4057 65.9445 21.9266 66.9982 24.446C67.0285 24.5171 67.0618 24.5852 67.1087 24.6852C67.1542 24.6216 67.1875 24.5898 67.2056 24.5504C68.2821 22.1189 69.3737 19.6964 70.4214 17.2528C70.7636 16.4534 70.9937 15.6055 71.2617 14.7743C71.3162 14.6047 71.3965 14.5533 71.5676 14.5608C71.884 14.5729 72.2035 14.5639 72.5411 14.5639Z" fill="#0065FF"/>
<path d="M58.1549 26.1324C58.1549 26.42 58.164 26.6759 58.1489 26.9318C58.1458 26.9984 58.0853 27.0998 58.0277 27.1225C56.2397 27.7933 54.4107 28.0824 52.5454 27.5207C50.6211 26.9424 49.3478 25.6282 48.671 23.7674C47.8065 21.3919 47.9337 19.0649 49.2963 16.8952C50.2804 15.3282 51.7672 14.5182 53.5947 14.3199C55.0966 14.1564 56.544 14.4834 57.9914 14.8074C58.1186 14.8362 58.1549 14.9058 58.1534 15.0269C58.1504 15.9172 58.1489 16.8089 58.1534 17.6992C58.1549 17.8551 58.0974 17.9112 57.9414 17.9066C57.6205 17.8975 57.2995 17.8945 56.9785 17.9081C56.7923 17.9157 56.7363 17.8567 56.7211 17.6659C56.6939 17.3161 56.653 16.9619 56.5622 16.6242C56.226 15.3721 55.3888 14.93 54.1367 14.9997C52.7483 15.0769 51.855 15.8718 51.2585 17.0588C50.8437 17.8854 50.6574 18.7757 50.5757 19.6917C50.4546 21.0422 50.5984 22.3639 51.0208 23.6509C51.5522 25.2663 52.6105 26.3156 54.3138 26.632C55.5281 26.8576 56.706 26.6744 57.8521 26.2444C57.9445 26.2111 58.0338 26.1778 58.1549 26.1324Z" fill="#0065FF"/>
<path d="M41.7017 15.2372C41.7017 15.0101 41.7017 14.8042 41.7017 14.5801C43.2006 14.5801 44.6873 14.5801 46.1892 14.5801C46.2271 18.8799 46.2649 23.1722 46.3028 27.4841C45.4686 27.4841 44.6555 27.4841 43.8198 27.4841C43.8198 27.2934 43.8183 27.095 43.8198 26.8982C43.8364 25.0602 43.8561 23.2237 43.8728 21.3856C43.8849 20.0048 43.9015 18.6256 43.9046 17.2448C43.9046 16.9586 43.8758 16.6679 43.8228 16.3848C43.7047 15.7595 43.4034 15.4718 42.7781 15.3568C42.6055 15.325 42.4299 15.2992 42.2558 15.2796C42.0802 15.2614 41.9045 15.2538 41.7017 15.2372Z" fill="#0065FF"/>
<path d="M46.1891 9.86035C46.1891 10.6083 46.1891 11.3502 46.1891 12.1102C45.4412 12.1102 44.6932 12.1102 43.9302 12.1102C43.9302 11.3608 43.9302 10.6204 43.9302 9.86035C44.6826 9.86035 45.4291 9.86035 46.1891 9.86035Z" fill="#0065FF"/>
<path d="M182.543 20.5977C182.543 28.4268 176.196 34.7751 168.367 34.7751C160.538 34.7751 154.189 28.4283 154.189 20.5977C154.189 12.7687 160.536 6.42188 168.367 6.42188C176.196 6.42036 182.543 12.7672 182.543 20.5977Z" fill="#0065FF"/>
<path d="M163.264 24.2033L164.224 23.9459C164.383 24.6151 164.33 25.2117 164.067 25.7355C163.803 26.2594 163.372 26.6439 162.775 26.8907C162.027 27.1981 161.325 27.2026 160.669 26.8998C160.014 26.5985 159.497 25.9914 159.122 25.0784C158.88 24.488 158.765 23.9323 158.777 23.4085C158.79 22.8861 158.951 22.4304 159.26 22.0443C159.569 21.6582 159.958 21.3691 160.427 21.1753C161.021 20.9315 161.569 20.8815 162.068 21.0254C162.569 21.1707 162.986 21.4962 163.32 22.005L162.477 22.5152C162.239 22.1836 161.974 21.9701 161.681 21.8747C161.387 21.7794 161.086 21.7945 160.777 21.9217C160.31 22.114 160 22.438 159.846 22.8922C159.691 23.3464 159.764 23.9369 160.062 24.6606C160.365 25.3949 160.725 25.8703 161.143 26.0868C161.561 26.3033 161.997 26.3184 162.45 26.1322C162.813 25.9823 163.071 25.7461 163.223 25.4221C163.378 25.1011 163.39 24.6939 163.264 24.2033Z" fill="white"/>
<path d="M164.323 22.9139C163.907 21.9026 163.879 21.0365 164.241 20.3174C164.544 19.7194 165.035 19.2803 165.71 19.0017C166.461 18.6928 167.177 18.6853 167.857 18.982C168.536 19.2788 169.054 19.8601 169.412 20.7277C169.701 21.4302 169.823 22.0282 169.779 22.5173C169.734 23.0078 169.557 23.4469 169.245 23.836C168.933 24.2251 168.539 24.5173 168.063 24.7141C167.298 25.029 166.579 25.0381 165.905 24.7429C165.23 24.4461 164.703 23.8375 164.323 22.9139ZM165.274 22.5218C165.561 23.2213 165.931 23.6831 166.379 23.9056C166.827 24.1282 167.284 24.1433 167.748 23.9526C168.208 23.7633 168.518 23.4302 168.679 22.9548C168.841 22.4794 168.773 21.8829 168.477 21.1652C168.199 20.49 167.834 20.0403 167.384 19.8193C166.935 19.5982 166.48 19.5801 166.025 19.7678C165.561 19.9586 165.248 20.2901 165.086 20.7625C164.924 21.2364 164.986 21.8223 165.274 22.5218Z" fill="white"/>
<path d="M171.654 23.0913L169.404 17.6257L170.232 17.285L170.548 18.0526C170.609 17.715 170.748 17.4046 170.966 17.1245C171.184 16.8444 171.475 16.6294 171.838 16.4795C172.243 16.313 172.609 16.26 172.938 16.3221C173.266 16.3841 173.545 16.5431 173.776 16.802C173.946 15.986 174.377 15.4349 175.071 15.1502C175.613 14.9277 176.091 14.9049 176.506 15.0851C176.921 15.2653 177.257 15.668 177.514 16.2918L179.059 20.0435L178.138 20.4221L176.721 16.9792C176.568 16.6082 176.429 16.3539 176.302 16.2161C176.175 16.0783 176.011 15.992 175.813 15.9572C175.614 15.9224 175.408 15.9496 175.195 16.0374C174.81 16.1949 174.544 16.4553 174.396 16.8156C174.247 17.176 174.288 17.6378 174.52 18.1995L175.828 21.3744L174.901 21.7559L173.439 18.2055C173.269 17.7937 173.066 17.5166 172.832 17.3728C172.595 17.229 172.306 17.2275 171.964 17.3698C171.704 17.4773 171.49 17.6453 171.325 17.874C171.16 18.1026 171.083 18.369 171.092 18.6749C171.101 18.9792 171.209 19.3819 171.413 19.8785L172.58 22.7143L171.654 23.0913Z" fill="white"/>
<path d="M182.201 4.83496C182.672 4.83496 183.131 4.95608 183.579 5.19681C184.027 5.43906 184.375 5.78274 184.625 6.23241C184.875 6.68208 185 7.14991 185 7.63743C185 8.12041 184.878 8.5837 184.631 9.02883C184.384 9.47395 184.039 9.82066 183.595 10.0659C183.152 10.3127 182.687 10.4354 182.201 10.4354C181.716 10.4354 181.252 10.3127 180.806 10.0659C180.363 9.82066 180.016 9.47395 179.769 9.02883C179.523 8.5837 179.398 8.11889 179.398 7.63743C179.398 7.14991 179.524 6.68208 179.775 6.23241C180.027 5.78274 180.376 5.43755 180.825 5.19681C181.271 4.95608 181.732 4.83496 182.201 4.83496ZM182.201 5.29977C181.807 5.29977 181.424 5.40121 181.052 5.60257C180.679 5.80394 180.387 6.09312 180.178 6.46709C179.968 6.84257 179.863 7.23319 179.863 7.63895C179.863 8.04168 179.966 8.42927 180.174 8.79869C180.38 9.16812 180.669 9.4573 181.041 9.6632C181.412 9.86911 181.8 9.97358 182.202 9.97358C182.607 9.97358 182.993 9.87063 183.365 9.6632C183.736 9.45578 184.025 9.16812 184.23 8.79869C184.436 8.42927 184.539 8.04168 184.539 7.63895C184.539 7.23319 184.434 6.84257 184.225 6.46709C184.016 6.09161 183.724 5.80394 183.352 5.60257C182.979 5.40121 182.593 5.29977 182.201 5.29977ZM180.973 9.18628V6.17185H182.009C182.363 6.17185 182.619 6.1991 182.778 6.25512C182.937 6.31114 183.062 6.40804 183.156 6.54582C183.25 6.68511 183.297 6.83197 183.297 6.98791C183.297 7.20896 183.218 7.39973 183.061 7.56324C182.903 7.72676 182.696 7.8176 182.436 7.83728C182.542 7.88119 182.628 7.9357 182.691 7.99777C182.813 8.11587 182.961 8.31572 183.137 8.59581L183.504 9.18628H182.911L182.643 8.71088C182.433 8.33691 182.263 8.10375 182.134 8.00988C182.045 7.94024 181.915 7.90541 181.744 7.90541H181.458V9.18628H180.973ZM181.459 7.49057H182.05C182.331 7.49057 182.523 7.44818 182.626 7.36491C182.729 7.28012 182.781 7.1696 182.781 7.03031C182.781 6.94098 182.755 6.86073 182.707 6.79109C182.657 6.71993 182.588 6.66845 182.501 6.63363C182.413 6.59881 182.251 6.58215 182.013 6.58215H181.461V7.49057H181.459Z" fill="black"/>
</svg>
