<svg width="68" height="68" viewBox="0 0 68 68" fill="none" xmlns="http://www.w3.org/2000/svg">
<g clip-path="url(#clip0_558_2643)">
<path d="M61.8908 23.584H53.7591V61.7268H61.8908V23.584Z" fill="#FFAD00" stroke="#FFAD00" stroke-width="1.6" stroke-linecap="round" stroke-linejoin="round"/>
<path d="M46.7779 36.5105H38.6565V61.7269H46.7779V36.5105Z" fill="#FFAD00" stroke="#FFAD00" stroke-width="1.6" stroke-linecap="round" stroke-linejoin="round"/>
<path d="M31.6745 30.2576H23.5531V61.7267H31.6745V30.2576Z" fill="#FFAD00" stroke="#FFAD00" stroke-width="1.6" stroke-linecap="round" stroke-linejoin="round"/>
<path d="M16.5816 42.6809H8.46021V61.7164H16.5816V42.6809Z" fill="#FFAD00" stroke="#FFAD00" stroke-width="1.6" stroke-linecap="round" stroke-linejoin="round"/>
<path d="M8.46021 34.2413L26.8899 15.2674L41.6337 28.0707L56.7471 9.1687" stroke="#222222" stroke-width="1.6" stroke-linecap="round" stroke-linejoin="round"/>
<path d="M8.46021 42.6809H16.5816V59.0674" stroke="#222222" stroke-width="1.6" stroke-linecap="round" stroke-linejoin="round"/>
<path d="M38.6565 36.5105H46.7882V59.0676" stroke="#222222" stroke-width="1.6" stroke-linecap="round" stroke-linejoin="round"/>
<path d="M23.5531 30.2576H31.6847V59.0675" stroke="#222222" stroke-width="1.6" stroke-linecap="round" stroke-linejoin="round"/>
<path d="M53.7591 23.584H61.8805V60.1559" stroke="#222222" stroke-width="1.6" stroke-linecap="round" stroke-linejoin="round"/>
<path d="M0.82117 0.821533V67.1788H67.1784" stroke="#222222" stroke-width="1.6" stroke-linecap="round" stroke-linejoin="round"/>
<path d="M51.5207 4.03491H61.8804V14.4048" stroke="#222222" stroke-width="1.6" stroke-linecap="round" stroke-linejoin="round"/>
<path d="M16.5813 59.0676V61.7166" stroke="#222222" stroke-width="1.6" stroke-linecap="square" stroke-linejoin="round"/>
<path d="M31.6847 59.0674V61.7163" stroke="#222222" stroke-width="1.6" stroke-linecap="square" stroke-linejoin="round"/>
<path d="M46.7881 59.0676V61.7166" stroke="#222222" stroke-width="1.6" stroke-linecap="square" stroke-linejoin="round"/>
<path d="M61.8807 59.0674V61.7163" stroke="#222222" stroke-width="1.6" stroke-linecap="square" stroke-linejoin="round"/>
</g>
<defs>
<clipPath id="clip0_558_2643">
<rect width="68" height="68" fill="white"/>
</clipPath>
</defs>
</svg>
