<svg width="50" height="50" viewBox="0 0 50 50" fill="none" xmlns="http://www.w3.org/2000/svg">
<path d="M34.2524 35.6911V21.603" stroke="#222222" stroke-width="1.5" stroke-linecap="round" stroke-linejoin="round"/>
<path d="M29.1758 35.6911V26.6541" stroke="#222222" stroke-width="1.5" stroke-linecap="round" stroke-linejoin="round"/>
<path d="M44.3994 35.6912V11.5923" stroke="#222222" stroke-width="1.5" stroke-linecap="round" stroke-linejoin="round"/>
<path d="M39.3223 35.6913V16.4683" stroke="#222222" stroke-width="1.5" stroke-linecap="round" stroke-linejoin="round"/>
<path d="M26.2837 23.9571L44.7006 5.52563" stroke="#222222" stroke-width="1.5" stroke-linecap="round" stroke-linejoin="round"/>
<path d="M41.7383 1.56055H48.4398V8.2648" stroke="#222222" stroke-width="1.5" stroke-linecap="round" stroke-linejoin="round"/>
<path d="M28.6503 44.0349L23.0273 38.4094C25.6882 33.8489 25.079 27.8942 21.1716 23.9781C16.5148 19.3195 8.97302 19.3195 4.31628 23.9781C-0.340453 28.6368 -0.340453 36.1817 4.31628 40.8403C8.23074 44.7564 14.176 45.3659 18.7347 42.7038L24.3577 48.3292C25.5412 49.5202 27.4669 49.5202 28.6503 48.3292C29.8408 47.1453 29.8408 45.2188 28.6503 44.0349ZM12.7124 38.9979C9.05004 38.9979 6.07394 36.0276 6.07394 32.3567C6.07394 28.6858 9.04304 25.7155 12.7124 25.7155C16.3818 25.7155 19.3509 28.6858 19.3509 32.3567C19.3509 36.0276 16.3818 38.9979 12.7124 38.9979Z" fill="#FFAD00" stroke="#FFAD00" stroke-width="1.5" stroke-linecap="round" stroke-linejoin="round"/>
<path d="M28.6503 44.0349L23.0273 38.4094C25.6882 33.8489 25.079 27.8942 21.1716 23.9781C16.5148 19.3195 8.97302 19.3195 4.31628 23.9781C-0.340453 28.6368 -0.340453 36.1817 4.31628 40.8403C8.23074 44.7564 14.176 45.3659 18.7347 42.7038L24.3577 48.3292C25.5412 49.5202 27.4669 49.5202 28.6503 48.3292C29.8408 47.1453 29.8408 45.2188 28.6503 44.0349Z" stroke="#222222" stroke-width="1.5" stroke-linecap="round" stroke-linejoin="round"/>
<path d="M19.344 32.3636C19.344 36.0275 16.3749 38.9978 12.7125 38.9978C9.05016 38.9978 6.08105 36.0275 6.08105 32.3636C6.08105 28.6997 9.05016 25.7224 12.7125 25.7224" stroke="#222222" stroke-width="1.5" stroke-linecap="round" stroke-linejoin="round"/>
</svg>
