<svg width="185" height="40" viewBox="0 0 185 40" fill="none" xmlns="http://www.w3.org/2000/svg">
<path fill-rule="evenodd" clip-rule="evenodd" d="M44.3805 14.9319C44.0907 16.0128 43.5291 16.8062 42.6954 17.3128C41.8609 17.8192 40.6904 18.073 39.1805 18.073H34.3838L36.0677 11.7912H40.8644C42.3731 11.7912 43.4089 12.0445 43.9716 12.551C44.5332 13.058 44.6703 13.8515 44.3805 14.9319ZM49.3479 14.7965C49.958 12.5234 49.7051 10.7783 48.5897 9.56253C47.4742 8.34679 45.5196 7.73926 42.728 7.73926H32.0203L25.5757 31.7827H30.7779L33.3762 22.0908H36.7878C37.5528 22.0908 38.1549 22.2149 38.5953 22.4625C39.0367 22.7107 39.2951 23.1498 39.3749 23.7793L40.3028 31.7827H45.8767L44.9725 24.3201C44.7882 22.654 44.0256 21.6747 42.6854 21.3821C44.394 20.8874 45.8251 20.0648 46.9777 18.9165C48.1292 17.7687 48.9199 16.3957 49.3479 14.7965Z" fill="#072654"/>
<path fill-rule="evenodd" clip-rule="evenodd" d="M61.9901 23.1727C61.5554 24.7933 60.8858 26.032 59.9816 26.8872C59.0762 27.743 57.9932 28.1704 56.7329 28.1704C55.4477 28.1704 54.576 27.7486 54.1165 26.9041C53.6548 26.0601 53.6391 24.8393 54.0683 23.2401C54.4963 21.642 55.1793 20.3926 56.1195 19.4913C57.0585 18.5917 58.1584 18.1409 59.4198 18.1409C60.6803 18.1409 61.534 18.575 61.9766 19.4414C62.4193 20.3079 62.4248 21.5516 61.9901 23.1727ZM64.2705 14.6628L63.619 17.0942C63.3369 16.216 62.7921 15.5185 61.9856 15.0008C61.1779 14.4831 60.177 14.2236 58.984 14.2236C57.5203 14.2236 56.1127 14.601 54.7625 15.3552C53.4122 16.1098 52.2315 17.1734 51.2217 18.5463C50.2118 19.9198 49.4715 21.4843 49.0008 23.2401C48.5302 24.9966 48.4358 26.5442 48.7189 27.8834C49.002 29.2232 49.6153 30.253 50.56 30.9734C51.5037 31.6944 52.7191 32.0538 54.2053 32.0538C55.3983 32.0538 56.5352 31.8063 57.6136 31.3109C58.6919 30.8163 59.6074 30.129 60.3612 29.2512L59.6817 31.7838H64.7142L69.3031 14.6628H64.2705Z" fill="#072654"/>
<path fill-rule="evenodd" clip-rule="evenodd" d="M87.4002 14.6621H72.7742L71.7519 18.4783H80.2635L69.0098 28.2034L68.0493 31.7831H83.1483L84.1716 27.9675H75.0524L86.4768 18.1065L87.4002 14.6621Z" fill="#072654"/>
<path fill-rule="evenodd" clip-rule="evenodd" d="M100.277 23.139C99.824 24.8269 99.1534 26.0887 98.266 26.9215C97.3786 27.7542 96.3046 28.1703 95.0442 28.1703C92.4088 28.1703 91.5415 26.4941 92.4403 23.139C92.8874 21.4729 93.5614 20.2179 94.4623 19.374C95.3643 18.5294 96.4563 18.1072 97.7403 18.1072C99.0006 18.1072 99.851 18.5294 100.289 19.374C100.727 20.2179 100.724 21.4729 100.277 23.139ZM103.221 15.304C102.063 14.5841 100.583 14.2236 98.7816 14.2236C96.9572 14.2236 95.2677 14.5841 93.712 15.304C92.1561 16.025 90.8316 17.0605 89.7386 18.4109C88.6444 19.7619 87.8559 21.3376 87.3728 23.139C86.8898 24.9404 86.8336 26.5155 87.2044 27.8665C87.5739 29.2175 88.3423 30.253 89.5128 30.9734C90.6822 31.6944 92.1785 32.0538 94.0029 32.0538C95.8047 32.0538 97.4773 31.6944 99.022 30.9734C100.564 30.253 101.884 29.2175 102.978 27.8665C104.071 26.5155 104.86 24.9404 105.343 23.139C105.826 21.3376 105.882 19.7619 105.513 18.4109C105.142 17.0605 104.378 16.025 103.221 15.304Z" fill="#072654"/>
<path fill-rule="evenodd" clip-rule="evenodd" d="M155.86 23.1727C155.425 24.7933 154.755 26.032 153.851 26.8872C152.947 27.743 151.862 28.1704 150.601 28.1704C149.319 28.1704 148.446 27.7486 147.986 26.9041C147.524 26.0601 147.509 24.8393 147.938 23.2401C148.366 21.642 149.049 20.3926 149.989 19.4913C150.928 18.5917 152.028 18.1409 153.289 18.1409C154.55 18.1409 155.404 18.575 155.846 19.4414C156.289 20.3079 156.294 21.5516 155.86 23.1727ZM158.14 14.6628L157.489 17.0942C157.207 16.216 156.662 15.5185 155.855 15.0008C155.048 14.4831 154.047 14.2236 152.854 14.2236C151.39 14.2236 149.982 14.601 148.632 15.3552C147.282 16.1098 146.101 17.1734 145.091 18.5463C144.081 19.9198 143.341 21.4843 142.87 23.2401C142.4 24.9966 142.306 26.5442 142.589 27.8834C142.872 29.2232 143.484 30.253 144.43 30.9734C145.373 31.6944 146.589 32.0538 148.075 32.0538C149.268 32.0538 150.405 31.8063 151.483 31.3109C152.562 30.8163 153.477 30.129 154.231 29.2512L153.551 31.7838H158.584L163.173 14.6628H158.14Z" fill="#072654"/>
<path fill-rule="evenodd" clip-rule="evenodd" d="M121.165 19.255L122.448 14.5948C122.012 14.3696 121.434 14.2568 120.714 14.2568C119.565 14.2568 118.459 14.5437 117.393 15.1181C116.477 15.6109 115.697 16.3027 115.039 17.1694L115.706 14.6598L114.249 14.6622H110.675L106.051 31.7832H111.153L113.552 22.8347C113.901 21.5292 114.528 20.5105 115.435 19.7789C116.339 19.0472 117.468 18.6811 118.819 18.6811C119.653 18.6811 120.433 18.8725 121.165 19.255Z" fill="#072654"/>
<path fill-rule="evenodd" clip-rule="evenodd" d="M135.367 23.2395C134.938 24.8387 134.273 26.0595 133.372 26.9035C132.469 27.748 131.388 28.1697 130.128 28.1697C128.866 28.1697 128.007 27.7424 127.549 26.8866C127.091 26.0314 127.08 24.7932 127.515 23.1721C127.949 21.551 128.626 20.3072 129.545 19.4407C130.463 18.5743 131.554 18.1402 132.816 18.1402C134.054 18.1402 134.895 18.5912 135.341 19.4913C135.786 20.392 135.795 21.6419 135.367 23.2395ZM138.932 15.3545C137.985 14.6004 136.78 14.2236 135.317 14.2236C134.033 14.2236 132.811 14.5162 131.654 15.1013C130.494 15.6875 129.554 16.4854 128.832 17.499L128.849 17.3867L129.706 14.6598H128.719V14.6622H124.725L123.457 19.3967C123.442 19.4517 123.43 19.503 123.415 19.5587L118.184 39.0774H123.285L125.919 29.2512C126.178 30.1283 126.715 30.8156 127.528 31.3104C128.341 31.8056 129.345 32.0532 130.539 32.0532C132.025 32.0532 133.438 31.6939 134.78 30.9729C136.122 30.2529 137.288 29.2226 138.276 27.8828C139.266 26.5441 139.996 24.9959 140.467 23.2395C140.938 21.4836 141.035 19.9192 140.762 18.5457C140.489 17.1727 139.878 16.1092 138.932 15.3545Z" fill="#072654"/>
<path fill-rule="evenodd" clip-rule="evenodd" d="M184.296 14.6669L184.299 14.6621H181.209C181.111 14.6621 181.023 14.6649 180.933 14.6669H179.33L178.509 15.8091C178.444 15.8951 178.378 15.9817 178.307 16.0822L178.218 16.2145L171.701 25.2885L170.349 14.6621H165.011L167.715 30.8094L161.745 39.0774H161.915H164.963H167.063L168.51 37.0284C168.553 36.9674 168.589 36.9174 168.635 36.8529L170.323 34.4598L170.371 34.3913L177.926 23.685L184.291 14.6739L184.299 14.6669H184.296Z" fill="#072654"/>
<path fill-rule="evenodd" clip-rule="evenodd" d="M12.4646 10.4939L10.9375 16.1122L19.6754 10.4623L13.9611 31.7776L19.764 31.783L28.2056 0.299805L12.4646 10.4939Z" fill="#3395FF"/>
<path fill-rule="evenodd" clip-rule="evenodd" d="M3.06056 22.8226L0.658203 31.7832H12.5528C12.5528 31.7832 17.418 13.5589 17.4194 13.5537C17.4148 13.5566 3.06056 22.8226 3.06056 22.8226Z" fill="#072654"/>
</svg>
