<svg width="192" height="56" viewBox="0 0 192 56" fill="none" xmlns="http://www.w3.org/2000/svg">
<rect width="192" height="56" fill="white"/>
<path d="M32.8045 17.158H30.9163C30.7446 17.9305 30.6588 18.7029 30.5729 19.4754L29.1997 27.801H31.5171C34.5212 27.801 36.7528 25.3119 36.7528 21.5353C36.7528 18.8746 35.2078 17.158 32.8045 17.158ZM58.3821 26.1702C57.0088 26.1702 56.0646 28.8309 55.5497 30.9767H56.3221C58.0387 30.9767 59.412 29.8609 59.5837 28.4876V27.9726C59.5837 27.5435 59.4979 27.1143 59.2404 26.771C59.1545 26.4277 58.8112 26.1702 58.3821 26.1702ZM103.271 26.5135C103.186 26.5135 103.186 26.4277 103.1 26.4277C103.014 26.3419 102.842 26.3419 102.757 26.3419C102.499 26.3419 102.242 26.4277 102.07 26.5994C101.984 26.6852 101.898 26.6852 101.812 26.771C101.727 26.8568 101.727 26.9427 101.641 26.9427C101.212 27.5435 100.868 28.1443 100.697 28.8309C100.611 28.9168 100.611 29.0884 100.525 29.2601C100.353 29.6893 100.267 30.2042 100.096 30.6334L99.8383 31.7492C99.6666 32.9508 99.4949 34.2383 99.4949 35.5257L99.5808 37.414C99.5674 37.5623 99.5972 37.7114 99.6666 37.8432L99.9241 38.8731L100.182 39.3881C100.439 39.9031 100.697 40.1606 101.04 40.1606C101.212 40.1606 101.297 40.1606 101.469 40.0748C101.641 39.9889 101.812 39.9031 101.984 39.7314C102.499 39.1306 103.014 38.1007 103.443 36.7274L103.701 35.6974L103.958 34.4099L104.13 32.6075C104.216 32.0067 104.216 31.4917 104.216 30.8909C104.301 29.6893 104.13 28.4018 103.701 27.2002C103.701 27.0285 103.529 26.6852 103.271 26.5135ZM169.018 34.0666L169.447 31.1484C171.335 30.9767 172.794 30.6334 173.91 29.8609C175.283 29.0026 177 27.3718 177 24.1961C177 22.4795 176.571 20.8487 175.798 19.3896C174.94 17.8446 173.309 16.9005 171.593 16.9005H171.335C171.249 14.3256 169.104 12.3515 166.529 12.2656C164.125 12.2656 161.722 12.4373 159.405 12.7806C157.345 13.1239 155.714 15.0122 155.371 17.0722C155.371 17.158 149.878 17.0722 146.273 17.0722C143.44 17.0722 141.981 18.4454 141.981 18.4454C141.981 18.4454 140.608 16.643 136.917 17.0722C135.115 17.158 133.398 17.4155 131.596 17.7588C131.939 15.5272 132.196 13.2956 132.282 11.064V10.8923C132.282 8.2316 130.136 6.08583 127.476 6C123.957 6 119.923 6.51498 117.863 6.94414C115.631 7.54495 114.086 9.60489 114.172 11.9223C114.258 13.9822 113.314 20.1621 113.314 20.1621C111.082 18.2738 108.078 17.2438 104.645 17.2438C101.555 17.2438 98.465 17.9305 95.7184 19.3896C94.7743 18.3596 93.401 17.673 92.0277 17.7588C89.2811 17.7588 87.2212 17.7588 85.2471 17.9305C83.7021 18.0163 82.3288 18.8746 81.4705 20.2479C81.3847 20.1621 81.3847 20.0762 81.2988 19.9904C80.4405 18.4454 78.8098 17.5013 77.0931 17.5013C73.4883 17.5013 67.2226 18.5313 66.9651 18.7029C64.8194 17.7588 62.5019 17.2438 60.0987 17.3296C56.5796 17.2438 53.1464 18.1879 50.2282 19.9904C49.7132 12.6948 43.4475 7.71661 34.5212 7.71661C34.5212 7.71661 23.6207 8.14577 21.6466 8.57492C19.3291 9.0899 17.6984 11.2357 17.87 13.5531C17.87 15.1839 17.7842 16.9005 17.4409 18.7029L14.2651 39.1306C14.0076 40.3323 13.4068 44.023 15.7242 46.7696C16.6684 47.8854 18.385 49.1728 21.3891 49.1728C22.7624 49.1728 26.4531 49.0011 29.4571 47.6279C30.2296 47.2845 30.9163 46.6837 31.4313 45.9971C33.062 47.8853 35.4653 49.2586 38.9843 49.2586C42.0743 49.2586 45.0783 48.4862 47.8249 47.1129C50.314 48.572 53.1464 49.3445 56.0646 49.2586C61.3003 49.2586 66.1927 47.1987 69.2826 43.6796C70.9992 48.057 74.1749 49.087 76.7498 49.087C78.8956 49.087 81.4705 48.8295 84.0454 47.542C86.1912 46.5121 87.1353 42.993 87.5645 42.2205C89.7102 46.5121 94.0018 49.1728 99.4091 49.1728C103.701 49.1728 107.906 47.7995 111.34 45.0529C111.597 45.4821 111.855 45.8254 112.112 46.1687C113.228 47.4562 115.374 49.0011 119.064 49.0011C121.725 49.087 124.386 48.3145 126.532 46.8554C127.733 48.057 129.707 49.1728 132.711 49.1728C134.943 49.1728 137.175 48.572 139.149 47.542C140.608 48.572 142.496 49.087 144.728 49.087C148.247 49.087 151.422 47.8853 153.482 45.7396C155.199 47.4562 158.203 49.1728 163.353 49.1728C168.074 49.1728 172.794 46.1687 175.198 42.1347C177.086 39.1306 175.026 33.8091 169.018 34.0666ZM45.3358 21.4495C45.0783 25.2261 42.6751 28.316 38.9843 30.2901L42.3317 39.1306C43.2759 41.5339 43.8767 42.478 44.9067 43.2505C44.6492 43.4222 44.3917 43.508 44.1342 43.5938C42.5034 44.1088 40.701 44.4521 38.9843 44.3663C37.2677 44.3663 34.9503 43.9371 33.4912 39.7314L31.0021 32.5217H28.513L27.3972 39.3881C27.2256 40.1606 27.1397 40.9331 27.1397 41.7055V41.8772C27.1397 42.3064 27.2256 42.7355 27.3972 43.1647C25.5089 44.023 22.934 44.2805 21.3891 44.2805C20.1016 44.2805 18.9 43.8513 18.8142 41.6197C18.8142 41.0189 18.9 40.4181 18.9858 39.8173L22.1615 19.3896C22.419 17.8446 22.5907 16.2138 22.5907 14.6689V13.0381C23.6207 12.7806 27.3114 12.3515 30.6588 12.3515H34.3495C36.5811 12.2656 38.7269 12.7806 40.7868 13.6389C41.3018 13.8964 41.9026 14.2397 42.3317 14.5831C42.7609 14.9264 43.19 15.3555 43.6192 15.7847C44.1342 16.4713 44.5633 17.158 44.9067 18.0163C45.1642 18.8746 45.3358 19.7329 45.3358 20.677V21.4495ZM57.6096 35.1824C57.2663 35.1824 56.923 35.2682 56.6655 35.2682H55.2922V35.7832C55.4638 38.1865 56.4938 40.2464 58.7254 40.2464H59.2404C61.3861 39.9889 62.6736 38.444 63.7894 38.444C64.3044 38.5298 64.8194 38.7015 65.2485 38.959L66.3643 39.6456C65.5918 40.7614 64.6477 41.7055 63.4461 42.3922C61.2145 43.8513 58.6396 44.538 55.9788 44.538C50.314 44.538 46.8808 41.3622 46.6233 36.2982V35.4399C46.6233 29.0026 50.829 21.9645 60.1845 21.9645C61.5578 21.9645 62.9311 22.1362 64.1327 22.5653C66.3643 23.3378 67.6518 24.9686 67.6518 27.1143C67.7376 29.6893 66.1068 34.4099 57.6096 35.1824ZM83.6163 39.3023C82.8438 40.5897 82.1572 41.963 81.6422 43.4222C80.0972 44.1946 78.3806 44.3663 76.664 44.3663C75.2049 44.3663 73.8316 43.6796 73.1449 39.9031L70.9992 29.1743C70.57 27.0285 69.8834 24.8827 69.0251 22.8228C69.7975 22.6511 70.57 22.4795 71.3425 22.3937C71.5142 22.3937 71.6858 22.3078 71.8575 22.3078H71.9433C72.115 22.3078 72.2866 22.3078 72.5441 22.222H72.63C73.0591 22.222 73.4883 22.1362 74.0032 22.1362H77.179C77.5223 22.8228 77.8656 23.5094 78.1231 24.1961C78.2089 24.4536 78.2948 24.6252 78.3806 24.8827C78.5523 25.3977 78.6381 25.9127 78.7239 26.4277L80.183 36.2124C81.3847 33.895 82.5005 31.4917 83.5304 29.0884C84.2171 27.4577 84.8179 25.8269 85.2471 24.1103C85.4187 23.5095 85.5045 22.9945 85.6762 22.3937C86.1912 22.3078 86.7062 22.3078 87.2212 22.3078H92.0277C91.856 23.7669 91.5127 25.1402 90.9119 26.5135C88.8519 30.8909 86.277 35.0966 83.6163 39.3023ZM110.31 39.3881C109.537 40.4181 108.593 41.2764 107.563 41.963C107.391 42.1347 107.134 42.2205 106.962 42.3922C106.962 42.3922 106.876 42.3922 106.876 42.478C106.705 42.5639 106.533 42.7355 106.361 42.8213C106.361 42.8213 106.276 42.8213 106.276 42.9072C106.104 42.993 105.932 43.0788 105.675 43.1647C105.675 43.1647 105.589 43.1647 105.589 43.2505C105.331 43.3363 105.16 43.4222 104.902 43.508C104.473 43.6796 103.958 43.8513 103.443 44.023C103.357 44.023 103.357 44.023 103.271 44.1088C103.1 44.1946 102.928 44.1946 102.757 44.2805C102.671 44.2805 102.585 44.2805 102.499 44.3663C102.327 44.3663 102.156 44.4521 101.984 44.4521C101.898 44.4521 101.812 44.4521 101.727 44.538C101.555 44.538 101.383 44.6238 101.212 44.6238H98.1217C97.95 44.6238 97.6925 44.538 97.5208 44.538C97.435 44.538 97.2633 44.4521 97.1775 44.4521C97.0059 44.4521 96.8342 44.3663 96.6625 44.3663C96.5767 44.3663 96.405 44.2805 96.3192 44.2805C96.1475 44.1946 95.9759 44.1946 95.8901 44.1088C95.8042 44.023 95.6326 44.023 95.5467 43.9371C95.3751 43.8513 95.2892 43.8513 95.1176 43.7655C95.0317 43.6796 94.8601 43.6796 94.7743 43.5938C94.6884 43.508 94.5168 43.4222 94.4309 43.3363C94.3451 43.2505 94.2593 43.1647 94.0876 43.1647C94.0018 43.0788 93.8301 42.993 93.7443 42.9072L92.7143 41.8772C92.6285 41.7914 92.5427 41.7055 92.4568 41.5339C92.371 41.448 92.2852 41.3622 92.1993 41.1906C92.109 41.0959 92.0492 40.9763 92.0277 40.8472C91.9418 40.7614 91.9418 40.5897 91.856 40.5039C91.7702 40.4181 91.7702 40.2464 91.6844 40.1606C91.5985 40.0748 91.5985 39.9031 91.5127 39.8173C91.4269 39.6456 91.4269 39.5598 91.341 39.3881C91.341 39.3023 91.2552 39.1306 91.2552 39.0448C91.2552 38.8731 91.1694 38.7873 91.1694 38.6156C91.1694 38.5298 91.0835 38.3581 91.0835 38.2723C90.9977 37.8432 90.9119 37.414 90.9119 36.9849V35.9549C90.9119 31.1484 93.1435 27.1143 96.5767 24.7111C97.1775 24.2819 97.6925 23.9386 98.3791 23.6811C98.98 23.4236 99.6666 23.1661 100.267 22.9086H100.353C100.697 22.8228 100.954 22.737 101.297 22.6511H101.383C101.727 22.5653 101.984 22.5653 102.327 22.4795H102.413C102.757 22.3937 103.1 22.3937 103.357 22.3937H105.761C106.018 22.3937 106.19 22.4795 106.447 22.4795H106.619C106.876 22.5653 107.134 22.5653 107.391 22.6511C107.477 22.6511 107.563 22.737 107.649 22.737C107.821 22.8228 107.992 22.8228 108.164 22.9086C108.25 22.9086 108.335 22.9945 108.421 22.9945C108.593 23.0803 108.85 23.1661 109.022 23.252C109.108 23.252 109.194 23.3378 109.28 23.4236C109.365 23.5094 109.537 23.5953 109.623 23.6811C109.709 23.7669 109.795 23.7669 109.88 23.8528C109.978 23.9588 110.095 24.0461 110.224 24.1103C110.395 24.1961 110.481 24.3678 110.653 24.4536L111.34 25.1402C111.511 25.3977 111.769 25.6552 111.94 25.9127C112.026 26.0844 112.112 26.1702 112.198 26.3419C112.198 26.4277 112.284 26.4277 112.284 26.5135C112.97 27.9726 113.4 29.5176 113.314 31.1484C113.228 33.895 112.198 36.899 110.31 39.3881ZM127.218 14.2397L126.703 17.8446L125.759 24.0244L123.356 39.3023C123.356 39.4739 123.27 39.6456 123.27 39.8173V40.4181C123.27 40.5039 123.356 40.5897 123.356 40.6756V40.7614C123.356 40.8472 123.442 40.9331 123.528 41.0189L123.871 41.3622C124.214 41.6197 124.643 41.7055 125.072 41.7055C124.729 42.2205 124.3 42.6497 123.785 42.9072C123.699 42.9072 123.699 42.993 123.613 42.993C123.528 43.0788 123.356 43.1647 123.27 43.2505C123.184 43.3363 123.098 43.3363 123.013 43.3363C122.927 43.4222 122.755 43.4222 122.669 43.508C122.498 43.5938 122.24 43.6796 121.983 43.7655C121.897 43.7655 121.811 43.8513 121.639 43.8513C121.468 43.9371 121.296 43.9371 121.124 43.9371C121.038 43.9371 120.953 43.9371 120.781 44.023C120.609 44.023 120.438 44.1088 120.18 44.1088H117.605C117.519 44.1088 117.434 44.1088 117.434 44.023C117.348 44.023 117.348 44.023 117.262 43.9371C117.176 43.9371 117.09 43.8513 117.09 43.8513C117.09 43.8513 117.004 43.8513 117.004 43.7655C116.919 43.7655 116.833 43.6796 116.747 43.6796H116.661C116.318 43.508 115.974 43.2505 115.717 42.9072V42.8213C115.631 42.7355 115.631 42.6497 115.545 42.5638C115.545 42.5638 115.545 42.478 115.459 42.478C115.374 42.3922 115.374 42.3064 115.374 42.2205V42.1347C115.374 42.0489 115.288 41.963 115.288 41.7914V41.7055C115.288 41.6197 115.202 41.4481 115.202 41.3622V40.8472C115.202 40.4181 115.202 40.0748 115.288 39.6456L118.807 17.7588C118.893 17.5013 118.893 17.2438 118.893 16.9005C119.064 15.8705 119.15 14.9264 119.236 13.8964V11.4073C119.408 11.4073 119.493 11.3215 119.665 11.3215C119.837 11.3215 120.008 11.2357 120.18 11.2357C120.438 11.1498 120.781 11.1498 121.124 11.064C121.296 11.064 121.468 11.064 121.639 10.9782C122.154 10.8923 122.669 10.8923 123.27 10.8065C123.699 10.8065 124.042 10.7207 124.472 10.7207C125.502 10.6349 126.617 10.6349 127.647 10.6349C127.647 11.3215 127.562 12.1798 127.562 13.0381C127.304 13.6389 127.218 13.9823 127.218 14.2397ZM150.65 41.7914C149.62 43.3363 147.388 44.3663 144.728 44.3663H143.869C143.612 44.3663 143.354 44.2805 143.097 44.1946L142.324 43.9371C141.123 43.4222 140.436 42.2205 140.779 39.9031L140.865 39.4739C140.779 39.7314 140.608 39.9031 140.436 40.1606C140.179 40.5897 139.835 41.0189 139.578 41.3622C139.235 41.7055 138.891 42.0489 138.548 42.3064C138.376 42.478 138.205 42.5638 138.033 42.7355C137.681 42.9951 137.308 43.2248 136.917 43.4222C136.23 43.7655 135.458 44.1088 134.686 44.2805C134.342 44.3663 133.999 44.4521 133.656 44.4521C133.312 44.4521 133.055 44.538 132.711 44.538H131.939C131.853 44.538 131.681 44.538 131.596 44.4521C131.51 44.4521 131.424 44.4521 131.338 44.3663C131.252 44.3663 131.166 44.2805 131.081 44.2805C130.995 44.2805 130.909 44.1946 130.823 44.1946C130.823 44.1946 130.737 44.1946 130.737 44.1088C128.763 43.2505 128.162 40.9331 128.677 37.8432L130.051 29.0884C130.051 28.8309 130.136 28.5735 130.136 28.4018V28.1443C130.136 27.9726 130.136 27.8868 130.222 27.7151V27.0285C130.308 26.5135 130.308 26.0844 130.308 25.5694V24.1961C130.308 23.6811 130.308 23.252 130.222 22.6511C130.308 22.6511 130.394 22.5653 130.566 22.5653C130.651 22.5653 130.737 22.5653 130.909 22.4795H138.72C138.805 24.3678 138.376 26.9427 138.033 29.3459L136.831 36.7274C136.831 36.899 136.66 38.1865 136.66 38.5298C136.66 38.8731 136.66 39.3023 136.745 39.6456C136.745 39.8173 136.831 39.9889 136.917 40.2464C137.003 40.3322 137.089 40.5039 137.175 40.5039H137.26C137.518 40.5039 137.947 40.2464 138.462 39.7314C139.235 38.959 139.835 38.0148 140.35 37.0707C140.522 36.6415 140.779 36.2982 140.951 35.7832C141.123 35.3541 141.294 34.8391 141.466 34.4099C141.552 34.1524 141.638 33.895 141.638 33.6375L142.239 29.4318C142.324 28.8309 142.41 28.316 142.496 27.801L142.754 25.3977C142.839 24.6252 142.925 23.7669 142.925 22.8228C143.955 22.737 147.989 22.222 151.079 22.3078C150.993 24.6252 150.736 26.9427 150.307 29.2601L148.676 39.5598C148.676 41.0189 149.363 41.7914 150.65 41.7914ZM155.457 39.0448C155.457 38.5298 155.457 38.0148 155.542 37.5857L157.259 26.8568C156.916 26.8568 156.744 26.9427 156.572 26.9427C156.143 27.0285 155.971 27.0285 155.8 27.1143C155.542 27.2002 155.199 27.2002 154.942 27.286C154.684 25.7518 154.684 24.1854 154.942 22.6511C155.285 22.6511 155.628 22.6511 156.143 22.5653H158.203C158.804 20.9345 159.748 19.5612 160.091 17.673C160.606 17.5871 161.293 17.5013 161.98 17.4155C162.323 17.4155 162.495 17.3296 162.752 17.3296C163.01 17.3296 163.267 17.3296 163.61 17.2438C164.469 17.158 165.413 17.158 166.529 17.158C166.443 18.6171 166.271 20.4195 166.014 22.5653H167.559C169.962 22.5653 170.906 22.3078 171.678 21.707C172.108 22.4795 172.365 23.3378 172.365 24.1961C172.365 25.3977 172.022 26.1702 168.245 26.256H165.413L163.696 36.9849V37.6715C163.696 39.1306 164.383 40.3323 165.499 40.3323C167.301 40.3323 167.73 38.959 168.417 38.959C170.048 39.2165 170.992 40.1606 170.992 40.1606C169.79 42.478 166.7 44.6238 163.439 44.6238C158.461 44.538 155.628 42.3064 155.457 39.0448Z" fill="url(#paint0_linear_1132_647)"/>
<defs>
<linearGradient id="paint0_linear_1132_647" x1="14.0076" y1="27.6293" x2="177.086" y2="27.6293" gradientUnits="userSpaceOnUse">
<stop stop-color="#52C3E7"/>
<stop offset="1" stop-color="#0089CC"/>
</linearGradient>
</defs>
</svg>
