<svg width="192" height="56" viewBox="0 0 192 56" fill="none" xmlns="http://www.w3.org/2000/svg">
<rect width="192" height="56" fill="white"/>
<path fill-rule="evenodd" clip-rule="evenodd" d="M48.7223 23.6321C48.4325 24.713 47.8709 25.5064 47.0372 26.013C46.2027 26.5194 45.0322 26.7732 43.5223 26.7732H38.7256L40.4095 20.4914H45.2062C46.7149 20.4914 47.7507 20.7447 48.3134 21.2512C48.875 21.7582 49.0121 22.5517 48.7223 23.6321ZM53.6897 23.4967C54.2998 21.2236 54.0469 19.4785 52.9315 18.2627C51.816 17.047 49.8614 16.4395 47.0698 16.4395H36.3621L29.9175 40.4829H35.1197L37.718 30.791H41.1296C41.8946 30.791 42.4967 30.9151 42.9371 31.1627C43.3785 31.4109 43.6369 31.85 43.7167 32.4795L44.6446 40.4829H50.2185L49.3143 33.0203C49.13 31.3542 48.3674 30.3749 47.0272 30.0823C48.7358 29.5876 50.1669 28.765 51.3195 27.6167C52.471 26.4689 53.2617 25.0959 53.6897 23.4967Z" fill="#072654"/>
<path fill-rule="evenodd" clip-rule="evenodd" d="M66.3319 31.8729C65.8972 33.4935 65.2276 34.7322 64.3234 35.5874C63.418 36.4432 62.335 36.8706 61.0747 36.8706C59.7895 36.8706 58.9178 36.4488 58.4583 35.6043C57.9966 34.7603 57.9809 33.5395 58.4101 31.9403C58.8381 30.3422 59.5211 29.0928 60.4613 28.1915C61.4003 27.2919 62.5002 26.8411 63.7616 26.8411C65.0221 26.8411 65.8758 27.2752 66.3184 28.1416C66.7611 29.008 66.7666 30.2518 66.3319 31.8729ZM68.6123 23.363L67.9608 25.7944C67.6787 24.9162 67.1339 24.2187 66.3274 23.701C65.5197 23.1833 64.5188 22.9238 63.3258 22.9238C61.8621 22.9238 60.4545 23.3012 59.1043 24.0554C57.754 24.81 56.5733 25.8736 55.5635 27.2465C54.5536 28.62 53.8133 30.1844 53.3426 31.9403C52.872 33.6968 52.7776 35.2444 53.0607 36.5836C53.3438 37.9234 53.9571 38.9532 54.9018 39.6736C55.8455 40.3946 57.0609 40.754 58.5471 40.754C59.7401 40.754 60.877 40.5065 61.9554 40.0111C63.0337 39.5165 63.9492 38.8292 64.703 37.9514L64.0235 40.484H69.056L73.6449 23.363H68.6123Z" fill="#072654"/>
<path fill-rule="evenodd" clip-rule="evenodd" d="M91.742 23.3623H77.116L76.0936 27.1785H84.6053L73.3516 36.9035L72.3911 40.4833H87.4901L88.5134 36.6677H79.3942L90.8186 26.8067L91.742 23.3623Z" fill="#072654"/>
<path fill-rule="evenodd" clip-rule="evenodd" d="M104.619 31.8392C104.166 33.5271 103.495 34.7889 102.608 35.6217C101.72 36.4544 100.646 36.8705 99.386 36.8705C96.7506 36.8705 95.8833 35.1943 96.7821 31.8392C97.2292 30.1731 97.9032 28.9181 98.8041 28.0742C99.7061 27.2296 100.798 26.8074 102.082 26.8074C103.342 26.8074 104.193 27.2296 104.631 28.0742C105.069 28.9181 105.066 30.1731 104.619 31.8392ZM107.563 24.0042C106.405 23.2843 104.925 22.9238 103.123 22.9238C101.299 22.9238 99.6095 23.2843 98.0538 24.0042C96.4979 24.7252 95.1734 25.7607 94.0804 27.1111C92.9862 28.4621 92.1977 30.0378 91.7146 31.8392C91.2316 33.6406 91.1754 35.2157 91.5462 36.5667C91.9157 37.9177 92.6841 38.9532 93.8546 39.6736C95.024 40.3946 96.5203 40.754 98.3447 40.754C100.146 40.754 101.819 40.3946 103.364 39.6736C104.906 38.9532 106.226 37.9177 107.32 36.5667C108.413 35.2157 109.202 33.6406 109.685 31.8392C110.168 30.0378 110.224 28.4621 109.854 27.1111C109.484 25.7607 108.72 24.7252 107.563 24.0042Z" fill="#072654"/>
<path fill-rule="evenodd" clip-rule="evenodd" d="M160.202 31.8729C159.767 33.4935 159.097 34.7322 158.193 35.5874C157.289 36.4432 156.204 36.8706 154.943 36.8706C153.66 36.8706 152.787 36.4488 152.328 35.6043C151.866 34.7603 151.851 33.5395 152.28 31.9403C152.708 30.3422 153.391 29.0928 154.331 28.1915C155.27 27.2919 156.37 26.8411 157.631 26.8411C158.892 26.8411 159.745 27.2752 160.188 28.1416C160.631 29.008 160.636 30.2518 160.202 31.8729ZM162.482 23.363L161.83 25.7944C161.548 24.9162 161.004 24.2187 160.197 23.701C159.389 23.1833 158.388 22.9238 157.195 22.9238C155.732 22.9238 154.324 23.3012 152.974 24.0554C151.624 24.81 150.443 25.8736 149.433 27.2465C148.423 28.62 147.683 30.1844 147.212 31.9403C146.742 33.6968 146.648 35.2444 146.93 36.5836C147.213 37.9234 147.826 38.9532 148.771 39.6736C149.715 40.3946 150.931 40.754 152.417 40.754C153.61 40.754 154.747 40.5065 155.825 40.0111C156.903 39.5165 157.819 38.8292 158.573 37.9514L157.893 40.484H162.926L167.515 23.363H162.482Z" fill="#072654"/>
<path fill-rule="evenodd" clip-rule="evenodd" d="M125.507 27.9552L126.789 23.295C126.354 23.0698 125.776 22.957 125.056 22.957C123.907 22.957 122.8 23.2439 121.734 23.8183C120.819 24.3111 120.039 25.0029 119.381 25.8696L120.048 23.36L118.591 23.3624H115.017L110.393 40.4834H115.495L117.894 31.5349C118.243 30.2294 118.87 29.2107 119.776 28.4791C120.681 27.7474 121.81 27.3812 123.161 27.3812C123.994 27.3812 124.775 27.5727 125.507 27.9552Z" fill="#072654"/>
<path fill-rule="evenodd" clip-rule="evenodd" d="M139.709 31.9397C139.279 33.5389 138.615 34.7597 137.714 35.6037C136.81 36.4482 135.73 36.8699 134.469 36.8699C133.208 36.8699 132.349 36.4426 131.891 35.5868C131.433 34.7316 131.422 33.4934 131.856 31.8723C132.291 30.2512 132.967 29.0074 133.886 28.1409C134.805 27.2745 135.896 26.8404 137.158 26.8404C138.395 26.8404 139.237 27.2914 139.683 28.1915C140.128 29.0922 140.137 30.3421 139.709 31.9397ZM143.274 24.0547C142.327 23.3006 141.122 22.9238 139.659 22.9238C138.375 22.9238 137.153 23.2164 135.996 23.8015C134.836 24.3877 133.895 25.1856 133.174 26.1992L133.19 26.0869L134.048 23.36H133.061V23.3624H129.067L127.799 28.0968C127.784 28.1519 127.772 28.2032 127.757 28.2589L122.526 47.7776H127.627L130.261 37.9514C130.52 38.8285 131.057 39.5158 131.87 40.0105C132.683 40.5058 133.686 40.7534 134.88 40.7534C136.367 40.7534 137.78 40.3941 139.122 39.6731C140.464 38.9531 141.629 37.9228 142.618 36.583C143.608 35.2443 144.338 33.6961 144.809 31.9397C145.279 30.1838 145.377 28.6194 145.104 27.2459C144.831 25.8729 144.22 24.8094 143.274 24.0547Z" fill="#072654"/>
<path fill-rule="evenodd" clip-rule="evenodd" d="M188.638 23.3671L188.641 23.3623H185.551C185.452 23.3623 185.365 23.3651 185.275 23.3671H183.671L182.851 24.5092C182.786 24.5953 182.72 24.6819 182.649 24.7824L182.56 24.9147L176.043 33.9887L174.691 23.3623H169.353L172.056 39.5096L166.086 47.7776H166.257H169.305H171.405L172.852 45.7286C172.894 45.6676 172.931 45.6176 172.976 45.5531L174.665 43.16L174.713 43.0915L182.268 32.3852L188.633 23.3741L188.641 23.3671H188.638Z" fill="#072654"/>
<path fill-rule="evenodd" clip-rule="evenodd" d="M16.8064 19.1941L15.2793 24.8124L24.0172 19.1625L18.3029 40.4778L24.1058 40.4832L32.5473 9L16.8064 19.1941Z" fill="#3395FF"/>
<path fill-rule="evenodd" clip-rule="evenodd" d="M7.40236 31.5228L5 40.4834H16.8946C16.8946 40.4834 21.7598 22.2591 21.7612 22.2539C21.7566 22.2568 7.40236 31.5228 7.40236 31.5228Z" fill="#072654"/>
</svg>
