<svg width="60" height="60" viewBox="0 0 60 60" fill="none" xmlns="http://www.w3.org/2000/svg">
<path d="M45.2564 15.2428C35.2432 5.2296 19.0158 5.2296 9.01114 15.2428C-1.00209 25.2561 -1.00209 41.4835 9.01114 51.4881C19.0244 61.5013 35.2518 61.5013 45.2564 51.4881C55.2697 41.4749 55.2697 25.2475 45.2564 15.2428ZM38.9477 45.1794C32.424 51.703 21.8521 51.703 15.3285 45.1794C8.80486 38.6557 8.80486 28.0838 15.3285 21.5602C21.8521 15.0365 32.424 15.0365 38.9477 21.5602C45.4713 28.0838 45.4713 38.6557 38.9477 45.1794Z" fill="#FFAD00" stroke="#FFAD00" stroke-width="1.5" stroke-linecap="round" stroke-linejoin="round"/>
<path d="M41.3887 24.6631C45.3167 31.0922 44.5001 39.6099 38.9392 45.1795C32.4155 51.7031 21.8436 51.7031 15.32 45.1795C8.79634 38.6559 8.79634 28.084 15.32 21.5603C20.8896 15.9907 29.4072 15.1742 35.8363 19.1107" stroke="#222222" stroke-width="1.5" stroke-linecap="round" stroke-linejoin="round"/>
<path d="M32.6305 38.8707C29.5964 41.9047 24.6715 41.9047 21.6288 38.8707C18.5948 35.8366 18.5948 30.9117 21.6288 27.869C24.6629 24.835 29.5878 24.835 32.6305 27.869C35.6645 30.9031 35.6645 35.8281 32.6305 38.8707Z" fill="#FFAD00" stroke="#FFAD00" stroke-width="1.5" stroke-linecap="round" stroke-linejoin="round"/>
<path d="M34.6589 31.4102C35.3293 33.9887 34.6503 36.8422 32.6305 38.8621C29.5964 41.8961 24.6715 41.8961 21.6288 38.8621C18.5948 35.828 18.5948 30.9031 21.6288 27.8604C23.6572 25.832 26.5194 25.1616 29.1065 25.8406" fill="#FFAD00"/>
<path d="M34.6589 31.4102C35.3293 33.9887 34.6503 36.8422 32.6305 38.8621C29.5964 41.8961 24.6715 41.8961 21.6288 38.8621C18.5948 35.828 18.5948 30.9031 21.6288 27.8604C23.6572 25.832 26.5194 25.1616 29.1065 25.8406" stroke="#222222" stroke-width="1.5" stroke-linecap="round" stroke-linejoin="round"/>
<path d="M50.9894 1.49951V9.5015H59L50.3877 18.1137H42.3857V10.1117L50.9894 1.49951Z" fill="white" stroke="#222222" stroke-width="1.5" stroke-linecap="round" stroke-linejoin="round"/>
<path d="M42.3858 18.1135L27.1296 33.3697" stroke="#222222" stroke-width="1.5" stroke-linecap="round" stroke-linejoin="round"/>
<path d="M38.4578 10.3695C28.8829 5.65082 16.9702 7.27528 9.00259 15.2429C-1.01063 25.2561 -1.01063 41.4835 9.00259 51.4882C19.0158 61.5014 35.2433 61.5014 45.2479 51.4882C53.2155 43.5206 54.84 31.6078 50.1213 22.0244" stroke="#222222" stroke-width="1.5" stroke-linecap="round" stroke-linejoin="round"/>
</svg>
