<svg width="52" height="52" viewBox="0 0 52 52" fill="none" xmlns="http://www.w3.org/2000/svg">
<g clip-path="url(#clip0_558_2659)">
<path d="M42.3741 21.3638C43.7717 21.3638 44.9023 22.4944 44.9023 23.8919C44.9023 25.2895 43.7717 26.4201 42.3741 26.4201" stroke="#222222" stroke-width="1.6" stroke-linecap="round" stroke-linejoin="round"/>
<path d="M51.3719 39.2963V30.6676H42.3742C38.6369 30.6676 35.5984 27.6291 35.5984 23.8918C35.5984 20.1545 38.6369 17.116 42.3742 17.116H51.3719V8.48728H17.5165C15.3417 8.48728 13.583 6.72856 13.583 4.55371V36.14C13.583 38.3148 15.3417 39.2884 17.5165 39.2884H51.3719V39.2963Z" fill="#FFAD00" stroke="#FFAD00" stroke-width="1.6" stroke-linecap="round" stroke-linejoin="round"/>
<path d="M51.3721 30.6678H42.3744C38.6371 30.6678 35.5986 27.6293 35.5986 23.892C35.5986 20.1547 38.6371 17.1162 42.3744 17.1162H51.3721V30.6599V30.6678Z" stroke="#222222" stroke-width="1.6" stroke-miterlimit="10" stroke-linecap="square"/>
<path d="M13.583 22.8947V14.6272" stroke="#222222" stroke-width="1.6" stroke-linejoin="round"/>
<path d="M51.3719 33.8083V39.2965H29.1288" stroke="#222222" stroke-width="1.6" stroke-linejoin="round"/>
<path d="M51.3719 13.9754V8.48728H17.5165C15.3417 8.48728 13.583 6.72856 13.583 4.55371" stroke="#222222" stroke-width="1.6" stroke-linejoin="round"/>
<path d="M47.4383 4.56177H17.5165" stroke="#222222" stroke-width="1.6" stroke-miterlimit="10" stroke-linecap="round"/>
<path d="M43.5126 0.628174H17.5165C15.3417 0.628174 13.583 2.38689 13.583 4.56174" stroke="#222222" stroke-width="1.6" stroke-linecap="round" stroke-linejoin="round"/>
<path d="M13.583 10.8665V14.6273" stroke="#222222" stroke-width="1.6" stroke-miterlimit="10" stroke-linecap="round"/>
<path d="M25.9961 38.6918C25.9961 45.6952 20.3195 51.3718 13.316 51.3718C6.31255 51.3718 0.628113 45.6952 0.628113 38.6918C0.628113 31.6883 6.3047 26.0117 13.3082 26.0117C20.3116 26.0117 25.9882 31.6883 25.9882 38.6918H25.9961Z" fill="white"/>
<path d="M25.9961 38.6918C25.9961 45.6952 20.3195 51.3718 13.316 51.3718C6.31255 51.3718 0.628113 45.6952 0.628113 38.6918C0.628113 31.6883 6.3047 26.0117 13.3082 26.0117C20.3116 26.0117 25.9882 31.6883 25.9882 38.6918H25.9961Z" stroke="#222222" stroke-width="1.6" stroke-linecap="round" stroke-linejoin="round"/>
<path d="M17.1475 35.3392C15.8913 31.9867 10.2068 32.3792 10.1676 35.881C10.1519 37.4434 11.9813 38.1657 13.5123 38.4091C19.0947 39.2885 17.5558 44.5411 13.5123 44.3448C10.4424 44.1956 9.56303 42.1229 9.46881 41.6204" fill="white"/>
<path d="M17.1475 35.3392C15.8913 31.9867 10.2068 32.3792 10.1676 35.881C10.1519 37.4434 11.9813 38.1657 13.5123 38.4091C19.0947 39.2885 17.5558 44.5411 13.5123 44.3448C10.4424 44.1956 9.56303 42.1229 9.46881 41.6204" stroke="#222222" stroke-width="1.6" stroke-linecap="round" stroke-linejoin="round"/>
<path d="M13.583 30.2124V33.0311" stroke="#222222" stroke-width="1.6" stroke-linecap="round" stroke-linejoin="round"/>
<path d="M13.583 44.345V47.1636" stroke="#222222" stroke-width="1.6" stroke-linecap="round" stroke-linejoin="round"/>
</g>
<defs>
<clipPath id="clip0_558_2659">
<rect width="52" height="52" fill="white"/>
</clipPath>
</defs>
</svg>
