<svg width="51" height="51" viewBox="0 0 51 51" fill="none" xmlns="http://www.w3.org/2000/svg">
<path d="M40.5364 10.2556L46.4778 4.31421" stroke="#222222" stroke-width="1.5" stroke-linecap="round" stroke-linejoin="round"/>
<path d="M42.771 1H49.792V8.02099" stroke="#222222" stroke-width="1.5" stroke-linecap="round" stroke-linejoin="round"/>
<path d="M10.2556 10.2556L4.31421 4.31421" stroke="#222222" stroke-width="1.5" stroke-linecap="round" stroke-linejoin="round"/>
<path d="M8.02099 1H1V8.02099" stroke="#222222" stroke-width="1.5" stroke-linecap="round" stroke-linejoin="round"/>
<path d="M40.5364 40.5364L46.4778 46.4778" stroke="#222222" stroke-width="1.5" stroke-linecap="round" stroke-linejoin="round"/>
<path d="M42.771 49.792H49.792V42.771" stroke="#222222" stroke-width="1.5" stroke-linecap="round" stroke-linejoin="round"/>
<path d="M10.2556 40.5364L4.31421 46.4778" stroke="#222222" stroke-width="1.5" stroke-linecap="round" stroke-linejoin="round"/>
<path d="M8.02099 49.792H1V42.771" stroke="#222222" stroke-width="1.5" stroke-linecap="round" stroke-linejoin="round"/>
<path d="M25.3996 8.35303L9.99121 16.8764V33.9155L25.3996 42.4388L40.8005 33.9155V16.8764L25.3996 8.35303Z" fill="#FFAD00"/>
<path d="M25.3996 8.35303L9.99121 16.8764V33.9155L25.3996 42.4388L40.8005 33.9155V16.8764L25.3996 8.35303Z" stroke="#222222" stroke-width="1.5" stroke-linecap="round" stroke-linejoin="round"/>
<path d="M13.6152 18.877L25.3999 25.3921L37.1771 18.877" stroke="#222222" stroke-width="1.5" stroke-linecap="round" stroke-linejoin="round"/>
<path d="M25.3999 25.3921V38.4375" stroke="#222222" stroke-width="1.5" stroke-linecap="round" stroke-linejoin="round"/>
</svg>
